<svg width="1559" height="2695" viewBox="0 0 1559 2695" fill="none" xmlns="http://www.w3.org/2000/svg">
<path d="M602.979 2213.45C598.317 2057.68 596.573 1901.71 579.584 1746.63C561.776 1583.97 528.697 1419.73 455.88 1272.04C415.973 1191.09 363.437 1116.39 297.667 1054.36C291.323 1048.39 281.729 1057.95 288.088 1063.95C406.068 1175.21 476.615 1324.68 518.011 1479.55C560.303 1637.76 574.828 1802.05 581.937 1965.19C585.547 2047.91 586.959 2130.71 589.432 2213.45C589.697 2222.15 603.24 2222.19 602.979 2213.45" fill="url(#paint0_linear_227:1191)"/>
<path d="M664.235 1758.72C670.541 1594.88 664.479 1430.53 645.76 1267.64C626.797 1102.59 595.041 938.72 547.12 779.56C521.016 692.88 489.964 607.707 453.417 524.88C449.901 516.92 438.235 523.8 441.724 531.707C507.448 680.654 554.797 837.387 588.364 996.547C622.344 1157.73 642.188 1321.81 649.713 1486.32C653.875 1577.05 654.193 1667.95 650.697 1758.72C650.36 1767.43 663.901 1767.41 664.235 1758.72" fill="url(#paint1_linear_227:1191)"/>
<path d="M612.151 2669.81C595.333 2415.77 597 2159.21 636.489 1907.21C671.917 1681.19 738.229 1459.03 844.385 1255.83C902.213 1145.13 971.707 1040.57 1053.16 945.828C1058.83 939.254 1049.28 929.641 1043.59 936.254C970.533 1021.23 906.797 1113.93 852.584 1211.97C798.516 1309.76 753.765 1412.64 717.547 1518.32C679.579 1629.09 651.156 1743 630.943 1858.33C609.031 1983.35 596.557 2109.95 591.396 2236.73C586.151 2365.12 588.36 2493.75 595.661 2622C596.568 2637.93 597.557 2653.89 598.609 2669.81C599.183 2678.47 612.724 2678.53 612.151 2669.81" fill="url(#paint2_linear_227:1191)"/>
<path d="M1223.39 1112.39C1258.16 1102.51 1286.01 1073.71 1305.65 1043.03C1311.35 1034.13 1315.97 1021.01 1307.61 1014.27C1304.57 1011.81 1300.55 1011.03 1296.69 1010.33C1263.2 1004.21 1225.36 1001.88 1193.07 991.161C1164.97 981.841 1161.92 957.147 1196.56 954.774C1243.8 951.547 1291.36 952.281 1338.57 956.974C1368 959.894 1400.92 963.467 1423.99 945.614C1442.85 931.027 1449.4 906.241 1454.85 883.214C1459.45 863.761 1464.07 844.308 1468.67 824.868C1470.55 816.908 1472.39 808.374 1469.32 800.721C1462.95 784.908 1441.24 783.041 1423.99 783.854C1395.31 785.188 1366.63 786.534 1337.95 787.881C1326.6 788.414 1311.51 786.121 1309.79 775.081C1367.37 756.934 1430.16 752.761 1489.97 744.921C1496.19 744.108 1502.75 743.161 1507.63 739.321C1511.93 735.921 1514.32 730.734 1516.21 725.614C1522.93 707.467 1525.33 687.748 1523.19 668.454C1522.83 665.214 1522.24 661.774 1520.03 659.334C1517.27 656.308 1512.8 655.614 1508.72 655.121C1476.61 651.188 1444.51 647.267 1412.4 643.347C1423.56 623.547 1450.39 619.241 1473.55 619.108C1496.72 618.974 1522.44 620.027 1539.84 605.227C1560.27 587.854 1559.81 557.068 1557.73 530.441C1555.69 504.468 1553.65 478.494 1551.61 452.508C1551.4 449.761 1551.12 446.841 1549.4 444.641C1546.24 440.548 1540 440.881 1534.87 441.667C1473.4 450.987 1412.95 466.147 1354.6 486.881C1342.23 491.281 1329.48 496.227 1320.64 505.761C1295.43 532.974 1315.43 576.787 1309.67 613.281C1306.75 631.854 1290.63 651.668 1272.11 646.521C1261.43 643.574 1254.35 632.948 1252.43 622.241C1250.51 611.521 1252.73 600.601 1254.96 590.001C1259 570.787 1263.03 551.574 1267.07 532.361C1269.21 522.107 1270.97 510.201 1264.03 502.134C1254.03 490.521 1235.07 495.947 1221.47 502.881C1192.88 517.427 1165.64 534.494 1140.2 553.827C1119.33 569.667 1098.16 589.974 1097.09 616.001C1096.44 631.894 1103.55 647.041 1109.32 661.988C1119.6 688.561 1126.07 716.521 1128.45 744.761C1128.91 749.934 1129.15 755.414 1126.69 759.974C1122.75 767.414 1112.51 769.947 1104.32 767.294C1096.15 764.641 1089.91 757.934 1085.47 750.681C1060.85 710.467 1082.03 653.547 1053.57 615.827C1015.43 641.587 981.627 673.454 953.88 709.814C948.027 717.494 942.24 725.841 941.347 735.441C940.56 743.841 943.627 752.134 946.84 760.001C962.52 798.334 983.093 834.788 1007.92 868.228C1015.09 877.881 1021.33 894.041 1010.48 899.161C1003.52 902.454 995.547 897.267 989.747 892.147C955.28 861.654 929.027 822.267 914.459 779.147C913.167 775.307 911.86 771.268 908.953 768.388C903.328 762.788 893.417 763.694 887.068 768.334C880.724 772.988 877.156 780.361 874.088 787.534C837.26 873.814 837.609 981.241 892.593 1060.45C919.636 1099.41 955.56 1133.37 999.08 1153.21C1042.61 1173.05 1094.09 1177.75 1138.37 1160.73C1148.05 1157.01 1158.97 1146.97 1153 1138.51C1151.09 1135.81 1147.92 1134.32 1144.88 1133C1125.43 1124.52 1104.97 1117.93 1087 1106.69C1075 1099.19 1025.27 1039.43 1068.31 1048.72C1077.95 1050.8 1085.44 1058.08 1092.61 1064.79C1123.84 1094.03 1163.96 1119.69 1206.6 1115.57C1212.36 1115.01 1217.95 1113.93 1223.39 1112.39" fill="url(#paint3_linear_227:1191)"/>
<path d="M942.72 1075.76C988.56 1016.93 1039.95 963.08 1089.81 907.734C1139.95 852.12 1189.25 795.76 1238.97 739.8C1289 683.52 1338.45 625.88 1392.6 573.493C1439.76 527.853 1490.84 486.494 1538.39 441.254C1537.19 441.347 1536 441.48 1534.87 441.667C1473.4 450.987 1412.95 466.147 1354.6 486.88C1342.23 491.28 1329.48 496.227 1320.64 505.76C1295.43 532.973 1315.43 576.787 1309.67 613.28C1306.75 631.854 1290.63 651.667 1272.11 646.52C1261.43 643.574 1254.35 632.947 1252.43 622.24C1250.51 611.52 1252.73 600.6 1254.96 590C1259 570.787 1263.03 551.573 1267.07 532.36C1269.21 522.107 1270.97 510.2 1264.03 502.134C1254.03 490.52 1235.07 495.947 1221.47 502.88C1192.88 517.427 1165.64 534.493 1140.2 553.827C1119.33 569.667 1098.16 589.974 1097.09 616C1096.44 631.894 1103.55 647.04 1109.32 661.987C1119.6 688.56 1126.07 716.52 1128.45 744.76C1128.91 749.933 1129.15 755.414 1126.69 759.974C1122.75 767.414 1112.51 769.947 1104.32 767.293C1096.15 764.64 1089.91 757.933 1085.47 750.68C1060.85 710.467 1082.03 653.547 1053.57 615.827C1015.43 641.587 981.627 673.454 953.88 709.813C948.027 717.493 942.24 725.84 941.347 735.44C940.56 743.84 943.627 752.134 946.84 760C962.52 798.334 983.093 834.787 1007.92 868.227C1015.09 877.88 1021.33 894.04 1010.48 899.16C1003.52 902.454 995.547 897.267 989.747 892.147C955.28 861.653 929.027 822.267 914.459 779.147C913.167 775.307 911.86 771.267 908.953 768.387C903.328 762.787 893.417 763.694 887.068 768.334C880.724 772.987 877.156 780.36 874.088 787.534C837.26 873.814 837.609 981.24 892.593 1060.45C902.167 1074.24 912.864 1087.39 924.604 1099.51C930.573 1091.55 936.6 1083.63 942.72 1075.76" fill="url(#paint4_linear_227:1191)"/>
<path d="M844.213 799.614C861.511 760.694 856.464 713.747 843.516 672.827C839.76 660.974 831.401 646.867 818.989 649.347C814.473 650.254 810.708 653.307 807.161 656.267C776.369 681.947 745.708 714.441 711.651 735.574C682.011 753.974 657.364 738.094 681.355 704.96C714.068 659.774 750.615 617.281 790.484 578.107C815.349 553.667 843.412 526.574 844.661 492.241C845.688 464.161 828.203 439.521 811.479 417.227C797.344 398.374 783.224 379.547 769.099 360.694C763.323 353.001 756.979 344.881 747.745 341.894C728.62 335.721 710.552 353.974 698.271 370.187C677.844 397.147 657.417 424.121 637 451.081C628.921 461.761 615.453 473.707 604.161 466.907C631.193 401.107 674.797 341.147 712.828 281.094C716.787 274.854 720.864 268.214 721.079 260.907C721.271 254.441 718.36 248.361 715.161 242.787C703.803 223.014 687.771 205.961 668.688 193.347C665.489 191.227 661.943 189.161 658.052 189.334C653.24 189.521 649.245 193.054 645.713 196.374C617.927 222.467 590.161 248.561 562.385 274.654C552.88 249.627 569.219 222.094 586.584 201.027C603.953 179.961 624.292 157.481 624.047 130.561C623.745 98.9739 595.527 76.1605 569.86 57.9605C544.812 40.2005 519.771 22.4405 494.729 4.69388C492.073 2.81388 489.224 0.85393 485.937 0.747264C479.844 0.53393 475.437 6.42737 472.271 11.654C434.339 74.3074 402.443 140.467 377.177 208.907C371.823 223.427 366.677 238.694 368.645 253.881C374.235 297.227 428.979 312.201 457.661 344.934C472.255 361.601 478.027 391.121 459.401 404.014C448.661 411.454 433.719 409.841 422.568 403.494C411.421 397.147 403.229 386.894 395.307 376.881C380.964 358.734 366.625 340.574 352.276 322.427C344.625 312.747 335.183 302.174 322.645 302.374C304.588 302.667 295.193 323.921 291.197 341.454C282.792 378.307 277.693 415.827 275.984 453.427C274.584 484.281 276.984 518.76 299.719 539.36C313.615 551.934 332.688 556.947 350.568 562.987C382.375 573.747 412.552 588.987 439.917 608.121C444.921 611.641 450.068 615.547 452.364 621.187C456.099 630.374 450.672 641.587 442.099 646.974C433.521 652.374 422.755 652.947 412.828 651.494C357.875 643.427 322.344 581.321 266.74 578.614C261.265 632.574 264.593 687.201 276.557 739.747C279.088 750.827 282.297 762.361 290.292 770.414C297.303 777.467 307.12 780.947 316.672 783.974C363.188 798.707 411.697 807.6 460.697 810.36C474.844 811.16 494.172 817.707 490.615 831.387C488.339 840.161 477.631 843.481 468.625 844.854C415.021 853.041 359.573 847.081 309.568 827.721C305.104 826.001 300.473 824.134 295.677 824.587C286.355 825.467 279.693 835.107 279.12 844.36C278.541 853.614 282.511 862.401 286.693 870.587C336.984 969.014 434.448 1049.75 547.636 1059.77C603.297 1064.69 661.131 1057.8 711.917 1033.39C762.708 1008.97 805.807 965.934 823.828 913.014C827.76 901.441 826.917 884.001 814.745 883.014C810.88 882.707 807.136 884.441 803.636 886.201C781.287 897.401 759.891 910.947 736.161 918.734C720.307 923.934 628.713 923.841 669.584 891.907C678.751 884.747 690.995 883.454 702.473 882.027C752.495 875.841 805.984 858.894 834.437 817.201C838.276 811.574 841.521 805.694 844.213 799.614" fill="url(#paint5_linear_227:1191)"/>
<path d="M599.312 1025.96C580.651 940.08 570.688 852.947 558.245 766.054C545.735 678.734 531.932 591.6 518.817 504.36C505.625 416.64 490.797 328.4 484.229 239.88C478.505 162.76 479.62 85.3204 474.563 8.1737C473.735 9.32036 472.969 10.507 472.271 11.6536C434.339 74.307 402.443 140.467 377.177 208.907C371.823 223.427 366.677 238.694 368.645 253.88C374.235 297.227 428.979 312.2 457.661 344.934C472.255 361.6 478.027 391.12 459.401 404.014C448.661 411.454 433.719 409.84 422.568 403.493C411.421 397.147 403.229 386.894 395.307 376.88C380.964 358.734 366.625 340.573 352.276 322.427C344.625 312.747 335.183 302.174 322.645 302.374C304.588 302.667 295.193 323.92 291.197 341.454C282.792 378.307 277.693 415.827 275.984 453.427C274.584 484.28 276.984 518.76 299.719 539.36C313.615 551.933 332.688 556.947 350.568 562.987C382.375 573.747 412.552 588.987 439.917 608.12C444.921 611.64 450.068 615.547 452.364 621.187C456.099 630.374 450.672 641.587 442.099 646.974C433.521 652.374 422.755 652.947 412.828 651.493C357.875 643.427 322.344 581.32 266.74 578.614C261.265 632.574 264.593 687.2 276.557 739.747C279.088 750.827 282.297 762.36 290.292 770.413C297.303 777.467 307.12 780.947 316.672 783.974C363.188 798.707 411.697 807.6 460.697 810.36C474.844 811.16 494.172 817.707 490.615 831.387C488.339 840.16 477.631 843.48 468.625 844.854C415.021 853.04 359.573 847.08 309.568 827.72C305.104 826 300.473 824.134 295.677 824.587C286.355 825.467 279.693 835.107 279.12 844.36C278.541 853.613 282.511 862.4 286.693 870.587C336.984 969.014 434.448 1049.75 547.631 1059.77C567.333 1061.51 587.297 1061.73 607.136 1060.27C604.417 1048.87 601.807 1037.43 599.312 1025.96" fill="url(#paint6_linear_227:1191)"/>
<path d="M462.973 985.08C459.979 957.8 441.943 933.293 421.464 914.707C415.521 909.333 406.292 904.187 400.193 909.6C397.969 911.573 396.869 914.493 395.855 917.28C387.036 941.573 380.511 969.613 368.396 992.427C357.869 1012.28 338.989 1011.44 341.599 985.213C345.151 949.44 351.719 913.92 361.213 879.173C367.131 857.507 373.964 833.333 363.521 813.8C354.989 797.84 337.255 789.8 320.713 782.813C306.74 776.893 292.765 770.987 278.787 765.08C273.073 762.667 266.912 760.2 260.803 761.533C248.145 764.293 244.005 780.32 242.432 793.333C239.807 814.96 237.183 836.613 234.568 858.24C233.521 866.813 229.896 877.827 221.412 877.707C215.115 832.307 219.937 784.787 221.64 739.013C221.823 734.253 221.937 729.227 219.683 725.093C217.688 721.427 214.099 718.987 210.516 716.92C197.776 709.6 183.323 705.307 168.604 704.48C166.131 704.333 163.489 704.333 161.375 705.693C158.76 707.36 157.683 710.613 156.792 713.613C149.792 737.147 142.792 760.68 135.792 784.227C122.385 773.373 122.547 752.747 125.38 735.373C128.224 718.027 132.255 698.907 123.38 684C112.969 666.507 89.86 662.96 69.6666 661.147C49.964 659.387 30.2546 657.627 10.5573 655.867C8.47329 655.68 6.25062 655.52 4.38529 656.52C0.921285 658.373 0.379978 663.08 0.311978 667.027C-0.484022 714.213 3.21331 761.387 11.344 807.693C13.084 817.507 15.172 827.68 21.188 835.493C38.364 857.813 73.6933 848.387 100.287 857.32C113.812 861.867 126.604 876.427 120.417 889.64C116.849 897.267 108.011 901.213 99.74 901.307C91.4733 901.387 83.588 898.333 75.9213 895.32C62.0573 889.88 48.188 884.427 34.312 878.973C26.912 876.067 18.224 873.24 11.3066 877.413C1.34931 883.427 3.01597 898.307 6.47331 909.373C13.7453 932.613 23.084 955.16 34.328 976.653C43.552 994.28 56.0733 1012.69 75.412 1016.79C87.2293 1019.29 99.464 1015.89 111.385 1013.45C132.584 1009.12 154.323 1007.83 175.771 1009.61C179.697 1009.93 183.833 1010.45 186.937 1012.84C192 1016.75 192.604 1024.75 189.584 1030.52C186.557 1036.31 180.751 1040.13 174.755 1042.53C141.547 1055.88 101.615 1032.81 69.7813 1049.35C84.2347 1081.16 103.807 1110.51 127.511 1135.87C132.521 1141.23 138.041 1146.6 145.109 1148.49C151.297 1150.15 157.891 1148.91 164.197 1147.48C194.875 1140.6 224.76 1129.81 252.932 1115.45C261.073 1111.32 273.953 1108.69 276.417 1117.47C277.995 1123.08 273.104 1128.4 268.541 1132.09C241.355 1154.04 208.547 1168.69 174.427 1174.15C171.38 1174.63 168.197 1175.09 165.677 1176.91C160.776 1180.41 160.193 1187.95 162.869 1193.28C165.541 1198.63 170.615 1202.23 175.593 1205.43C235.516 1243.91 315.979 1257.25 382.235 1226.12C414.828 1210.81 444.787 1188.21 465.14 1158.15C485.5 1128.08 495.541 1090.13 488.401 1054.83C486.844 1047.11 480.713 1037.67 473.62 1041.07C471.364 1042.15 469.849 1044.33 468.469 1046.45C459.661 1059.93 452.14 1074.41 441.453 1086.44C434.317 1094.48 383.287 1124.15 395.688 1093.11C398.464 1086.15 404.86 1081.45 410.803 1076.93C436.64 1057.27 460.912 1030.48 463.235 998.04C463.547 993.653 463.437 989.333 462.973 985.08" fill="url(#paint7_linear_227:1191)"/>
<path d="M400.047 1190.53C361.803 1148.77 327.995 1103.49 292.869 1059.16C257.588 1014.6 221.64 970.56 186.041 926.24C150.245 881.68 113.364 837.36 80.9893 790.213C52.7973 749.133 28.3026 705.653 0.458625 664.347C0.374625 665.253 0.333311 666.16 0.311978 667.027C-0.484022 714.213 3.21331 761.387 11.344 807.693C13.084 817.507 15.172 827.68 21.188 835.493C38.364 857.813 73.6933 848.387 100.287 857.32C113.812 861.867 126.604 876.427 120.417 889.64C116.849 897.267 108.011 901.213 99.74 901.307C91.4733 901.387 83.588 898.333 75.9213 895.32C62.0573 889.88 48.188 884.427 34.312 878.973C26.912 876.067 18.224 873.24 11.3066 877.413C1.34931 883.427 3.01597 898.307 6.47331 909.373C13.7453 932.613 23.084 955.16 34.328 976.653C43.552 994.28 56.0733 1012.69 75.412 1016.79C87.2293 1019.29 99.4639 1015.89 111.385 1013.45C132.584 1009.12 154.323 1007.83 175.771 1009.61C179.697 1009.93 183.833 1010.45 186.937 1012.84C191.995 1016.75 192.604 1024.75 189.584 1030.52C186.557 1036.31 180.751 1040.13 174.755 1042.53C141.547 1055.88 101.615 1032.81 69.7813 1049.35C84.2346 1081.16 103.807 1110.51 127.511 1135.87C132.521 1141.23 138.041 1146.6 145.109 1148.49C151.297 1150.15 157.891 1148.91 164.197 1147.48C194.875 1140.6 224.76 1129.81 252.932 1115.47C261.073 1111.32 273.953 1108.69 276.417 1117.47C277.995 1123.08 273.104 1128.4 268.541 1132.09C241.355 1154.04 208.547 1168.69 174.427 1174.15C171.38 1174.63 168.197 1175.09 165.677 1176.91C160.776 1180.41 160.193 1187.95 162.869 1193.28C165.541 1198.63 170.615 1202.23 175.593 1205.43C235.516 1243.91 315.979 1257.25 382.235 1226.12C393.765 1220.69 404.964 1214.35 415.521 1207.09C410.312 1201.63 405.156 1196.11 400.047 1190.53" fill="url(#paint8_linear_227:1191)"/>
<path d="M946.267 2140.99H316.333C288.729 2140.99 266.151 2118.41 266.151 2090.81V1997.61C266.151 1970.01 288.729 1947.43 316.333 1947.43H946.267C973.853 1947.43 996.44 1970.01 996.44 1997.61V2090.81C996.44 2118.41 973.853 2140.99 946.267 2140.99Z" fill="url(#paint9_linear_227:1191)"/>
<path d="M908.593 2572.72L942.533 2140.99H320.052L353.995 2572.72C359.407 2641.56 416.849 2694.67 485.901 2694.67H776.693C845.74 2694.67 903.188 2641.56 908.593 2572.72" fill="url(#paint10_linear_227:1191)"/>
<path d="M918.609 1947.43C883.115 1910.83 827.188 1898.07 780.885 1881.4C741.62 1867.27 699.604 1869.59 658.667 1868.2C614.823 1866.71 570.88 1870.73 527.62 1877.65C493.557 1883.11 459.812 1891.57 427.573 1903.92C415.489 1908.55 403.636 1913.72 392.047 1919.48C375.729 1927.59 359.145 1936.88 343.973 1947.43H918.609" fill="url(#paint11_linear_227:1191)"/>
<defs>
<linearGradient id="paint0_linear_227:1191" x1="189.667" y1="1113.59" x2="733.441" y2="2141.59" gradientUnits="userSpaceOnUse">
<stop stop-color="#335246"/>
<stop offset="0.215084" stop-color="#335246"/>
<stop offset="0.226537" stop-color="#335246"/>
<stop offset="0.969274" stop-color="#243A31"/>
<stop offset="1" stop-color="#243A31"/>
</linearGradient>
<linearGradient id="paint1_linear_227:1191" x1="275.584" y1="619.88" x2="830.177" y2="1668.33" gradientUnits="userSpaceOnUse">
<stop stop-color="#335246"/>
<stop offset="0.215084" stop-color="#335246"/>
<stop offset="0.226537" stop-color="#335246"/>
<stop offset="0.969274" stop-color="#243A31"/>
<stop offset="1" stop-color="#243A31"/>
</linearGradient>
<linearGradient id="paint2_linear_227:1191" x1="517.333" y1="1220.55" x2="1136.01" y2="2390.15" gradientUnits="userSpaceOnUse">
<stop stop-color="#335246"/>
<stop offset="0.215084" stop-color="#335246"/>
<stop offset="0.226537" stop-color="#335246"/>
<stop offset="0.969274" stop-color="#243A31"/>
<stop offset="1" stop-color="#243A31"/>
</linearGradient>
<linearGradient id="paint3_linear_227:1191" x1="1062.21" y1="598.348" x2="1410.94" y2="958.607" gradientUnits="userSpaceOnUse">
<stop stop-color="#335246"/>
<stop offset="0.215084" stop-color="#335246"/>
<stop offset="0.226537" stop-color="#335246"/>
<stop offset="0.969274" stop-color="#243A31"/>
<stop offset="1" stop-color="#243A31"/>
</linearGradient>
<linearGradient id="paint4_linear_227:1191" x1="1057.08" y1="596.947" x2="1241.76" y2="780.532" gradientUnits="userSpaceOnUse">
<stop stop-color="#335246"/>
<stop offset="0.215084" stop-color="#335246"/>
<stop offset="0.226537" stop-color="#335246"/>
<stop offset="0.969274" stop-color="#243A31"/>
<stop offset="1" stop-color="#243A31"/>
</linearGradient>
<linearGradient id="paint5_linear_227:1191" x1="257.5" y1="557.547" x2="846.642" y2="513.771" gradientUnits="userSpaceOnUse">
<stop stop-color="#335246"/>
<stop offset="0.215084" stop-color="#335246"/>
<stop offset="0.226537" stop-color="#335246"/>
<stop offset="0.969274" stop-color="#243A31"/>
<stop offset="1" stop-color="#243A31"/>
</linearGradient>
<linearGradient id="paint6_linear_227:1191" x1="252.271" y1="561.254" x2="557.736" y2="532.658" gradientUnits="userSpaceOnUse">
<stop stop-color="#335246"/>
<stop offset="0.215084" stop-color="#335246"/>
<stop offset="0.226537" stop-color="#335246"/>
<stop offset="0.969274" stop-color="#243A31"/>
<stop offset="1" stop-color="#243A31"/>
</linearGradient>
<linearGradient id="paint7_linear_227:1191" x1="57.864" y1="1040.59" x2="371.668" y2="825.107" gradientUnits="userSpaceOnUse">
<stop stop-color="#335246"/>
<stop offset="0.215084" stop-color="#335246"/>
<stop offset="0.226537" stop-color="#335246"/>
<stop offset="0.969274" stop-color="#243A31"/>
<stop offset="1" stop-color="#243A31"/>
</linearGradient>
<linearGradient id="paint8_linear_227:1191" x1="56.0573" y1="1044.4" x2="216.885" y2="929.385" gradientUnits="userSpaceOnUse">
<stop stop-color="#335246"/>
<stop offset="0.215084" stop-color="#335246"/>
<stop offset="0.226537" stop-color="#335246"/>
<stop offset="0.969274" stop-color="#243A31"/>
<stop offset="1" stop-color="#243A31"/>
</linearGradient>
<linearGradient id="paint9_linear_227:1191" x1="266.251" y1="2044.17" x2="828.096" y2="2044.17" gradientUnits="userSpaceOnUse">
<stop stop-color="#7AD1B8"/>
<stop offset="0.0977654" stop-color="#7AD1B8"/>
<stop offset="1" stop-color="#64C2A8"/>
</linearGradient>
<linearGradient id="paint10_linear_227:1191" x1="320.125" y1="2417.79" x2="942.565" y2="2417.79" gradientUnits="userSpaceOnUse">
<stop stop-color="#6CCCAD"/>
<stop offset="1" stop-color="#3D9574"/>
</linearGradient>
<linearGradient id="paint11_linear_227:1191" x1="303.625" y1="1907.67" x2="939.059" y2="1907.67" gradientUnits="userSpaceOnUse">
<stop stop-color="#F5B691"/>
<stop offset="0.108939" stop-color="#F5B691"/>
<stop offset="0.12814" stop-color="#F5B691"/>
<stop offset="0.963687" stop-color="#E49068"/>
<stop offset="1" stop-color="#E49068"/>
</linearGradient>
</defs>
</svg>
