<svg width="2094" height="1854" viewBox="0 0 2094 1854" fill="none" xmlns="http://www.w3.org/2000/svg">
<path d="M106.891 971.213C146.219 909.226 208.292 920.547 241.145 979.707C200.516 926.547 200.063 880.947 240.193 840.8C279.417 801.573 352.604 812.453 365.317 862.707C336.14 737.2 541.677 725.453 531.219 852.507C540.417 787.933 674.697 801.88 625.115 894.4C624.036 895.52 624.563 895.8 625.036 894.32C656.724 796.813 790.479 890.027 724.052 947.587C780.027 934.827 797.693 995.226 794.828 1034.08C790.937 1086.93 749.364 1102.28 702.855 1107.97C592.855 1121.43 474.984 1100.43 362.36 1105.17C329.921 1106.52 297.052 1106.93 263.964 1108.13C213.792 1109.95 161.063 1144.16 124.093 1097.93C99.8441 1067.61 84.6774 1006.24 106.891 971.213" fill="#9ABC67"/>
<path d="M1020.01 740.72C1008.87 656.56 1153.49 649.16 1139.75 728.64C1171.55 675.587 1260.72 727.68 1236.08 787.773C1262.12 783.04 1282.87 804.28 1292.57 826.653C1304.57 854.28 1295.73 874.08 1277.25 896.507C1302.19 896.2 1328.48 918.067 1330.12 943.787C1332.48 980.987 1326.56 992.107 1306.59 1011.93C1334.09 1014.64 1342.53 1048.19 1341.75 1073.05C1340.53 1111.17 1321.65 1119.6 1288.37 1125.83C1249.2 1133.13 1216.68 1133.49 1177 1128.67C1143.84 1124.63 1108.12 1112.69 1073.72 1112.99C1017.48 1113.48 961.511 1106.56 905.917 1098.69C868.391 1093.39 815.677 1096.59 791.271 1062.91C771.479 1035.57 764.459 1000.79 777.563 969.467C784.713 952.373 821.473 905.507 842.86 935.587C812.36 910.84 812.224 886.707 821.557 858.333C830.937 829.84 863.964 804.853 892.443 819.547C873.396 782.693 890.161 743.293 924 719.72C924 719.72 984.613 679.333 1020.01 740.72" fill="#9ABC67"/>
<path d="M1487.85 830.613C1470.25 773.64 1569.53 751.533 1569.36 808.16C1585.15 767.706 1653.01 793.293 1643 837.8C1660.48 831.466 1677.35 843.747 1686.71 858.093C1698.24 875.8 1694.45 890.546 1684.28 908.266C1701.52 905.12 1722.29 917.173 1726.45 934.787C1732.45 960.267 1729.67 968.666 1718.17 984.733C1737.52 983.386 1747.31 1005.61 1749.69 1022.92C1753.33 1049.47 1741.25 1057.52 1718.93 1065.73C1692.67 1075.4 1670.19 1079.48 1642.16 1080.8C1618.72 1081.89 1592.57 1077.83 1568.8 1082.07C1529.91 1089.01 1490.35 1090.81 1450.92 1091.89C1424.31 1092.61 1388.19 1101.04 1367.33 1080.57C1350.4 1063.97 1341.47 1040.72 1346.85 1017.49C1349.8 1004.81 1369.75 968.026 1388.09 986.36C1364.07 972.8 1361.13 956.107 1364.27 935.36C1367.41 914.547 1387.33 893.36 1408.8 900.187C1391.27 876.893 1398.27 847.64 1418.92 827.36C1418.92 827.36 1456.13 792.266 1487.85 830.613" fill="#3E6840"/>
<path d="M192.063 253.733C124.292 229.373 114 167.467 109.099 103.613C128.197 106.187 172.036 149.28 180.917 166.747C195.183 194.8 185.068 232.173 191.38 261.493L192.063 253.733" fill="#7EC868"/>
<path d="M225.713 331.72C198.989 241.653 234.312 210.253 274.719 160.56C286.803 175.573 288.927 237 283.339 255.8C274.38 285.96 241.312 306.107 225.713 331.72" fill="#7EC868"/>
<path d="M271.921 443.973C245.193 353.92 280.536 322.506 320.927 272.813C333.011 287.826 335.14 349.253 329.552 368.053C320.588 398.213 287.516 418.36 271.921 443.973" fill="#7EC868"/>
<path d="M301.677 543.813C288.068 450.853 327.516 424.813 374.584 381.387C384.401 397.973 377.755 459.08 369.541 476.88C356.375 505.453 320.76 520.68 301.677 543.813Z" fill="#7EC868"/>
<path d="M330.527 669.24C331.751 575.306 374.812 555.813 428.151 520.36C435.219 538.266 419.005 597.56 408.104 613.853C390.584 640 353.027 649.413 330.527 669.24Z" fill="#7EC868"/>
<path d="M348.38 823.12C349.593 729.187 392.656 709.68 445.989 674.227C453.073 692.147 436.869 751.44 425.943 767.733C408.432 793.867 370.88 803.28 348.38 823.12" fill="#7EC868"/>
<path d="M349.568 985.547C366.672 893.173 412.417 881.253 470.973 855.333C474.927 874.187 448.912 929.88 435.396 944.093C413.703 966.893 375.099 969.813 349.568 985.547Z" fill="#7EC868"/>
<path d="M249.745 389.533C216.651 325.56 146.349 325.227 82.3906 328.773C87.4586 347.36 135.959 385.133 154.437 391.64C184.125 402.093 219.849 387.133 249.745 389.533Z" fill="#7EC868"/>
<path d="M288.751 502.24C255.661 438.267 185.344 437.933 121.407 441.493C126.473 460.08 174.953 497.853 193.448 504.36C223.136 514.8 258.849 499.84 288.751 502.24" fill="#7EC868"/>
<path d="M322.5 622.76C289.427 558.787 219.104 558.453 155.151 562C160.235 580.587 208.719 618.36 227.213 624.867C256.901 635.32 292.609 620.36 322.5 622.76Z" fill="#7EC868"/>
<path d="M340.287 747.187C307.213 683.2 236.891 682.867 172.938 686.413C178.021 705 226.5 742.773 245 749.28C274.688 759.733 310.396 744.773 340.287 747.187Z" fill="#7EC868"/>
<path d="M350.755 896.627C317.672 832.653 247.355 832.32 183.412 835.867C188.479 854.453 236.959 892.227 255.459 898.733C285.14 909.187 320.869 894.213 350.755 896.627" fill="#7EC868"/>
<path d="M170.62 228.987C288.787 437.76 347.052 674.867 347.052 912.493C347.052 954.853 345.197 997.227 341.516 1039.45C341.349 1041.28 342.703 1042.89 344.536 1043.05C346.364 1043.23 347.979 1041.87 348.14 1040.03C351.844 997.613 353.708 955.053 353.708 912.493C353.708 673.773 295.172 435.56 176.417 225.707C175.505 224.12 173.479 223.547 171.88 224.453C170.281 225.36 169.719 227.387 170.62 228.987" fill="#1D1E32"/>
<path d="M1052.8 510.253C1120.57 485.893 1130.85 423.987 1135.76 360.133C1116.65 362.707 1072.83 405.8 1063.95 423.28C1049.68 451.32 1059.79 488.707 1053.48 518.013L1052.8 510.253Z" fill="#7EC868"/>
<path d="M1019.15 588.24C1045.87 498.186 1010.55 466.773 970.133 417.08C958.057 432.093 955.932 493.533 961.516 512.32C970.48 542.493 1003.55 562.626 1019.15 588.24" fill="#7EC868"/>
<path d="M972.933 700.493C999.667 610.44 964.323 579.04 923.932 529.346C911.849 544.36 909.719 605.787 915.303 624.587C924.271 654.747 957.339 674.88 972.933 700.493" fill="#7EC868"/>
<path d="M943.177 800.333C956.787 707.387 917.344 681.347 870.271 637.907C860.459 654.493 867.104 715.6 875.312 733.413C888.479 761.987 924.099 777.213 943.177 800.333" fill="#7EC868"/>
<path d="M914.328 925.773C913.109 831.84 870.047 812.333 816.703 776.88C809.636 794.8 825.855 854.093 836.755 870.387C854.271 896.52 891.833 905.933 914.328 925.773" fill="#7EC868"/>
<path d="M896.479 1079.64C895.265 985.72 852.203 966.213 798.869 930.747C791.787 948.667 807.989 1007.97 818.917 1024.25C836.427 1050.4 873.973 1059.81 896.479 1079.64" fill="#7EC868"/>
<path d="M895.292 1242.07C878.188 1149.69 832.437 1137.79 773.885 1111.85C769.932 1130.72 795.943 1186.41 809.464 1200.63C831.151 1223.41 869.76 1226.35 895.292 1242.07" fill="#7EC868"/>
<path d="M995.12 646.053C1028.21 582.08 1098.51 581.746 1162.47 585.293C1157.4 603.88 1108.91 641.666 1090.43 648.173C1060.73 658.613 1025.01 643.653 995.12 646.053" fill="#7EC868"/>
<path d="M956.104 758.773C989.2 694.8 1059.51 694.453 1123.45 698.013C1118.39 716.6 1069.91 754.373 1051.41 760.88C1021.72 771.333 986.013 756.373 956.104 758.773" fill="#7EC868"/>
<path d="M922.36 879.28C955.432 815.306 1025.75 814.973 1089.71 818.52C1084.63 837.12 1036.15 874.893 1017.64 881.4C987.96 891.84 952.251 876.88 922.36 879.28Z" fill="#7EC868"/>
<path d="M904.573 1003.71C937.645 939.72 1007.96 939.4 1071.92 942.947C1066.84 961.533 1018.36 999.307 999.853 1005.81C970.173 1016.25 934.464 1001.29 904.573 1003.71Z" fill="#7EC868"/>
<path d="M894.099 1153.16C927.188 1089.17 997.507 1088.84 1061.45 1092.39C1056.39 1110.99 1007.91 1148.75 989.4 1155.27C959.719 1165.71 923.989 1150.75 894.099 1153.16" fill="#7EC868"/>
<path d="M1068.44 482.24C949.683 692.08 891.145 930.307 891.145 1169.03C891.145 1211.57 893.005 1254.15 896.719 1296.56C896.875 1298.39 898.489 1299.75 900.317 1299.59C902.151 1299.43 903.505 1297.81 903.344 1295.97C899.645 1253.75 897.797 1211.39 897.797 1169.03C897.797 931.387 956.073 694.293 1074.24 485.52C1075.15 483.92 1074.57 481.893 1072.97 480.987C1071.39 480.08 1069.36 480.64 1068.45 482.24H1068.44" fill="#1D1E32"/>
<path d="M1223.37 401.173C1155.6 376.813 1145.31 314.906 1140.4 251.066C1159.51 253.64 1203.35 296.72 1212.23 314.2C1226.49 342.24 1216.37 379.626 1222.69 408.933L1223.37 401.173" fill="#7EC868"/>
<path d="M1257.03 479.16C1230.29 389.107 1265.61 357.693 1306.03 308C1318.11 323.027 1320.24 384.453 1314.64 403.253C1305.69 433.413 1272.61 453.547 1257.03 479.16" fill="#7EC868"/>
<path d="M1303.23 591.427C1276.51 501.36 1311.84 469.96 1352.24 420.267C1364.32 435.28 1366.45 496.707 1360.85 515.507C1351.89 545.667 1318.83 565.813 1303.23 591.427" fill="#7EC868"/>
<path d="M1332.99 691.253C1319.37 598.307 1358.83 572.267 1405.89 528.827C1415.71 545.413 1409.07 606.52 1400.85 624.333C1387.68 652.907 1352.07 668.133 1332.99 691.253" fill="#7EC868"/>
<path d="M1361.84 816.693C1363.05 722.76 1406.12 703.253 1459.45 667.8C1466.52 685.72 1450.31 745.013 1439.41 761.307C1421.89 787.453 1384.33 796.867 1361.84 816.693" fill="#7EC868"/>
<path d="M1379.69 970.573C1380.91 876.627 1423.96 857.133 1477.29 821.667C1484.39 839.587 1468.17 898.88 1457.25 915.173C1439.73 941.32 1402.19 950.733 1379.69 970.573Z" fill="#7EC868"/>
<path d="M1380.88 1133C1397.97 1040.61 1443.72 1028.69 1502.28 1002.79C1506.23 1021.64 1480.21 1077.33 1466.71 1091.55C1445.01 1114.35 1406.4 1117.27 1380.88 1133Z" fill="#7EC868"/>
<path d="M1281.05 536.973C1247.96 473 1177.65 472.666 1113.69 476.213C1118.76 494.813 1167.27 532.587 1185.75 539.093C1215.43 549.533 1251.16 534.573 1281.05 536.973" fill="#7EC868"/>
<path d="M1320.05 649.693C1286.97 585.72 1216.65 585.387 1152.72 588.933C1157.79 607.52 1206.27 645.293 1224.76 651.813C1254.44 662.253 1290.16 647.293 1320.05 649.693Z" fill="#7EC868"/>
<path d="M1353.81 770.213C1320.73 706.24 1250.41 705.893 1186.45 709.453C1191.55 728.04 1240.03 765.813 1258.52 772.32C1288.21 782.773 1323.92 767.8 1353.81 770.213Z" fill="#7EC868"/>
<path d="M1371.6 894.627C1338.52 830.64 1268.2 830.307 1204.24 833.867C1209.33 852.453 1257.81 890.227 1276.31 896.733C1306 907.187 1341.71 892.213 1371.6 894.627Z" fill="#7EC868"/>
<path d="M1382.07 1044.08C1348.97 980.093 1278.65 979.76 1214.72 983.32C1219.79 1001.91 1268.27 1039.68 1286.76 1046.19C1316.45 1056.64 1352.17 1041.67 1382.07 1044.08" fill="#7EC868"/>
<path d="M1201.93 376.44C1320.08 585.213 1378.36 822.307 1378.36 1059.95C1378.36 1102.31 1376.51 1144.67 1372.81 1186.91C1372.65 1188.73 1374.01 1190.35 1375.84 1190.51C1377.67 1190.67 1379.29 1189.32 1379.45 1187.49C1383.15 1145.07 1385.01 1102.51 1385.01 1059.95C1385.01 821.227 1326.48 583 1207.72 373.16C1206.81 371.573 1204.79 371 1203.19 371.907C1201.59 372.813 1201.03 374.84 1201.93 376.44" fill="#1D1E32"/>
<path d="M1973.99 492.866C2041.76 468.506 2052.05 406.6 2056.95 342.76C2037.85 345.333 1994.03 388.413 1985.15 405.893C1970.88 433.933 1980.99 471.32 1974.67 500.626L1973.99 492.866" fill="#7EC868"/>
<path d="M1940.35 570.853C1967.07 480.8 1931.73 449.387 1891.33 399.693C1879.25 414.707 1877.13 476.146 1882.72 494.946C1891.67 525.106 1924.75 545.24 1940.35 570.853" fill="#7EC868"/>
<path d="M1894.13 683.12C1920.85 593.053 1885.52 561.653 1845.13 511.96C1833.05 526.973 1830.92 588.413 1836.51 607.2C1845.47 637.36 1878.53 657.493 1894.13 683.12" fill="#7EC868"/>
<path d="M1864.37 782.947C1877.99 690 1838.55 663.96 1791.47 620.52C1781.65 637.107 1788.31 698.213 1796.51 716.027C1809.68 744.6 1845.29 759.827 1864.37 782.947" fill="#7EC868"/>
<path d="M1835.52 908.387C1834.31 814.453 1791.24 794.947 1737.91 759.493C1730.84 777.413 1747.05 836.707 1757.95 853C1775.47 879.147 1813.03 888.56 1835.52 908.387" fill="#7EC868"/>
<path d="M1817.68 1062.27C1816.45 968.333 1773.4 948.813 1720.07 913.36C1712.99 931.28 1729.19 990.587 1740.11 1006.87C1757.63 1033.01 1795.17 1042.43 1817.68 1062.27Z" fill="#7EC868"/>
<path d="M1816.48 1224.69C1799.39 1132.31 1753.64 1120.39 1695.08 1094.48C1691.13 1113.33 1717.15 1169.03 1730.67 1183.24C1752.35 1206.04 1790.96 1208.96 1816.48 1224.69Z" fill="#7EC868"/>
<path d="M1916.31 628.667C1949.4 564.693 2019.71 564.36 2083.67 567.907C2078.6 586.493 2030.09 624.28 2011.61 630.787C1981.93 641.227 1946.21 626.267 1916.31 628.667Z" fill="#7EC868"/>
<path d="M1877.31 741.387C1910.4 677.413 1980.71 677.08 2044.65 680.627C2039.59 699.213 1991.11 736.987 1972.61 743.507C1942.92 753.947 1907.2 738.987 1877.31 741.387Z" fill="#7EC868"/>
<path d="M1843.56 861.907C1876.63 797.92 1946.95 797.587 2010.91 801.147C2005.83 819.733 1957.33 857.507 1938.84 864.013C1909.16 874.467 1873.44 859.493 1843.56 861.907Z" fill="#7EC868"/>
<path d="M1825.77 986.32C1858.84 922.333 1929.16 922 1993.12 925.56C1988.04 944.147 1939.56 981.92 1921.05 988.427C1891.37 998.88 1855.65 983.907 1825.77 986.32Z" fill="#7EC868"/>
<path d="M1815.29 1135.77C1848.39 1071.79 1918.71 1071.45 1982.64 1075.01C1977.57 1093.6 1929.09 1131.37 1910.6 1137.88C1880.92 1148.32 1845.19 1133.36 1815.29 1135.77Z" fill="#7EC868"/>
<path d="M1989.64 464.853C1870.88 674.693 1812.35 912.92 1812.35 1151.64C1812.35 1194.19 1814.2 1236.76 1817.92 1279.17C1818.07 1281 1819.69 1282.36 1821.52 1282.2C1823.35 1282.04 1824.71 1280.43 1824.55 1278.6C1820.84 1236.36 1819 1194 1819 1151.64C1819 914 1877.27 676.907 1995.44 468.133C1996.33 466.533 1995.77 464.507 1994.17 463.6C1992.57 462.693 1990.55 463.253 1989.64 464.853Z" fill="#1D1E32"/>
<path d="M46.964 916.653C71.792 940.267 105.093 952.733 130.115 975.587C156.932 1000.07 173.771 1033.39 187.677 1064.23C197.953 979.053 216.62 891.36 171.197 813.906C127.636 739.64 59.7187 683.933 17.172 608.76C7.81736 653.467 7.23469 703.467 2.90669 749.333C-2.77064 809.653 0.302686 872.267 46.964 916.653" fill="#67B04C"/>
<path d="M48.6094 704.76C74.8907 782.6 109.251 842.6 123.64 876.547C140.437 916.133 153.177 956.973 165.464 999.173C185.047 1066.4 194.401 1146.48 212.167 1207.28C212.688 1209.04 214.531 1210.05 216.303 1209.53C218.063 1209.03 219.073 1207.17 218.563 1205.41C200.995 1145.47 191.62 1065.29 171.855 997.307C159.541 955.027 146.729 913.933 129.765 873.947C115.047 839.307 80.984 779.867 54.912 702.64C54.328 700.907 52.4374 699.96 50.6934 700.547C48.9534 701.147 48.0267 703.027 48.6094 704.76Z" fill="#282A4D"/>
<path d="M733.38 554.933C713.948 465.626 738.375 359.786 769.271 364.813C769.271 364.813 802.88 391.68 733.38 554.933Z" fill="#76983E"/>
<path d="M756.667 707.12C764.021 616.013 818.14 521.827 846.245 535.613C846.245 535.613 870.604 571.093 756.667 707.12Z" fill="#76983E"/>
<path d="M766.364 882.6C773.719 791.507 827.839 697.32 855.943 711.107C855.943 711.107 880.303 746.587 766.364 882.6Z" fill="#76983E"/>
<path d="M764.677 1057.11C785.473 968.106 852.973 883 878.713 900.8C878.713 900.8 897.536 939.506 764.677 1057.11Z" fill="#76983E"/>
<path d="M747.193 629.88C719.459 542.8 645.464 463.267 621.197 483.04C621.197 483.04 605.489 523.107 747.193 629.88Z" fill="#76983E"/>
<path d="M761.364 796.187C733.636 709.093 659.636 629.56 635.375 649.346C635.375 649.346 619.667 689.4 761.364 796.187Z" fill="#76983E"/>
<path d="M766.364 960.707C738.636 873.627 664.636 794.093 640.375 813.88C640.375 813.88 624.667 853.933 766.364 960.707Z" fill="#76983E"/>
<path d="M766.364 1121.21C738.636 1034.12 664.636 954.6 640.375 974.373C640.375 974.373 624.667 1014.44 766.364 1121.21Z" fill="#76983E"/>
<path d="M695.136 438.813C748.479 544.44 746.943 682.68 756.88 800.133C761.735 857.227 763.036 914.08 763.036 971C763.036 1036.75 761.303 1102.6 761.303 1169.03C761.303 1170.88 762.787 1172.36 764.625 1172.36C766.464 1172.36 767.953 1170.88 767.953 1169.03C767.953 1102.72 769.688 1036.88 769.688 971C769.688 913.973 768.38 856.933 763.511 799.573C753.516 682.573 755.364 543.613 701.073 435.813C700.251 434.173 698.251 433.52 696.604 434.346C694.969 435.173 694.312 437.16 695.136 438.813" fill="#282A4D"/>
<path d="M714.735 475.8C642.672 419.573 593.751 322.587 620.708 306.693C620.708 306.693 663.735 305.853 714.735 475.8Z" fill="#76983E"/>
<path d="M1535.24 431.987C1554.67 342.68 1530.24 236.84 1499.35 241.867C1499.35 241.867 1465.73 268.733 1535.24 431.987Z" fill="#76983E"/>
<path d="M1511.95 584.173C1504.6 493.08 1450.48 398.88 1422.37 412.68C1422.37 412.68 1398.01 448.147 1511.95 584.173Z" fill="#76983E"/>
<path d="M1502.25 759.667C1494.89 668.56 1440.77 574.373 1412.67 588.16C1412.67 588.16 1388.31 623.64 1502.25 759.667Z" fill="#76983E"/>
<path d="M1503.93 934.16C1483.15 845.16 1415.64 760.053 1389.91 777.853C1389.91 777.853 1371.08 816.56 1503.93 934.16Z" fill="#76983E"/>
<path d="M1521.43 506.933C1549.16 419.853 1623.16 340.32 1647.41 360.093C1647.41 360.093 1663.12 400.16 1521.43 506.933Z" fill="#76983E"/>
<path d="M1507.25 673.24C1534.99 586.16 1608.97 506.613 1633.24 526.4C1633.24 526.4 1648.95 566.466 1507.25 673.24Z" fill="#76983E"/>
<path d="M1502.25 837.773C1529.97 750.68 1603.97 671.147 1628.24 690.933C1628.24 690.933 1643.95 730.987 1502.25 837.773Z" fill="#76983E"/>
<path d="M1502.25 998.267C1529.97 911.187 1603.97 831.653 1628.24 851.427C1628.24 851.427 1643.95 891.493 1502.25 998.267Z" fill="#76983E"/>
<path d="M1567.55 312.866C1513.25 420.666 1515.09 559.64 1505.11 676.626C1500.23 734 1498.92 791.04 1498.92 848.066C1498.92 913.933 1500.67 979.773 1500.67 1046.09C1500.67 1047.93 1502.15 1049.43 1503.99 1049.43C1505.83 1049.43 1507.32 1047.93 1507.32 1046.09C1507.32 979.653 1505.57 913.813 1505.57 848.066C1505.57 791.133 1506.88 734.28 1511.73 677.187C1521.67 559.733 1520.15 421.493 1573.48 315.866C1574.31 314.226 1573.64 312.226 1572 311.4C1570.37 310.573 1568.36 311.226 1567.55 312.866" fill="#282A4D"/>
<path d="M1553.88 352.853C1625.95 296.627 1674.87 199.64 1647.91 183.747C1647.91 183.747 1604.88 182.907 1553.88 352.853Z" fill="#76983E"/>
<path d="M415.36 388.08C398.828 440.12 383.031 523.427 371.063 615.04C359.104 706.653 351.005 806.507 349.995 891.427C349.625 922.613 349.505 953.787 349.505 984.933C349.505 1047.23 349.995 1109.43 349.995 1171.57C349.995 1173.41 351.484 1174.91 353.323 1174.91C355.161 1174.91 356.651 1173.41 356.651 1171.57C356.651 1109.39 356.156 1047.19 356.156 984.933C356.156 953.8 356.281 922.653 356.651 891.507C357.651 806.947 365.724 707.28 377.656 615.907C389.579 524.547 405.385 441.4 421.703 390.093C422.255 388.333 421.287 386.467 419.536 385.907C417.787 385.36 415.921 386.32 415.36 388.08" fill="#282A4D"/>
<path d="M234.979 623.76C234.979 623.76 149.62 815.893 331.412 1092.84C331.412 1092.84 390.869 864.84 234.979 623.76Z" fill="#76983E"/>
<path d="M466.459 630.773C466.459 630.773 554.178 821.827 375.792 1101C375.792 1101 313.527 873.747 466.459 630.773Z" fill="#5F7E42"/>
<path d="M487.412 62.5465C491.323 74.8798 493.073 88.2131 493.073 102.013C493.109 148.6 473.016 200.506 450.667 236.413C449.693 237.973 450.172 240.027 451.735 240.987C453.297 241.96 455.344 241.48 456.317 239.92C479.172 203.093 499.688 150.48 499.729 102.013C499.729 87.6398 497.907 73.6398 493.751 60.5332C493.193 58.7865 491.323 57.8133 489.573 58.3733C487.828 58.9199 486.849 60.7998 487.412 62.5465Z" fill="#282A4D"/>
<path d="M564.287 82.7335C521.869 128.734 492.479 187.573 477.161 248.613C476.708 250.4 477.797 252.2 479.579 252.654C481.364 253.094 483.167 252.014 483.615 250.227C498.672 190.16 527.64 132.28 569.177 87.2403C570.421 85.8936 570.339 83.7868 568.989 82.5468C567.636 81.3068 565.531 81.3869 564.292 82.7335H564.287" fill="#282A4D"/>
<path d="M604.219 130.493C558.229 142.053 520.125 182.04 497.921 220.76C497.005 222.347 497.557 224.387 499.156 225.293C500.745 226.213 502.781 225.653 503.688 224.067C525.203 186.387 562.584 147.667 605.828 136.933C607.609 136.493 608.693 134.694 608.251 132.907C607.803 131.12 605.995 130.04 604.219 130.493Z" fill="#282A4D"/>
<path d="M383.751 143.707C400.505 143.707 414.651 179.547 421.917 210.213C425.855 195.92 455.751 148.867 477.073 151.013C505.693 153.893 493.875 196.213 511.5 213.893C525.688 200.333 548.511 170.56 569.74 191.227C588.427 207.147 557.349 230.093 564.339 252.787C590.088 246.387 625.661 249.587 606.547 288.147C590.401 320.693 557.505 337.533 527.401 354.853C496.74 372.493 464.355 403.947 427.131 403.693C393.333 403.48 384.989 349.147 378.131 324.52C362.953 269.96 342.547 153.933 383.751 143.707Z" fill="#EB7180"/>
<path d="M547.136 323.92C545.792 297.827 522.645 298.427 506.473 312.493C500.287 317.88 494.35 322.867 486.386 325.307C469.782 330.4 463.609 315.547 464.989 302.36C465.568 296.84 469.396 272.08 453.422 277.893C446.522 280.4 441.334 285.667 436.73 291.2C430.194 299.053 424.473 308.107 416.568 314.68C414.729 316.213 411.697 316.28 410.437 313.88C403.26 300.267 403.203 282.467 394.448 269.907C386.527 258.533 371.984 255.16 365.14 264.987C368.803 287.293 373.688 308.547 378.131 324.52C384.989 349.147 393.333 403.48 427.131 403.693C464.355 403.947 496.74 372.493 527.401 354.853C533.063 351.587 538.823 348.36 544.552 345.027C546.344 338.093 547.5 331.093 547.136 323.92Z" fill="#E84975"/>
<path d="M496.172 53.8535L492.864 53.4801C492.651 55.4934 490.932 56.9736 488.989 56.9736L488.568 56.9468C486.547 56.7468 485.063 55.0268 485.063 53.0668L485.084 52.7069L485.088 52.6403C485.297 50.6403 487.016 49.16 488.964 49.16L489.407 49.1869C491.401 49.3869 492.885 51.1068 492.885 53.0668L492.86 53.5468L496.172 53.8535L492.864 53.4801L496.172 53.8535L499.484 54.16L499.536 53.0668C499.536 47.7335 495.531 43.1603 490.125 42.5736L488.964 42.5069C483.631 42.5069 479.073 46.5202 478.479 51.9202L481.787 52.2801L478.484 51.8535L478.412 53.0668C478.412 58.4001 482.421 62.9736 487.844 63.5736L488.989 63.6267C494.323 63.6267 498.869 59.6134 499.479 54.2134L499.484 54.16L496.172 53.8535" fill="#282A4D"/>
<path d="M577.735 77.7868L574.421 78.0933L574.437 78.4933C574.437 80.48 572.927 82.2001 570.917 82.3868L570.527 82.4134C568.552 82.4134 566.833 80.8934 566.651 78.88L566.645 78.8667L566.625 78.48C566.625 76.5067 568.131 74.8001 570.156 74.6001L570.547 74.5735C572.511 74.5735 574.224 76.0935 574.421 78.1201V78.0933L577.735 77.7868L581.047 77.4535C580.5 72.0135 575.927 67.9335 570.547 67.9201L569.511 67.9735C564.047 68.5202 559.973 73.1067 559.973 78.48L560.027 79.5334V79.5201C560.563 84.9735 565.14 89.0535 570.527 89.0535L571.563 89.0001C577.016 88.4667 581.084 83.88 581.088 78.4933L581.047 77.4667V77.4535L577.735 77.7868" fill="#282A4D"/>
<path d="M619.489 133.707H616.161C616.156 135.88 614.412 137.613 612.26 137.627C610.093 137.613 608.355 135.88 608.349 133.707C608.355 131.547 610.093 129.813 612.26 129.8C614.412 129.813 616.156 131.547 616.161 133.707H619.489H622.817C622.817 127.88 618.093 123.16 612.26 123.147C606.417 123.147 601.697 127.88 601.697 133.707C601.697 139.547 606.417 144.28 612.26 144.28C618.093 144.28 622.817 139.547 622.817 133.707H619.489Z" fill="#282A4D"/>
<path d="M1109.57 347.627C1125.89 398.92 1141.71 482.08 1153.61 573.44C1165.55 664.813 1173.63 764.48 1174.63 849.027C1175 880.187 1175.12 911.333 1175.12 942.467C1175.12 1004.72 1174.63 1066.93 1174.63 1129.12C1174.63 1130.95 1176.12 1132.44 1177.95 1132.44C1179.79 1132.44 1181.28 1130.95 1181.28 1129.12C1181.28 1066.96 1181.77 1004.76 1181.77 942.467C1181.77 911.32 1181.64 880.147 1181.28 848.947C1180.28 764.04 1172.17 664.187 1160.21 572.573C1148.25 480.947 1132.45 397.653 1115.92 345.613C1115.36 343.853 1113.49 342.893 1111.73 343.453C1109.99 344 1109.03 345.867 1109.57 347.627" fill="#282A4D"/>
<path d="M1296.31 581.293C1296.31 581.293 1381.67 773.427 1199.87 1050.39C1199.87 1050.39 1140.4 822.373 1296.31 581.293Z" fill="#76983E"/>
<path d="M1064.81 588.307C1064.81 588.307 977.107 779.373 1155.48 1058.53C1155.48 1058.53 1217.75 831.28 1064.81 588.307Z" fill="#5F7E42"/>
<path d="M1037.53 18.0666C1033.37 31.1733 1031.55 45.1866 1031.55 59.5466C1031.59 108.013 1052.09 160.64 1074.96 197.453C1075.93 199.013 1077.97 199.493 1079.55 198.52C1081.11 197.56 1081.57 195.507 1080.61 193.947C1058.27 158.04 1038.17 106.133 1038.2 59.5466C1038.2 45.7466 1039.95 32.4132 1043.87 20.0799C1044.43 18.3332 1043.45 16.4667 1041.71 15.9067C1039.96 15.3467 1038.09 16.32 1037.53 18.0666Z" fill="#282A4D"/>
<path d="M962.093 44.7868C1003.64 89.8134 1032.6 147.693 1047.67 207.76C1048.11 209.547 1049.92 210.627 1051.71 210.187C1053.48 209.733 1054.56 207.92 1054.12 206.147C1038.8 145.12 1009.4 86.2667 966.987 40.2667C965.745 38.9201 963.64 38.8267 962.292 40.08C960.937 41.3333 960.855 43.4268 962.104 44.7868H962.093Z" fill="#282A4D"/>
<path d="M925.453 94.4799C968.693 105.2 1006.07 143.92 1027.59 181.6C1028.51 183.187 1030.53 183.747 1032.12 182.827C1033.72 181.92 1034.28 179.88 1033.36 178.293C1011.16 139.573 973.053 99.5865 927.063 88.0265C925.276 87.5732 923.469 88.6667 923.027 90.4401C922.588 92.2267 923.667 94.0266 925.453 94.4799" fill="#282A4D"/>
<path d="M1147.52 101.24C1130.77 101.24 1116.63 137.08 1109.36 167.76C1105.43 153.453 1075.53 106.413 1054.2 108.546C1025.59 111.426 1037.4 153.76 1019.79 171.427C1005.6 157.853 982.76 128.093 961.536 148.76C942.855 164.68 973.933 187.64 966.947 210.32C941.193 203.92 905.62 207.133 924.729 245.68C940.88 278.24 973.773 295.08 1003.88 312.387C1034.55 330.04 1066.92 361.48 1104.15 361.24C1137.95 361.013 1146.28 306.68 1153.15 282.053C1168.33 227.493 1188.73 111.467 1147.52 101.24" fill="#EB7180"/>
<path d="M984.147 281.467C985.493 255.36 1008.64 255.96 1024.8 270.04C1031 275.427 1036.93 280.413 1044.89 282.84C1061.51 287.92 1067.67 273.08 1066.28 259.893C1065.71 254.373 1061.88 229.613 1077.85 235.427C1084.76 237.933 1089.95 243.2 1094.55 248.733C1101.09 256.587 1106.8 265.64 1114.71 272.213C1116.55 273.746 1119.59 273.813 1120.84 271.427C1128.03 257.813 1128.08 240 1136.83 227.44C1144.76 216.067 1159.29 212.707 1166.15 222.52C1162.48 244.827 1157.59 266.08 1153.15 282.053C1146.28 306.68 1137.95 361.013 1104.15 361.24C1066.92 361.48 1034.55 330.04 1003.88 312.387C998.213 309.133 992.453 305.893 986.733 302.56C984.933 295.627 983.787 288.627 984.147 281.467" fill="#E84975"/>
<path d="M1035.11 11.3867L1031.8 11.7599C1032.4 17.1599 1036.96 21.1599 1042.28 21.1599L1043.43 21.0932C1048.85 20.5066 1052.85 15.9333 1052.85 10.6L1052.81 9.49325L1052.8 9.4534C1052.2 4.04007 1047.64 0.0401217 1042.31 0.0401217L1041.15 0.106788C1035.75 0.706788 1031.73 5.26668 1031.73 10.6L1031.81 11.7867L1035.11 11.3867L1031.8 11.7599L1035.11 11.3867L1038.4 10.9735L1038.39 10.6C1038.39 8.64002 1039.88 6.92012 1041.88 6.70679L1042.31 6.69325C1044.27 6.69325 1045.97 8.18674 1046.19 10.1867L1049.49 9.8133L1046.19 10.1466L1046.21 10.6C1046.21 12.5734 1044.72 14.2666 1042.72 14.4932L1042.28 14.5068C1040.35 14.5201 1038.63 13.0266 1038.41 11.0266L1038.4 10.9735L1035.11 11.3867" fill="#282A4D"/>
<path d="M953.547 35.32L950.235 34.9867L950.183 36.0401C950.183 41.4134 954.251 45.9999 959.713 46.5466L960.745 46.5867C966.131 46.5867 970.707 42.5066 971.253 37.0666V37.0401L971.307 36.0265C971.307 30.6398 967.227 26.0667 961.771 25.52L960.729 25.4666C955.344 25.4666 950.765 29.5466 950.235 35V34.9867L953.547 35.32L956.86 35.6401C957.047 33.6267 958.755 32.12 960.729 32.12L961.12 32.1333C963.136 32.3333 964.651 34.0398 964.651 36.0265L964.631 36.4132C964.432 38.4266 962.719 39.9466 960.745 39.9333L960.36 39.92C958.339 39.7333 956.833 38.0134 956.833 36.0401L956.855 35.6533L956.86 35.6401L953.547 35.32" fill="#282A4D"/>
<path d="M911.792 91.2533H908.464C908.464 97.08 913.183 101.813 919.021 101.813C924.86 101.813 929.584 97.08 929.584 91.2533C929.584 85.4133 924.86 80.6932 919.021 80.6932C913.183 80.6932 908.464 85.4133 908.464 91.2533H911.792H915.115C915.115 89.0933 916.864 87.3466 919.021 87.3333C921.183 87.3466 922.921 89.0933 922.932 91.2533C922.921 93.4133 921.183 95.1598 919.021 95.1598C916.864 95.1598 915.115 93.4133 915.115 91.2533H911.792Z" fill="#282A4D"/>
<path d="M1759.87 362.88C1743.33 414.92 1727.53 498.227 1715.57 589.853C1703.61 681.467 1695.51 781.32 1694.51 866.227C1694.13 897.427 1694.01 928.6 1694.01 959.733C1694.01 1022.03 1694.51 1084.24 1694.51 1146.39C1694.51 1148.23 1695.99 1149.72 1697.83 1149.72C1699.67 1149.72 1701.16 1148.23 1701.16 1146.39C1701.16 1084.21 1700.67 1022 1700.67 959.733C1700.67 928.613 1700.79 897.467 1701.16 866.307C1702.16 781.747 1710.23 682.093 1722.16 590.707C1734.08 499.36 1749.89 416.2 1766.21 364.893C1766.76 363.147 1765.79 361.28 1764.04 360.72C1762.29 360.16 1760.43 361.133 1759.87 362.88Z" fill="#282A4D"/>
<path d="M1579.48 598.573C1579.48 598.573 1494.12 790.693 1675.92 1067.67C1675.92 1067.67 1735.37 839.653 1579.48 598.573Z" fill="#76983E"/>
<path d="M1810.96 605.573C1810.96 605.573 1898.68 796.64 1720.29 1075.81C1720.29 1075.81 1658.03 848.56 1810.96 605.573Z" fill="#5F7E42"/>
<path d="M1831.92 37.36C1835.83 49.68 1837.57 63.0133 1837.57 76.8266C1837.61 123.413 1817.52 175.307 1795.17 211.213C1794.2 212.787 1794.68 214.827 1796.24 215.8C1797.8 216.773 1799.85 216.293 1800.83 214.733C1823.68 177.907 1844.19 125.28 1844.24 76.8266C1844.24 62.4533 1842.41 48.4534 1838.25 35.3334C1837.69 33.5867 1835.83 32.6135 1834.08 33.1735C1832.33 33.7335 1831.36 35.6 1831.92 37.36Z" fill="#282A4D"/>
<path d="M1908.79 57.5466C1866.37 103.547 1836.99 162.387 1821.67 223.427C1821.21 225.2 1822.31 227.013 1824.08 227.453C1825.87 227.907 1827.67 226.813 1828.12 225.04C1843.17 164.973 1872.15 107.093 1913.68 62.0534C1914.93 60.7067 1914.84 58.5999 1913.49 57.3599C1912.15 56.1065 1910.04 56.1866 1908.8 57.5466H1908.79" fill="#282A4D"/>
<path d="M1948.72 105.293C1902.73 116.853 1864.63 156.853 1842.43 195.56C1841.51 197.16 1842.07 199.187 1843.67 200.107C1845.25 201.013 1847.28 200.467 1848.19 198.867C1869.71 161.2 1907.09 122.48 1950.33 111.747C1952.12 111.307 1953.2 109.493 1952.76 107.72C1952.31 105.933 1950.51 104.853 1948.72 105.293Z" fill="#282A4D"/>
<path d="M1728.25 118.52C1745.01 118.52 1759.16 154.36 1766.43 185.027C1770.36 170.733 1800.25 123.68 1821.57 125.826C1850.19 128.693 1838.39 171.026 1856 188.706C1870.19 175.133 1893.01 145.373 1914.24 166.04C1932.93 181.946 1901.85 204.906 1908.84 227.6C1934.6 221.2 1970.17 224.413 1951.05 262.946C1934.91 295.506 1902.01 312.346 1871.91 329.666C1841.24 347.306 1808.85 378.746 1771.64 378.506C1737.84 378.28 1729.49 323.947 1722.64 299.32C1707.45 244.76 1687.05 128.747 1728.25 118.52Z" fill="#EB7180"/>
<path d="M1891.64 298.733C1890.29 272.626 1867.15 273.24 1850.97 287.306C1844.79 292.693 1838.85 297.68 1830.89 300.12C1814.28 305.2 1808.12 290.36 1809.49 277.16C1810.07 271.64 1813.91 246.893 1797.93 252.693C1791.03 255.2 1785.84 260.48 1781.24 266C1774.69 273.866 1768.97 282.92 1761.07 289.48C1759.24 291.013 1756.2 291.093 1754.95 288.693C1747.76 275.08 1747.71 257.28 1738.95 244.72C1731.03 233.347 1716.49 229.973 1709.64 239.787C1713.31 262.093 1718.19 283.347 1722.64 299.32C1729.49 323.947 1737.84 378.28 1771.64 378.506C1808.85 378.746 1841.24 347.306 1871.91 329.666C1877.57 326.4 1883.33 323.16 1889.05 319.827C1890.85 312.907 1892 305.906 1891.64 298.733" fill="#E84975"/>
<path d="M1840.68 28.6667L1837.37 28.2933C1837.16 30.2933 1835.44 31.7868 1833.49 31.7868L1833.07 31.76C1831.05 31.5466 1829.57 29.84 1829.57 27.88L1829.59 27.5201L1829.6 27.4535C1829.8 25.4535 1831.52 23.96 1833.47 23.96L1833.91 23.9868C1835.91 24.2001 1837.39 25.9067 1837.39 27.88L1837.36 28.36L1840.68 28.6667L1837.37 28.2933L1840.68 28.6667L1843.99 28.96L1844.04 27.88C1844.04 22.5467 1840.04 17.9735 1834.63 17.3735L1833.47 17.3069C1828.13 17.3069 1823.57 21.3201 1822.99 26.7334L1826.29 27.0933L1822.99 26.6667L1822.92 27.88C1822.92 33.2134 1826.93 37.7869 1832.35 38.3735L1833.49 38.4402C1838.83 38.4269 1843.37 34.4266 1843.99 29.0266V28.96L1840.68 28.6667" fill="#282A4D"/>
<path d="M1922.24 52.5868L1918.92 52.9068L1918.95 53.3068C1918.95 55.2801 1917.43 57.0001 1915.43 57.1868L1915.03 57.2133C1913.05 57.2133 1911.33 55.6933 1911.16 53.6933L1911.15 53.6667L1911.13 53.2933C1911.13 51.3066 1912.64 49.6 1914.67 49.4133L1915.05 49.3868C1917.01 49.3868 1918.73 50.9068 1918.92 52.9201V52.9068L1922.24 52.5868L1925.55 52.2667C1925 46.8134 1920.43 42.7467 1915.05 42.7334L1914.01 42.7868C1908.55 43.3334 1904.48 47.9066 1904.48 53.2933L1904.53 54.3466V54.3334C1905.07 59.7867 1909.64 63.8534 1915.03 63.8667L1916.07 63.8133C1921.52 63.2666 1925.59 58.6935 1925.6 53.3068L1925.55 52.28V52.2667L1922.24 52.5868" fill="#282A4D"/>
<path d="M1964 108.52H1960.67C1960.67 110.68 1958.92 112.426 1956.76 112.426C1954.6 112.426 1952.85 110.68 1952.85 108.52C1952.85 106.36 1954.6 104.613 1956.76 104.613C1958.92 104.613 1960.67 106.36 1960.67 108.52H1964H1967.32C1967.32 102.693 1962.6 97.9598 1956.76 97.9598C1950.92 97.9598 1946.2 102.693 1946.2 108.52C1946.2 114.36 1950.92 119.08 1956.76 119.08C1962.6 119.08 1967.32 114.36 1967.32 108.52H1964Z" fill="#282A4D"/>
<path d="M605.245 856.96C591.151 875.44 570.197 887.36 555.891 905.36C540.568 924.627 532.864 948.733 526.855 970.88C510.828 914.947 488.932 858.227 511.036 801.493C532.24 747.093 571.735 702.493 592.167 647.587C603.219 676.52 608.984 709.947 616.792 740.2C627.079 779.973 631.735 822.24 605.245 856.96" fill="#76983E"/>
<path d="M575.912 714.333C566.755 768.747 550.36 812.093 544.183 837C537.093 865.667 532.921 894.6 529.213 924.24C523.255 972.013 525.573 1026.72 520.26 1068.6C520.031 1070.43 521.317 1072.09 523.145 1072.32C524.964 1072.55 526.636 1071.27 526.86 1069.44C532.245 1026.68 529.921 972.067 535.812 925.067C539.511 895.507 543.651 866.84 550.636 838.6C556.599 814.427 573.213 770.48 582.473 715.427C582.771 713.613 581.552 711.907 579.745 711.6C577.932 711.293 576.219 712.52 575.912 714.333Z" fill="#282A4D"/>
<path d="M1731.71 989.373C1693.17 946.546 1754.19 887.733 1795.84 921.813C1761.12 853.146 1882.44 814.32 1886.92 886.92C1917.4 847.973 1987.04 868.733 1971.61 922.427C2030.45 904.76 2058.76 982.266 2023.21 1010.77C2053.92 1018.12 2059.28 1064.36 2037.09 1082.07C2017.05 1098.08 1967.32 1094.31 1941.15 1094.31C1906.59 1094.31 1871.53 1092.21 1837.87 1089.4C1799.65 1086.21 1739.68 1097.95 1707.97 1069.89C1693.91 1057.44 1678.23 1046.19 1685.32 1010.89C1688.08 997.187 1718.59 967.28 1731.71 989.373Z" fill="#526C38"/>
<path d="M1824.24 1853.05L2003.83 1220.96H108.088L287.683 1853.05H1824.24Z" fill="#F78E6A"/>
<path d="M749.385 1814.97C734.765 1754.73 720.036 1694.52 704.631 1634.48C693.011 1589.23 677.693 1543.28 676.328 1496.15C675.536 1468.83 680.995 1444.21 697.729 1422.21C717.776 1395.87 746.265 1375.76 771.292 1354.49C818.751 1314.19 861.131 1268.15 902.281 1220.96H108.088L287.683 1853.05H758.609C755.536 1840.36 752.464 1827.67 749.385 1814.97Z" fill="#D65456"/>
<path d="M1990.57 1267.6L2003.83 1220.96H108.088L121.339 1267.6H1990.57Z" fill="#D65456"/>
<path d="M2093.63 1220.96H18.292V1054.28H2093.63V1220.96Z" fill="#F46E65"/>
<path d="M1964 1361.27L1951.56 1404.97C1926.21 1418.43 1900.15 1433.19 1880.52 1453.6C1860.03 1474.89 1836.88 1494.72 1809.73 1507.49C1690.27 1563.69 1615.51 1462.72 1514.85 1417.36C1425.25 1376.91 1349.08 1477.41 1267.67 1500.77C1192.36 1522.39 1121.92 1511.81 1066.24 1455.07C1041.43 1429.85 1018.01 1398.19 985.547 1382.23C943.177 1361.27 893.355 1365.07 850.251 1382.17C803.219 1400.79 772.625 1431.45 734.568 1462.79C707.297 1485.2 677.833 1496.91 641.907 1494.99C564.812 1490.79 519.844 1437.77 458.645 1398.72C407.287 1365.93 360.26 1378.91 311.766 1410.51C270.724 1437.31 228.683 1470.91 184.516 1489.93L175.932 1459.67C266.333 1420.15 349.688 1303.01 455.516 1358.28C520.511 1392.21 571.26 1466.77 651.886 1461.65C703.438 1458.4 725.588 1419.75 764.104 1392.01C796.099 1369 832.953 1349.04 871.869 1340.79C948.031 1324.76 1009.11 1346.51 1061.72 1402.12C1086.53 1428.33 1112.87 1461.79 1149.07 1472.29C1198.09 1486.4 1252.51 1476.43 1297.33 1453.35C1360.12 1421.01 1429.84 1350.91 1507.15 1378.57C1579.57 1404.51 1634.85 1473.69 1711.09 1489.73C1801.03 1508.69 1854.91 1420.88 1924.75 1381.96C1937.79 1374.72 1950.76 1367.2 1964 1361.27Z" fill="#F46E65"/>
<path d="M1928.41 1486.53L1915.37 1532.43C1902.67 1540.55 1890.69 1549.67 1880.52 1560.24C1860.03 1581.6 1836.88 1601.35 1809.73 1614.12C1690.27 1670.33 1615.51 1569.43 1514.85 1523.97C1425.25 1483.61 1349.08 1584.12 1267.67 1607.47C1192.36 1629.01 1121.92 1618.52 1066.24 1561.77C1041.43 1536.49 1018.01 1504.89 985.547 1488.87C943.177 1467.97 893.355 1471.76 850.251 1488.87C803.219 1507.49 772.625 1538.16 734.568 1569.48C707.297 1591.91 677.833 1603.55 641.907 1601.61C564.812 1597.49 519.844 1544.48 458.645 1505.43C407.287 1472.56 360.26 1485.53 311.765 1517.13C279.041 1538.49 245.645 1564.23 211.052 1583.45L202.339 1552.72C282.901 1505.49 360.057 1415.09 455.516 1464.91C520.511 1498.91 571.26 1573.41 651.885 1568.29C703.437 1565.03 725.588 1526.39 764.104 1498.72C796.099 1475.69 832.953 1455.67 871.869 1447.48C948.031 1431.39 1009.11 1453.21 1061.72 1508.81C1086.53 1535.03 1112.87 1568.48 1149.07 1578.93C1198.09 1593.09 1252.51 1583.05 1297.33 1559.97C1360.12 1527.64 1429.84 1457.6 1507.15 1485.27C1579.57 1511.21 1634.85 1580.33 1711.09 1596.43C1801.03 1615.39 1854.91 1527.52 1924.75 1488.6C1925.95 1487.93 1927.21 1487.2 1928.41 1486.53" fill="#F46E65"/>
<path d="M1891.03 1618.05L1875.72 1671.8C1856.44 1691.21 1834.81 1709.04 1809.73 1720.81C1690.27 1777.03 1615.51 1676.05 1514.85 1630.68C1425.25 1590.24 1349.08 1690.75 1267.67 1714.11C1192.36 1735.72 1121.92 1725.15 1066.24 1668.4C1041.43 1643.19 1018.01 1611.53 985.547 1595.56C943.177 1574.6 893.355 1578.4 850.251 1595.49C803.219 1614.12 772.625 1644.79 734.568 1676.12C707.297 1698.53 677.833 1710.24 641.907 1708.32C564.812 1704.12 519.844 1651.11 458.645 1612.05C407.287 1579.27 360.26 1592.24 311.765 1623.84C287.292 1639.8 262.412 1658.23 236.932 1674.52L228.021 1642.99C299.593 1594.43 370.24 1527.05 455.516 1571.61C520.511 1605.6 571.26 1680.11 651.885 1674.99C703.437 1671.73 725.588 1633.08 764.104 1605.33C796.099 1582.32 832.953 1562.37 871.869 1554.12C948.031 1538.08 1009.11 1559.84 1061.72 1615.45C1086.53 1641.67 1112.87 1675.12 1149.07 1685.63C1198.09 1699.73 1252.51 1689.75 1297.33 1666.68C1360.12 1634.33 1429.84 1564.23 1507.15 1591.91C1579.57 1617.91 1634.85 1687.03 1711.09 1703.12C1786.12 1718.89 1836.01 1660.43 1891.03 1618.05" fill="#F46E65"/>
<path d="M1688.81 1321.21C1670.43 1341.4 1745.13 1414.83 1750.72 1445.91C1758.77 1490.65 1761.96 1539.31 1758.84 1586.17C1756.77 1617.09 1731.29 1694.32 1757.4 1717.55C1822.93 1681.51 1838.52 1561.33 1857.15 1499.52C1869.84 1457.4 1878.79 1420.15 1899.4 1379.89C1923.05 1333.73 1927.65 1292.89 1863.21 1296.51C1823 1298.75 1716.55 1290.73 1688.81 1321.21" fill="white"/>
<path d="M1781.45 1782.25C1779.95 1802.92 1765.85 1818.75 1749.96 1817.61C1734.05 1816.47 1722.36 1798.79 1723.84 1778.12C1725.33 1757.45 1739.44 1741.61 1755.33 1742.76C1771.23 1743.91 1782.93 1761.59 1781.45 1782.25Z" fill="white"/>
</svg>
