<svg width="920" height="1147" viewBox="0 0 920 1147" fill="none" xmlns="http://www.w3.org/2000/svg">
<path d="M503.959 85.2783C497.159 76.5783 487.959 69.9783 478.659 64.1783C476.159 62.6783 472.659 63.6783 471.259 66.1783C464.059 79.5783 457.459 93.2783 449.159 106.078C446.459 110.278 442.559 115.878 439.159 118.378C438.959 118.578 438.059 118.978 437.659 119.178C437.559 119.078 437.559 119.078 437.459 118.978C436.759 117.978 436.359 116.878 436.059 115.778C429.659 96.0783 437.459 74.9783 432.359 55.1783C429.659 44.6783 423.059 33.7783 415.459 26.0783C407.259 17.7783 396.259 13.8783 391.159 2.67829C389.259 -1.42171 383.859 -0.32171 381.759 2.67829C369.959 19.6783 353.359 37.3783 350.159 58.6783C347.359 77.5783 357.559 93.3783 368.459 107.778C373.759 114.678 378.959 121.778 383.059 129.478C385.359 133.778 389.259 141.378 385.159 145.578C380.859 149.978 374.359 142.178 370.959 138.678C363.959 131.478 358.159 123.278 352.059 115.378C342.059 102.178 326.259 82.1783 307.559 85.8783C299.259 87.4783 295.959 95.9783 295.459 103.478C294.759 115.278 300.559 128.078 306.359 137.978C319.559 160.478 346.359 167.078 363.559 185.178C367.559 189.378 378.359 203.678 372.159 209.578C369.959 211.678 364.959 210.978 362.359 210.578C356.059 209.578 349.059 207.278 344.059 203.378C324.659 188.378 317.659 162.378 297.259 148.178C288.359 141.978 274.559 138.178 263.859 140.678C254.759 142.878 250.559 151.378 250.159 160.078C249.659 170.578 254.459 181.278 259.659 190.078C265.759 200.178 274.159 208.678 284.359 214.478C304.859 226.178 330.859 227.678 344.459 249.078C346.359 251.978 348.359 255.878 347.459 259.378C346.759 262.178 342.859 263.078 340.459 263.578C329.959 265.878 316.159 261.978 306.859 257.078C295.659 251.178 287.559 240.378 278.959 231.378C269.959 221.878 259.859 214.178 247.159 210.278C237.959 207.478 226.659 207.978 220.659 216.578C215.159 224.478 216.359 235.078 218.559 243.878C221.459 255.478 227.859 266.278 235.659 275.278C244.059 284.978 257.359 290.578 269.159 294.578C281.559 298.678 294.359 301.278 306.559 305.878C309.759 307.078 312.259 307.978 315.859 308.178C319.659 308.478 323.459 308.278 327.159 309.178C330.259 309.978 328.159 313.278 327.159 315.578C324.659 320.978 316.559 320.778 311.459 321.178C306.659 321.578 301.859 322.778 296.959 322.778C291.359 322.778 285.859 321.778 280.359 320.978C269.459 319.278 258.059 317.378 247.259 320.678C236.859 323.878 229.559 333.578 227.659 344.078C223.759 366.078 248.359 379.578 266.659 382.378C278.359 384.178 288.959 381.578 299.259 375.778C311.959 368.578 321.959 358.278 336.559 356.478C337.459 362.378 335.459 366.978 330.259 371.378C323.059 377.378 313.159 380.678 304.559 383.878C287.559 390.178 262.559 395.878 253.459 413.478C252.359 415.578 252.559 418.278 254.359 420.078C262.459 427.778 271.759 433.878 283.059 434.778C292.459 435.478 301.659 431.178 309.259 426.078C322.959 416.978 334.659 402.978 349.959 396.578C347.859 400.478 344.259 403.078 339.959 406.478C332.259 412.378 328.359 420.678 326.259 429.978C323.059 444.078 327.959 459.278 344.459 459.378C353.459 459.378 362.559 454.878 370.059 450.378C378.659 445.178 385.559 437.678 390.959 429.278C397.559 418.878 401.259 406.778 403.359 394.478C417.159 421.378 447.159 449.578 475.559 426.278C499.759 406.378 459.859 391.178 444.159 375.478C447.259 376.778 450.259 378.378 453.159 379.778C461.359 383.978 469.359 388.678 477.959 392.178C493.959 398.678 511.859 398.078 521.459 381.578C529.759 367.378 512.659 360.778 502.059 357.678C493.459 355.078 477.459 352.278 471.259 343.678C492.359 345.978 515.859 348.578 534.159 336.378C542.459 330.878 552.359 320.178 553.359 309.778C554.159 301.278 544.959 298.278 538.359 297.578C520.359 295.778 502.759 303.778 484.759 303.178C480.459 303.078 476.059 302.578 471.859 301.678C470.259 301.278 468.659 300.878 467.159 300.178C466.559 299.878 466.059 299.478 465.659 299.178C465.759 298.978 465.859 298.678 466.159 298.378C467.759 296.478 469.859 295.078 471.859 293.778C476.459 290.678 481.359 288.978 486.859 288.378C497.359 287.278 507.859 288.578 518.359 286.778C530.159 284.778 539.659 277.878 547.459 269.178C554.359 261.378 561.059 251.478 562.159 240.878C563.259 229.878 556.659 222.478 546.859 218.678C519.459 208.178 503.359 236.478 483.859 249.378C478.659 252.778 472.559 255.078 466.659 256.878C464.259 257.578 457.159 260.078 454.859 258.178C453.459 257.078 458.159 249.578 458.959 248.178C462.959 241.778 467.959 237.378 474.359 233.678C490.759 224.278 510.659 221.378 523.559 206.578C532.059 196.878 538.659 180.378 530.359 168.578C521.559 155.978 502.059 159.378 490.959 166.678C477.059 175.878 470.059 194.478 453.359 198.878C451.859 190.978 454.959 183.678 460.359 176.578C468.159 166.278 478.259 157.778 487.459 148.878C496.359 140.278 505.459 130.978 510.059 119.378C514.659 107.178 511.559 95.1783 503.959 85.2783Z" fill="#325B15"/>
<path d="M917.159 466.678C919.859 455.978 919.259 444.578 918.059 433.778C917.759 430.878 914.659 428.778 911.859 429.178C896.859 431.778 881.959 435.078 866.859 436.578C861.859 437.078 855.059 437.478 850.959 436.278C850.659 436.178 849.859 435.778 849.459 435.578C849.459 435.478 849.459 435.378 849.559 435.278C849.959 434.178 850.559 433.178 851.159 432.178C862.659 414.978 884.059 407.978 896.459 391.778C903.059 383.178 907.559 371.178 908.859 360.478C910.359 348.878 906.559 337.878 912.159 326.878C914.259 322.878 909.959 319.278 906.259 319.478C885.559 320.678 861.459 318.578 842.759 329.278C826.159 338.778 820.059 356.578 815.559 374.078C813.359 382.478 811.059 390.978 807.459 398.978C805.559 403.378 801.859 411.178 796.059 410.578C789.959 409.878 792.059 399.978 792.659 395.078C793.959 385.178 796.759 375.478 799.359 365.778C803.559 349.778 809.459 324.978 794.959 312.478C788.559 306.978 779.759 309.578 773.659 313.878C763.959 320.678 757.559 333.078 753.359 343.778C743.859 368.078 755.259 393.178 751.659 417.978C750.859 423.678 746.259 441.078 737.859 439.778C734.859 439.378 732.259 434.978 731.059 432.678C727.859 427.078 725.459 420.278 725.359 413.778C725.159 389.278 741.259 367.578 739.759 342.878C739.159 331.978 733.559 318.878 724.959 311.978C717.659 306.178 708.359 308.178 701.259 313.178C692.759 319.278 687.259 329.678 683.659 339.278C679.459 350.278 678.059 362.078 679.759 373.778C683.259 397.178 698.159 418.478 689.759 442.478C688.659 445.778 686.859 449.678 683.459 451.178C680.859 452.378 677.759 449.778 675.859 448.278C667.559 441.478 662.059 428.178 660.159 417.878C657.959 405.378 661.359 392.378 663.059 380.078C664.959 367.078 664.759 354.378 659.959 342.078C656.459 333.078 649.059 324.478 638.659 325.178C629.059 325.778 621.459 333.278 615.859 340.378C608.559 349.878 604.059 361.478 601.759 373.178C599.259 385.778 603.159 399.678 607.359 411.478C611.759 423.778 617.759 435.378 621.659 447.878C622.659 451.178 623.559 453.678 625.559 456.578C627.659 459.678 630.159 462.578 631.759 466.078C633.059 468.978 629.159 469.378 626.759 469.978C620.959 471.378 616.059 464.878 612.659 461.078C609.359 457.478 605.459 454.478 602.459 450.778C598.959 446.478 596.359 441.478 593.659 436.578C588.259 426.978 582.659 416.778 573.459 410.378C564.559 404.178 552.359 404.478 542.959 409.478C523.259 420.078 527.959 447.678 537.059 463.778C542.859 474.078 551.459 480.878 562.359 485.378C575.859 490.878 590.159 492.378 600.659 502.778C596.659 507.178 591.659 508.378 584.959 507.078C575.759 505.178 567.059 499.478 559.159 494.578C543.659 485.078 523.759 468.978 504.259 472.778C501.859 473.278 499.959 475.078 499.659 477.578C498.559 488.678 499.559 499.778 505.959 509.278C511.159 517.178 520.359 521.678 529.059 524.478C544.659 529.578 562.959 530.078 577.459 538.278C573.059 538.978 568.859 537.878 563.559 536.578C554.159 534.278 545.259 536.278 536.659 540.378C523.559 546.578 514.659 559.878 524.859 572.878C530.459 579.978 539.559 584.278 547.759 587.378C557.159 590.978 567.359 591.678 577.259 590.678C589.559 589.478 601.259 584.878 612.259 578.878C599.659 606.378 596.159 647.378 631.959 655.278C662.559 661.978 649.859 621.178 652.459 599.178C653.359 602.378 653.959 605.778 654.659 608.878C656.459 617.978 657.759 627.078 660.259 635.978C665.059 652.578 676.659 666.278 695.459 663.578C711.659 661.278 706.259 643.778 702.259 633.578C698.959 625.278 691.259 610.978 694.159 600.778C705.459 618.778 717.959 638.878 738.759 645.678C748.259 648.778 762.759 649.978 771.559 644.278C778.759 639.678 775.359 630.578 771.859 624.978C762.059 609.678 744.959 600.878 734.259 586.278C731.659 582.778 729.359 579.078 727.459 575.178C726.759 573.678 726.059 572.178 725.659 570.578C725.559 569.978 725.559 569.178 725.559 568.678C725.859 568.578 726.159 568.578 726.559 568.578C729.059 568.678 731.459 569.478 733.759 570.278C739.059 571.978 743.459 574.778 747.259 578.678C754.659 586.278 760.059 595.278 767.959 602.378C776.859 610.378 788.159 613.678 799.859 614.278C810.259 614.878 822.159 613.978 831.159 608.278C840.459 602.378 842.159 592.578 839.059 582.478C830.359 554.478 798.159 559.378 775.959 551.978C770.059 549.978 764.459 546.578 759.459 543.078C757.359 541.678 751.059 537.578 751.159 534.578C751.159 532.778 759.959 531.878 761.559 531.678C769.059 530.778 775.659 531.978 782.559 534.778C800.059 541.878 814.659 555.678 834.259 556.678C847.159 557.278 864.159 552.378 868.359 538.578C872.759 523.878 858.059 510.678 845.459 506.478C829.659 501.278 810.659 507.278 796.859 496.878C802.159 490.878 809.859 488.778 818.659 488.578C831.559 488.378 844.459 490.978 857.159 492.778C869.359 494.478 882.359 495.878 894.359 492.278C906.559 488.678 914.159 478.878 917.159 466.678Z" fill="#325B15"/>
<path d="M182.759 168.179C172.459 164.179 161.159 163.279 150.159 163.079C147.259 162.979 144.759 165.779 144.859 168.679C145.559 183.879 146.959 199.079 146.459 214.279C146.259 219.279 145.859 226.079 144.159 229.979C144.059 230.179 143.559 231.078 143.259 231.378C143.159 231.378 143.059 231.279 142.959 231.279C141.859 230.779 140.959 230.079 140.059 229.279C124.459 215.679 120.259 193.579 105.659 179.179C97.9587 171.579 86.6587 165.578 76.1587 162.978C64.8587 160.078 53.3587 162.478 43.2587 155.478C39.5587 152.878 35.4587 156.679 35.1587 160.379C33.7587 181.079 28.5587 204.679 36.8587 224.679C44.1587 242.379 61.0587 250.579 77.8587 257.279C85.9587 260.479 94.0587 263.878 101.559 268.378C105.659 270.878 112.959 275.479 111.559 281.179C110.159 287.179 100.559 283.779 95.7587 282.579C86.0587 279.979 76.8587 275.979 67.5587 272.279C52.2587 266.179 28.4587 257.078 14.1587 269.878C7.85873 275.478 9.35873 284.579 12.8587 291.179C18.3587 301.679 29.8587 309.579 39.9587 315.179C62.8587 327.679 89.2587 319.479 113.359 326.279C118.959 327.779 135.559 334.479 133.259 342.779C132.459 345.679 127.759 347.679 125.359 348.679C119.459 351.079 112.259 352.678 105.959 351.878C81.6587 348.978 62.1587 330.279 37.4587 328.579C26.5587 327.879 12.8587 331.678 4.95873 339.378C-1.74126 345.878 -0.941268 355.379 3.15873 362.979C8.15873 372.179 17.7587 378.979 26.7587 383.779C37.1587 389.279 48.6587 392.279 60.4587 391.979C84.0587 391.479 107.059 379.379 129.859 390.779C132.959 392.379 136.659 394.579 137.759 398.079C138.559 400.779 135.659 403.579 133.959 405.279C126.159 412.679 112.259 416.478 101.859 416.978C89.2587 417.578 76.7587 412.579 64.7587 409.279C52.1587 405.779 39.4587 404.379 26.6587 407.579C17.3587 409.879 7.85873 416.178 7.15873 426.578C6.55873 436.178 12.9587 444.678 19.3587 451.078C27.8587 459.578 38.8587 465.478 50.1587 469.178C62.3587 473.178 76.5587 471.079 88.8587 468.479C101.559 465.679 113.859 461.178 126.759 458.878C130.159 458.278 132.759 457.678 135.859 456.078C139.259 454.378 142.459 452.278 146.059 451.178C149.159 450.278 149.059 454.178 149.359 456.678C149.959 462.678 142.959 466.578 138.759 469.578C134.759 472.378 131.359 475.878 127.159 478.378C122.459 481.278 117.159 483.278 111.959 485.378C101.759 489.578 90.9587 493.778 83.4587 502.178C76.1587 510.178 74.9587 522.378 78.7587 532.378C86.7587 553.278 114.759 552.178 131.859 545.178C142.859 540.678 150.659 533.079 156.459 522.779C163.659 510.079 166.859 496.079 178.559 486.979C182.359 491.479 183.059 496.578 180.759 503.078C177.759 511.978 170.859 519.878 165.159 527.078C153.759 541.278 135.359 558.878 136.559 578.678C136.759 581.078 138.259 583.279 140.759 583.779C151.659 586.279 162.759 586.678 172.959 581.578C181.459 577.378 187.059 568.878 190.959 560.578C197.959 545.778 200.859 527.679 210.759 514.279C210.959 518.679 209.259 522.778 207.259 527.878C203.759 536.878 204.659 545.978 207.559 555.078C212.059 568.778 224.059 579.379 238.259 570.979C246.059 566.379 251.459 557.778 255.559 550.078C260.259 541.178 262.359 531.179 262.559 521.279C262.859 508.879 259.859 496.678 255.259 485.078C280.959 501.078 321.159 509.778 333.459 475.178C343.959 445.678 301.959 453.079 280.359 447.779C283.659 447.279 287.059 447.078 290.259 446.878C299.459 446.278 308.659 446.179 317.859 444.779C334.959 442.179 349.959 432.378 349.759 413.378C349.559 396.978 331.459 400.079 320.859 402.779C312.159 404.979 297.059 410.879 287.259 406.679C306.559 397.779 328.059 387.979 337.459 368.079C341.659 359.079 344.759 344.878 340.259 335.378C336.559 327.678 327.159 329.779 321.159 332.679C304.759 340.479 293.859 356.279 278.059 365.079C274.259 367.179 270.359 368.978 266.159 370.378C264.659 370.878 262.959 371.379 261.359 371.579C260.759 371.679 259.959 371.479 259.459 371.479C259.459 371.179 259.359 370.879 259.459 370.479C259.859 368.079 260.959 365.779 261.959 363.579C264.359 358.579 267.559 354.579 272.059 351.279C280.459 344.979 290.159 340.679 298.159 333.679C307.159 325.879 311.859 315.079 314.059 303.579C315.959 293.379 316.559 281.479 312.059 271.779C307.359 261.779 297.859 258.779 287.459 260.679C258.559 265.779 259.359 298.378 249.159 319.479C246.459 325.079 242.359 330.179 238.259 334.779C236.559 336.679 231.759 342.379 228.759 341.979C226.959 341.779 227.159 332.979 227.159 331.279C227.259 323.779 229.259 317.378 232.959 310.878C242.159 294.478 257.759 281.678 261.259 262.378C263.559 249.678 260.759 232.179 247.559 226.279C233.559 220.079 218.559 232.979 212.859 244.979C205.659 259.979 209.259 279.579 197.159 291.979C191.859 285.979 190.759 278.079 191.659 269.279C193.059 256.479 197.359 243.979 200.659 231.579C203.859 219.679 206.859 206.979 204.859 194.679C203.159 181.479 194.359 172.779 182.759 168.179Z" fill="#325B15"/>
<path d="M708.859 317.478C707.359 306.578 702.659 296.178 697.559 286.478C696.159 283.878 692.559 282.978 690.159 284.578C677.259 292.578 664.559 301.078 651.059 308.078C646.559 310.378 640.459 313.278 636.259 313.678C635.959 313.678 635.059 313.678 634.559 313.578C634.559 313.478 634.559 313.378 634.559 313.278C634.459 312.078 634.659 310.978 634.959 309.778C639.259 289.478 656.559 275.178 662.159 255.478C665.159 245.078 664.859 232.278 662.159 221.878C659.259 210.578 651.659 201.678 652.859 189.378C653.259 184.878 648.059 183.178 644.659 184.678C625.859 193.478 602.659 200.378 589.259 217.278C577.359 232.278 578.259 250.978 580.459 268.878C581.559 277.578 582.459 286.278 582.159 294.978C581.959 299.778 581.459 308.378 575.859 309.978C569.959 311.578 568.159 301.578 567.059 296.878C564.659 287.178 563.659 277.178 562.459 267.178C560.459 250.778 556.759 225.578 538.759 219.278C530.759 216.478 523.559 222.178 519.459 228.478C512.959 238.378 511.559 252.278 511.559 263.778C511.659 289.878 531.559 308.978 537.359 333.378C538.659 338.978 540.859 356.778 532.559 358.778C529.659 359.478 525.659 356.378 523.559 354.678C518.559 350.678 513.759 345.178 511.359 339.178C502.059 316.478 509.059 290.378 498.559 267.978C493.959 258.078 483.959 247.878 473.359 244.778C464.359 242.078 456.459 247.378 451.759 254.678C446.059 263.478 444.759 275.178 444.959 285.378C445.159 297.178 448.159 308.678 454.059 318.878C465.959 339.278 487.659 353.578 488.759 378.978C488.859 382.478 488.759 386.778 486.159 389.378C484.159 391.378 480.359 390.178 478.059 389.478C467.759 386.178 457.759 375.878 452.259 367.078C445.559 356.378 443.959 342.978 441.059 330.878C437.959 318.078 433.159 306.378 424.159 296.678C417.559 289.678 407.559 284.378 398.159 288.778C389.459 292.878 385.059 302.578 382.659 311.378C379.359 322.878 379.459 335.378 381.659 347.078C384.059 359.678 392.759 371.178 401.059 380.578C409.659 390.378 419.559 398.978 427.759 409.078C429.959 411.778 431.659 413.778 434.659 415.778C437.759 417.878 441.159 419.678 443.859 422.378C446.159 424.678 442.759 426.478 440.659 427.878C435.759 431.278 428.859 427.078 424.259 424.878C419.859 422.778 415.159 421.478 410.959 419.078C406.159 416.278 401.859 412.678 397.559 409.178C388.959 402.278 380.059 394.878 369.059 392.278C358.459 389.778 347.259 394.578 340.359 402.678C325.959 419.778 340.459 443.778 354.859 455.378C364.059 462.778 374.559 465.878 386.359 466.078C400.959 466.278 414.759 462.278 428.359 468.078C426.259 473.578 422.059 476.678 415.359 477.778C406.159 479.378 395.959 477.278 386.859 475.678C368.959 472.578 344.559 464.978 327.859 475.678C325.859 476.978 324.659 479.378 325.359 481.778C328.459 492.478 333.459 502.378 342.859 508.878C350.659 514.278 360.759 515.078 369.959 514.578C386.259 513.578 403.559 507.278 420.059 509.478C416.259 511.778 411.859 512.278 406.459 512.978C396.859 514.278 389.259 519.478 382.759 526.478C372.959 537.078 369.459 552.678 383.759 561.078C391.559 565.678 401.659 566.278 410.459 566.078C420.459 565.978 430.259 562.878 439.059 558.278C450.059 552.578 459.259 543.978 467.259 534.378C465.759 564.578 477.559 603.978 513.759 598.078C544.659 592.978 517.859 559.778 512.059 538.378C514.159 541.078 515.959 543.878 517.659 546.678C522.659 554.478 527.259 562.478 532.859 569.778C543.459 583.478 559.259 591.878 575.759 582.478C590.059 574.378 578.559 560.078 570.959 552.078C564.859 545.578 552.359 535.078 551.259 524.578C568.359 537.178 587.459 551.278 609.259 549.878C619.159 549.278 633.159 544.978 639.159 536.478C644.159 529.578 637.659 522.278 632.259 518.378C617.559 507.778 598.359 505.878 583.059 496.278C579.359 493.978 575.859 491.378 572.659 488.478C571.459 487.378 570.259 486.178 569.359 484.878C568.959 484.378 568.759 483.678 568.559 483.178C568.759 482.978 569.059 482.878 569.459 482.678C571.759 481.878 574.259 481.678 576.759 481.578C582.259 481.278 587.359 482.178 592.459 484.478C602.059 488.778 610.559 495.178 620.459 498.878C631.659 502.978 643.359 501.878 654.459 498.178C664.359 494.878 675.059 489.678 681.359 481.078C687.859 472.178 685.859 462.378 679.259 454.178C660.759 431.378 632.659 447.778 609.359 449.078C603.159 449.378 596.659 448.278 590.659 446.878C588.159 446.278 580.859 444.878 579.759 442.078C579.159 440.378 586.859 436.278 588.359 435.478C594.959 431.978 601.559 430.578 608.959 430.678C627.759 430.778 646.559 438.278 665.059 431.978C677.259 427.778 691.259 416.878 690.059 402.578C688.759 387.278 670.159 380.478 656.859 381.178C640.259 382.178 624.859 394.778 608.159 390.178C610.859 382.578 617.159 377.878 625.359 374.378C637.259 369.378 650.259 367.078 662.759 364.078C674.759 361.178 687.259 357.678 697.159 349.878C707.159 341.878 710.559 329.878 708.859 317.478Z" fill="#60802A"/>
<path d="M628.859 212.579C622.559 239.879 617.159 267.279 609.259 294.179C601.259 321.779 589.759 347.278 574.059 371.378C541.559 421.078 500.059 464.078 466.559 513.078C465.159 515.078 465.459 517.078 466.559 518.578C460.059 530.778 456.359 544.678 453.659 557.878C448.959 580.978 447.559 604.679 446.559 628.279C445.459 656.979 445.659 685.578 446.959 714.378C448.559 748.178 450.759 781.979 449.359 815.779C449.259 817.779 449.159 819.678 449.059 821.678C448.659 828.678 459.559 828.678 459.959 821.678C461.859 788.678 459.859 755.578 458.259 722.678C456.859 693.278 456.159 663.978 457.259 634.578C458.059 611.878 459.159 588.978 463.059 566.578C466.559 546.178 472.259 522.978 487.659 508.078C489.859 505.978 489.659 503.278 488.259 501.378C519.559 458.778 555.459 419.678 584.459 375.378C599.959 351.678 611.059 326.079 619.259 298.979C627.459 271.579 632.959 243.479 639.359 215.579C640.859 208.679 630.359 205.779 628.859 212.579Z" fill="#729136"/>
<path d="M451.759 823.278C445.859 770.478 421.559 723.278 396.459 677.378C371.559 631.878 345.259 585.778 337.659 533.678C336.659 526.778 326.159 529.678 327.159 536.578C342.459 640.578 429.259 718.278 440.959 823.278C441.659 830.178 452.559 830.178 451.759 823.278Z" fill="#526B22"/>
<path d="M611.259 575.979C564.859 596.279 519.359 627.278 488.159 667.678C471.159 689.678 461.159 714.779 454.859 741.079C452.459 713.679 447.459 686.579 442.259 659.579C430.059 596.679 420.659 533.479 414.659 469.579C412.359 444.279 410.559 418.879 409.359 393.479C409.059 386.479 398.159 386.479 398.459 393.479C401.759 463.979 409.859 534.179 420.759 603.979C428.159 651.179 440.659 697.779 444.259 745.479C440.159 719.679 434.059 694.279 426.059 669.479C414.759 633.979 399.559 599.579 379.759 567.979C379.859 566.579 379.459 565.179 378.359 563.879C377.059 562.379 375.659 560.879 374.259 559.379C369.359 551.979 364.259 544.779 358.759 537.779C356.359 534.679 352.859 535.779 351.059 538.279C342.759 531.879 333.859 526.179 324.359 521.279C302.059 509.779 274.259 502.279 263.559 476.979C260.859 470.579 251.459 476.079 254.159 482.479C264.759 507.579 290.759 516.979 313.359 527.979C333.659 537.879 350.859 550.579 366.259 566.779C387.959 599.779 404.159 636.479 416.059 673.979C430.559 719.479 438.859 767.378 438.959 815.178C438.959 815.478 438.959 815.679 439.059 815.979C438.359 819.479 441.159 821.879 444.059 822.079C445.459 826.979 454.259 826.279 454.759 820.079C458.759 768.779 464.559 714.879 497.459 672.979C527.859 634.379 571.759 604.879 616.559 585.379C623.159 582.579 617.659 573.179 611.259 575.979Z" fill="#325B15"/>
<path d="M286.559 211.478C276.659 206.478 265.559 204.478 254.659 203.278C251.759 202.978 248.959 205.478 248.859 208.278C248.159 223.478 247.959 238.678 246.059 253.778C245.459 258.778 244.359 265.478 242.259 269.178C242.159 269.378 241.559 270.178 241.259 270.578C241.159 270.578 241.159 270.478 240.959 270.478C239.959 269.878 239.059 269.078 238.259 268.178C223.959 253.178 221.959 230.778 208.859 214.978C201.959 206.678 191.259 199.678 181.159 195.978C170.159 191.978 158.559 193.278 149.159 185.278C145.759 182.378 141.259 185.778 140.659 189.378C137.259 209.878 129.859 232.878 136.159 253.478C141.759 271.778 157.759 281.678 173.759 289.878C181.559 293.878 189.259 298.078 196.259 303.278C200.159 306.178 206.959 311.378 205.059 316.978C203.059 322.778 193.859 318.578 189.259 316.778C179.859 313.278 171.059 308.378 162.159 303.778C147.459 296.178 124.659 284.878 109.259 296.278C102.459 301.278 103.059 310.478 105.959 317.378C110.459 328.378 121.159 337.378 130.659 343.878C152.259 358.578 179.259 352.978 202.659 361.978C208.059 364.078 223.959 372.378 220.859 380.278C219.759 383.078 214.959 384.578 212.459 385.378C206.359 387.178 199.059 388.078 192.759 386.678C168.859 381.478 151.259 360.978 126.759 356.878C116.059 355.078 101.959 357.578 93.3586 364.478C86.0586 370.378 85.9586 379.878 89.2586 387.878C93.2586 397.578 102.259 405.278 110.759 410.878C120.559 417.378 131.759 421.378 143.559 422.278C167.159 423.978 191.159 414.178 212.759 427.778C215.659 429.578 219.159 432.278 219.859 435.878C220.459 438.678 217.259 441.178 215.359 442.678C206.859 449.278 192.659 451.678 182.259 451.278C169.659 450.678 157.659 444.478 146.059 439.978C133.759 435.278 121.359 432.578 108.259 434.578C98.7586 435.978 88.6586 441.278 87.0586 451.578C85.5586 461.078 91.0586 470.178 96.8586 477.178C104.459 486.378 114.859 493.378 125.759 498.178C137.559 503.378 151.859 502.678 164.359 501.178C177.259 499.578 189.959 496.378 202.959 495.278C206.359 494.978 209.059 494.678 212.359 493.378C215.859 491.978 219.259 490.178 222.959 489.478C226.159 488.878 225.659 492.678 225.659 495.178C225.659 501.178 218.259 504.478 213.859 506.978C209.659 509.378 205.859 512.578 201.459 514.678C196.459 517.078 190.959 518.578 185.659 520.178C175.159 523.378 163.959 526.578 155.659 534.078C147.659 541.378 145.259 553.378 148.059 563.678C153.959 585.278 181.959 586.778 199.659 581.478C211.059 578.078 219.459 571.178 226.259 561.578C234.659 549.678 239.159 535.978 251.659 528.078C255.059 532.978 255.159 538.078 252.359 544.278C248.459 552.778 240.959 559.978 234.459 566.678C221.759 579.678 201.659 595.478 201.059 615.278C200.959 617.678 202.359 619.978 204.659 620.778C215.259 624.278 226.259 625.778 236.959 621.678C245.759 618.278 252.159 610.378 256.959 602.578C265.359 588.578 269.959 570.778 281.059 558.478C280.859 562.878 278.759 566.778 276.259 571.678C271.859 580.378 271.859 589.478 273.959 598.778C277.059 612.878 288.059 624.578 303.059 617.478C311.259 613.678 317.459 605.678 322.359 598.378C327.959 589.978 330.959 580.278 332.159 570.378C333.659 558.078 331.859 545.678 328.359 533.678C352.359 552.078 391.559 564.578 407.159 531.378C420.459 502.978 377.959 506.378 356.959 498.978C360.359 498.778 363.759 498.978 366.959 498.978C376.159 499.278 385.359 500.078 394.659 499.478C411.859 498.478 427.859 490.178 429.359 471.278C430.759 454.878 412.459 456.278 401.559 457.978C392.759 459.378 377.059 463.678 367.759 458.578C387.859 451.578 410.159 443.878 421.459 424.978C426.559 416.478 430.959 402.578 427.359 392.678C424.459 384.678 414.859 385.878 408.559 388.178C391.559 394.278 379.059 408.978 362.459 416.278C358.459 417.978 354.359 419.478 350.159 420.378C348.559 420.778 346.959 421.078 345.259 421.078C344.659 421.078 343.859 420.878 343.459 420.778C343.459 420.478 343.459 420.178 343.559 419.778C344.159 417.378 345.459 415.278 346.759 413.178C349.659 408.478 353.259 404.778 357.959 401.878C366.959 396.378 376.959 393.078 385.659 386.878C395.459 379.978 401.159 369.678 404.359 358.478C407.259 348.478 409.059 336.678 405.459 326.578C401.759 316.178 392.559 312.278 382.059 313.178C352.759 315.478 350.459 347.978 338.259 367.978C335.059 373.278 330.459 377.978 325.859 382.178C323.959 383.878 318.659 389.078 315.759 388.378C314.059 387.978 315.059 379.278 315.159 377.578C315.959 370.078 318.659 363.978 322.859 357.778C333.659 342.278 350.359 331.078 355.659 312.178C359.159 299.778 358.059 282.078 345.559 274.878C332.259 267.278 316.059 278.778 309.159 290.078C300.559 304.378 302.259 324.178 289.059 335.378C284.359 328.878 283.959 320.978 285.759 312.278C288.359 299.578 293.859 287.678 298.359 275.578C302.659 264.078 306.959 251.678 306.159 239.178C305.659 226.678 297.759 217.078 286.559 211.478Z" fill="#526B22"/>
<path d="M574.959 1142.18H340.959L264.359 839.578H646.259L574.959 1142.18Z" fill="#D15057"/>
<path d="M666.459 800.178H238.759V839.478H666.459V800.178Z" fill="#DD626E"/>
<path d="M455.259 839.578H264.359L340.959 1142.18H455.259V839.578Z" fill="#BC4450"/>
<path d="M455.259 800.178H238.759V839.478H455.259V800.178Z" fill="#D15057"/>
<path d="M574.959 1146.78H340.959L264.359 1105.88H646.259L574.959 1146.78Z" fill="#BC4450"/>
<path d="M455.259 1105.88H264.359L340.959 1146.78H455.259V1105.88Z" fill="#AA3A4A"/>
</svg>
