<svg width="1442" height="2321" viewBox="0 0 1442 2321" fill="none" xmlns="http://www.w3.org/2000/svg">
<path d="M89.6574 481.28C79.1307 481.16 68.0827 479.96 59.4147 473.987C50.748 468.014 45.512 455.933 50.2947 446.547C56.2147 434.933 72.1907 434.014 83.4134 427.387C70.9134 421.667 52.4347 429.16 44.664 417.827C39.7254 410.613 43.78 400.08 50.9147 395.054C58.0507 390.014 67.1854 389.014 75.8787 388.187C57.9467 382.254 41.8534 370.88 30.2787 355.947C24.8934 349.013 20.5241 338.907 25.8441 331.907C28.0267 329.027 31.4707 327.373 34.9467 326.413C53.3827 321.307 71.7974 333.2 87.2427 344.48C81.46 333.587 70.5027 320.613 75.8027 309.48C81.8761 296.72 101.059 313.84 108.328 318.52C98.2814 311.08 102.776 293.36 113.896 287.64C125.012 281.92 138.707 285.187 149.848 290.867C160.135 296.107 169.365 303.24 177.803 311.12C193.348 325.654 206.557 343.227 213.151 363.467C239.247 443.547 154.827 482.053 89.6574 481.28" fill="#937CC5"/>
<path d="M230.071 206.813C228.136 203.347 225.857 199.733 222.22 198.133C213.519 194.333 205.068 204.187 201.785 213.093C197.384 225.053 195.565 237.947 196.492 250.653C195.196 241.533 190.304 232.987 183.103 227.253C178.476 223.56 171.389 221.187 166.925 225.08C164.119 227.52 163.441 231.56 163.149 235.28C162.46 244.08 162.939 252.96 164.567 261.64C158.541 254.68 151.916 247.347 142.959 245.213C134.001 243.093 122.641 249.293 123.287 258.48C123.807 265.907 131.607 271.907 130.429 279.253C122.791 271.507 95.692 252.547 84.9587 264.467C73.22 277.52 97.66 323.013 113.587 332.547C127.119 340.653 155.831 351.8 169.363 359.907C181.853 367.387 195.905 375.16 210.163 372.2C218.596 370.453 225.867 365.067 231.792 358.813C268.271 320.333 253.204 248.387 230.071 206.813Z" fill="#937CC5"/>
<path d="M258.515 258.347C256.717 253.267 254.644 247.934 250.335 244.707C241.248 237.92 227.241 245.053 222.913 255.533C218.588 266.013 220.949 277.92 223.375 289C218.581 279.693 213.251 269.84 203.981 265C194.712 260.173 180.541 263.6 178.361 273.813C177.199 279.28 179.673 284.8 182.085 289.84C185.535 297.04 188.985 304.253 192.431 311.467C184.855 301.867 176.761 292.08 165.74 286.774C154.716 281.48 139.925 282 131.901 291.227C122.076 302.533 126.857 320.627 136.191 332.347C145.524 344.053 158.583 352.52 167.12 364.827C159.807 366.293 152.847 361.747 145.947 358.907C139.043 356.094 129.239 355.973 126.105 362.733C123.347 368.68 128.011 375.533 133.387 379.28C138.763 383.04 145.304 385.587 149.019 391C133.841 386.347 117.852 381.813 102.307 385.027C86.7667 388.24 72.172 401.907 73.6614 417.72C74.7374 429.147 83.8547 438.547 94.3147 443.267C104.775 447.987 116.495 448.893 127.941 449.733C120.381 452.653 112.416 455.88 107.572 462.374C102.724 468.88 102.772 479.707 109.769 483.787C112.375 485.307 115.471 485.68 118.469 486.013C151.044 489.64 184.324 493.24 216.323 486.16C332.205 460.493 286.631 337.72 258.515 258.347" fill="#A48CCD"/>
<path d="M545.964 1299.15C541.532 1213.31 510.091 1060.65 463.128 903.88C416.132 747.12 353.72 586.547 286.807 485.187L278.428 490.72C344.342 590.467 406.731 750.587 453.511 906.76C500.323 1062.91 531.636 1215.43 535.936 1299.65L545.966 1299.15H545.964" fill="#369449"/>
<path d="M232.111 512.72C249.055 513.534 266.777 509.854 280.053 499.294C294.949 487.44 302.56 468.134 303.612 449.134C304.667 430.134 299.832 411.267 293.529 393.307C291.857 388.534 288.535 382.84 283.544 383.64C279.216 384.334 277.399 389.44 276.427 393.72C275.121 399.467 273.816 405.2 272.512 410.934C267.903 402.027 258.852 395.574 248.932 394.107C246.2 393.707 242.969 393.854 241.287 396.04C240.135 397.534 240.051 399.574 240.065 401.454C240.128 410.734 241.369 420.014 243.753 428.974C232.721 424.107 222.571 411.16 211.599 416.16C204.943 419.2 202.684 428.04 204.703 435.08C206.723 442.107 211.895 447.72 216.903 453.054C209.715 451.214 202.184 449.36 194.959 451.054C187.736 452.76 181.055 459.254 181.843 466.627C182.451 472.334 188.092 477.827 192.681 480.627C152.585 493.094 221.356 512.2 232.111 512.72" fill="#369449"/>
<path d="M426.345 672.52C461.7 579.4 440.391 513.08 463.571 506.773C495.024 498.227 522.393 587.027 516 642.667C503.125 754.72 429.58 816.094 429.58 816.094C429.58 816.094 400.323 741.04 426.345 672.52" fill="#369449"/>
<path d="M305.407 644.16C210.055 615.387 174.284 567.28 156.435 583.36C132.213 605.173 188.823 689.48 239.055 714.24C340.238 764.08 402.492 738.627 402.492 738.627C402.492 738.627 387.751 669.027 305.407 644.16" fill="#369449"/>
<path d="M230.411 296.72C237.779 307.32 243.268 319.013 247.784 331.013C252.16 343.08 255.581 355.52 256.856 368.374C251.74 356.534 247.529 344.627 243.075 332.76C238.763 320.827 234.224 309.04 230.411 296.72" fill="#7A6BBC"/>
<path d="M195.052 321.52C202.962 331.307 209.914 341.494 216.971 351.654C223.907 361.894 230.9 372.054 237.156 382.974C227.803 374.547 219.947 364.747 212.832 354.493C205.842 344.147 199.546 333.28 195.052 321.52" fill="#7A6BBC"/>
<path d="M169.062 372.36C175.099 376.2 180.271 380.427 185.634 384.533C190.908 388.76 196.248 392.773 201.414 397.747C194.375 396.293 188.104 392.773 182.536 388.493C177.058 384.093 172.156 378.84 169.062 372.36" fill="#7A6BBC"/>
<path d="M153.439 398.854C159.28 400.04 164.344 402.533 169.217 405.36C174.009 408.293 178.608 411.573 182.421 416.16C176.571 414.987 171.511 412.48 166.644 409.654C161.856 406.707 157.26 403.427 153.439 398.854Z" fill="#7A6BBC"/>
<path d="M137.443 452.467C145.607 450.693 153.835 450.733 161.974 451.427C170.095 452.267 178.186 453.787 185.864 457.093C177.539 457.707 169.526 457.12 161.495 456.413C153.478 455.573 145.499 454.64 137.443 452.467" fill="#7A6BBC"/>
<path d="M920.614 243.293C930.773 240.547 941.173 236.627 948.08 228.68C954.973 220.733 957.027 207.707 950.054 199.827C941.414 190.067 925.72 193.16 913.2 189.547C923.867 180.88 943.627 183.533 948.334 170.613C951.307 162.4 944.76 153.2 936.587 150.107C928.414 147.014 919.32 148.333 910.694 149.693C926.587 139.48 939.334 124.44 946.8 107.107C950.294 99.0269 952 88.1469 945.094 82.7069C942.267 80.4669 938.52 79.7201 934.907 79.6668C915.787 79.3335 900.92 95.4401 888.787 110.213C891.667 98.2268 899.027 82.9335 891.12 73.4668C882.054 62.6268 867.747 84.0001 861.88 90.3468C869.747 80.6268 860.974 64.5867 848.774 61.8267C836.587 59.0667 824.134 65.6535 814.774 73.9335C806.12 81.5735 798.96 90.8001 792.76 100.533C781.334 118.48 772.934 138.814 771.6 160.054C766.334 244.107 857.694 260.307 920.614 243.293Z" fill="#937CC5"/>
<path d="M716.1 12.5867C717.103 8.73341 718.409 4.66664 721.535 2.21331C729.012 -3.64003 739.653 3.80003 745.053 11.6C752.307 22.08 757.293 34.1201 759.56 46.6534C758.533 37.5067 761.147 28.0001 766.68 20.6534C770.24 15.9201 776.507 11.8533 781.8 14.4933C785.133 16.1599 786.8 19.9199 788 23.4266C790.867 31.7866 792.627 40.5067 793.227 49.3201C797.307 41.0667 801.893 32.3066 810.04 28.0133C818.187 23.72 830.733 26.8933 832.4 35.9466C833.747 43.2666 827.707 51.0268 830.667 57.8401C836.133 48.4401 857.64 23.3068 871.013 32.1735C885.627 41.8668 873.333 92.0267 860.293 105.253C849.213 116.467 824.2 134.44 813.12 145.667C802.893 156.027 791.227 167.067 776.68 167.76C768.08 168.173 759.693 164.773 752.4 160.2C707.459 132.053 704.079 58.6134 716.1 12.5867" fill="#937CC5"/>
<path d="M701.427 69.5864C701.899 64.2264 702.568 58.533 705.941 54.3463C713.043 45.493 728.387 48.9065 735.2 57.9732C742 67.0398 742.68 79.1597 743.107 90.4797C745.427 80.293 748.12 69.4129 755.893 62.4263C763.667 55.4129 778.24 55.1997 782.907 64.5463C785.4 69.5597 784.373 75.5064 783.293 80.9997C781.76 88.8397 780.213 96.6798 778.68 104.52C783.613 93.3331 789.013 81.8397 798.36 73.9463C807.707 66.0663 822.16 62.8664 832.24 69.7997C844.573 78.2931 844.467 97.0263 838.36 110.693C832.253 124.36 821.707 135.826 816.52 149.866C823.96 149.466 829.573 143.32 835.547 138.853C841.52 134.386 850.987 131.826 855.707 137.6C859.867 142.68 857.067 150.466 852.787 155.44C848.52 160.426 842.827 164.52 840.587 170.693C854.107 162.4 868.467 154.013 884.32 153.24C900.174 152.466 917.72 162.066 920.227 177.746C922.04 189.08 915.56 200.453 906.613 207.64C897.653 214.826 886.534 218.626 875.654 222.306C883.707 223.253 892.227 224.373 898.547 229.453C904.853 234.546 907.52 245.04 901.76 250.746C899.613 252.866 896.707 253.986 893.893 255.066C863.253 266.72 831.933 278.506 799.173 279.64C680.555 283.72 694.024 153.466 701.427 69.5864" fill="#A48CCD"/>
<path d="M692.852 1147.19C679.947 1083.96 672.341 977.934 672.352 858.694C672.32 666.374 692.117 439.16 740.173 299.56L730.68 296.307C681.965 438.08 662.345 665.614 662.312 858.694C662.323 978.414 669.875 1084.69 683.013 1149.2L692.853 1147.19H692.852" fill="#369449"/>
<path d="M790.52 309.307C774.32 314.32 756.24 315.187 740.747 308.28C723.36 300.52 711.172 283.733 705.404 265.6C699.636 247.453 699.608 227.987 701.225 209.013C701.655 203.987 703.447 197.64 708.479 197.16C712.841 196.747 715.881 201.253 717.891 205.147C720.587 210.373 723.284 215.614 725.977 220.84C728.219 211.067 735.373 202.547 744.613 198.654C747.16 197.574 750.32 196.92 752.493 198.613C753.987 199.773 754.573 201.733 755.04 203.56C757.293 212.56 758.4 221.84 758.333 231.12C767.8 223.654 774.387 208.587 786.267 210.693C793.48 211.973 797.867 219.96 797.667 227.28C797.467 234.587 793.867 241.32 790.347 247.733C796.84 244.16 803.68 240.48 811.093 240.32C818.507 240.16 826.6 244.773 827.68 252.12C828.52 257.8 824.427 264.52 820.68 268.374C862.627 270.44 800.8 306.12 790.52 309.307" fill="#369449"/>
<path d="M642.348 512.547C584.858 431.213 588.931 361.667 564.908 361.36C532.319 360.933 527.995 453.76 548.08 506.04C588.532 611.333 675.075 652.387 675.075 652.387C675.075 652.387 684.656 572.4 642.348 512.547" fill="#369449"/>
<path d="M752.373 454.893C837.52 403.213 860.147 347.693 881.44 358.813C910.347 373.88 876.587 469.653 834.12 506.173C748.6 579.707 681.957 570.613 681.957 570.613C681.957 570.613 678.844 499.52 752.373 454.893" fill="#369449"/>
<path d="M738.227 99.7335C737.613 112.613 736.16 125.16 734.96 137.787C733.6 150.387 732.507 162.974 730.507 175.72C728.532 162.96 728.741 150.04 729.969 137.28C731.347 124.52 733.733 111.84 738.227 99.7335" fill="#7A6BBC"/>
<path d="M778.653 114.92C777.24 127.427 773.853 139.52 769.667 151.28C765.347 162.986 760.187 174.427 753.227 184.92C756.56 172.8 760.8 161.213 764.96 149.573C769.253 137.973 773.44 126.36 778.653 114.92" fill="#7A6BBC"/>
<path d="M816.52 157.64C815.147 164.693 811.707 171.013 807.507 176.626C803.173 182.173 797.987 187.133 791.533 190.307C795.293 184.213 799.467 178.987 803.507 173.587C807.68 168.267 811.627 162.88 816.52 157.64Z" fill="#7A6BBC"/>
<path d="M838.253 179.4C835.707 184.8 832.067 189.107 828.173 193.16C824.173 197.12 819.893 200.787 814.52 203.4C817.067 198 820.707 193.68 824.6 189.64C828.627 185.694 832.893 182.014 838.253 179.4Z" fill="#7A6BBC"/>
<path d="M867.133 227.32C859.88 231.44 852.387 234.334 844.84 237.147C837.227 239.827 829.627 242.414 821.4 243.894C828.013 238.774 835.48 235.28 843.133 232.44C850.84 229.734 858.787 227.64 867.133 227.32" fill="#7A6BBC"/>
<path d="M1367.6 660.787C1375.99 662.213 1384.95 662.867 1392.71 659.373C1400.47 655.88 1406.37 647.027 1403.95 638.88C1400.92 628.787 1388.35 625.733 1380.39 618.827C1391.16 616.093 1404.76 624.747 1412.59 616.853C1417.56 611.84 1415.87 602.88 1410.92 597.84C1405.99 592.8 1398.87 590.68 1392.07 588.747C1407.19 586.64 1421.64 579.933 1433.01 569.747C1438.31 565 1443.24 557.6 1440.03 551.267C1438.71 548.667 1436.21 546.84 1433.59 545.573C1419.67 538.853 1403.29 545.627 1389.37 552.347C1395.56 544.52 1406.16 535.813 1403.56 526.187C1400.59 515.147 1382.84 525.973 1376.37 528.64C1385.45 524.187 1384.45 509.44 1376.44 503.28C1368.43 497.107 1357.07 497.733 1347.39 500.627C1338.44 503.307 1330.07 507.64 1322.21 512.68C1307.73 521.973 1294.69 534.027 1286.51 549.16C1254.12 609.053 1315.67 651.933 1367.6 660.787" fill="#937CC5"/>
<path d="M1295.8 422.134C1297.84 419.667 1300.17 417.12 1303.31 416.387C1310.77 414.627 1316.05 423.694 1317.37 431.24C1319.15 441.4 1318.71 451.907 1316.13 461.88C1318.48 454.813 1323.61 448.733 1330.17 445.213C1334.39 442.96 1340.37 442.094 1343.35 445.84C1345.23 448.187 1345.19 451.507 1344.87 454.493C1344.15 461.587 1342.48 468.587 1339.92 475.24C1345.72 470.587 1352.05 465.72 1359.49 465.334C1366.92 464.934 1375.05 471.52 1373.2 478.734C1371.72 484.56 1364.64 488.2 1364.51 494.213C1371.71 489.16 1396.01 478.014 1402.81 489.054C1410.25 501.134 1384.21 533.76 1370.16 539.04C1358.23 543.52 1333.77 548.214 1321.84 552.694C1310.81 556.827 1298.52 560.973 1287.61 556.547C1281.16 553.933 1276.16 548.587 1272.36 542.76C1248.93 506.867 1271.36 451.84 1295.8 422.134" fill="#937CC5"/>
<path d="M1265.69 458.987C1267.87 455.213 1270.28 451.267 1274.19 449.333C1282.39 445.267 1292.49 452.96 1294.41 461.92C1296.33 470.88 1292.72 480.013 1289.19 488.467C1294.35 481.773 1300.01 474.707 1308.09 472.213C1316.16 469.707 1326.93 474.48 1327.19 482.933C1327.32 487.453 1324.55 491.467 1321.89 495.12C1318.11 500.36 1314.32 505.587 1310.53 510.813C1317.95 504.293 1325.8 497.68 1335.33 495.067C1344.87 492.453 1356.56 495.013 1361.6 503.52C1367.77 513.933 1361.35 527.64 1352.23 535.587C1343.11 543.56 1331.48 548.387 1322.91 556.933C1328.51 559.16 1334.71 556.547 1340.6 555.307C1346.51 554.053 1354.31 555.387 1355.83 561.227C1357.16 566.36 1352.45 571.12 1347.64 573.32C1342.81 575.533 1337.24 576.613 1333.51 580.373C1346.24 578.88 1359.61 577.587 1371.51 582.4C1383.4 587.213 1393.03 600.213 1389.55 612.56C1387.03 621.493 1378.41 627.64 1369.41 629.88C1360.4 632.107 1350.96 631.133 1341.73 630.133C1347.32 633.56 1353.19 637.28 1356.09 643.147C1359 649.013 1357.4 657.613 1351.24 659.853C1348.95 660.693 1346.43 660.533 1344 660.36C1317.57 658.52 1290.59 656.547 1266.16 646.267C1177.75 609.027 1231.81 518.027 1265.69 458.987" fill="#A48CCD"/>
<path d="M893.907 1246.73C909.547 1180.39 956.6 1063.64 1016.49 946.28C1076.37 828.893 1149.23 710.627 1216.12 640.88L1210.27 635.253C1142.33 706.147 1069.4 824.773 1009.27 942.587C949.16 1060.44 901.987 1177.25 886 1244.87L893.907 1246.73Z" fill="#369449"/>
<path d="M1249.76 665.093C1236.16 663.28 1222.6 657.787 1213.59 647.453C1203.45 635.867 1200.21 619.413 1202.13 604.147C1204.05 588.88 1210.64 574.587 1218.25 561.227C1220.28 557.68 1223.75 553.627 1227.6 554.987C1230.93 556.16 1231.65 560.493 1231.8 564.04C1232 568.787 1232.2 573.547 1232.41 578.293C1237.37 571.88 1245.51 568.053 1253.6 568.333C1255.84 568.413 1258.37 569 1259.4 570.973C1260.11 572.347 1259.87 573.973 1259.59 575.467C1258.19 582.84 1255.85 590.027 1252.65 596.813C1262.13 594.547 1272.09 585.72 1280.08 591.293C1284.93 594.68 1285.45 602.027 1282.83 607.333C1280.2 612.627 1275.27 616.347 1270.51 619.853C1276.49 619.44 1282.76 619.053 1288.25 621.453C1293.75 623.853 1298.12 629.987 1296.43 635.747C1295.11 640.187 1289.83 643.733 1285.77 645.293C1315.84 661.027 1258.39 666.24 1249.76 665.093" fill="#369449"/>
<path d="M1072.11 763.96C1057.52 684.773 1084.08 635.133 1066.56 626.76C1042.8 615.4 1008.15 682.04 1005.15 727.2C999.12 818.187 1048.68 877.653 1048.68 877.653C1048.68 877.653 1082.85 822.227 1072.11 763.96" fill="#369449"/>
<path d="M1172.39 758.973C1252.39 749.933 1287.81 716.88 1299.68 732.253C1315.77 753.12 1258.51 811.947 1214.97 824.32C1127.28 849.267 1081.48 819.987 1081.48 819.987C1081.48 819.987 1103.29 766.787 1172.39 758.973Z" fill="#369449"/>
<path d="M1282.47 493.587C1280.09 498.227 1277.48 502.667 1274.92 507.12L1267.16 520.4L1259.27 533.587C1256.6 537.974 1253.97 542.414 1251.04 546.72C1252.44 541.694 1254.39 536.88 1256.51 532.147C1258.6 527.387 1261.08 522.827 1263.68 518.333C1266.36 513.893 1269.16 509.52 1272.33 505.413C1275.45 501.267 1278.75 497.24 1282.47 493.587" fill="#7A6BBC"/>
<path d="M1306.99 518.453C1304.37 522.827 1301.33 526.867 1298.16 530.8C1295.03 534.76 1291.57 538.453 1288.05 542.08C1284.47 545.627 1280.8 549.107 1276.87 552.267C1272.96 555.467 1268.95 558.547 1264.59 561.187C1267.84 557.267 1271.31 553.64 1274.73 549.987C1278.15 546.307 1281.69 542.8 1285.19 539.213C1288.73 535.707 1292.23 532.133 1295.88 528.693C1299.49 525.227 1303.11 521.733 1306.99 518.453" fill="#7A6BBC"/>
<path d="M1320.27 562.64C1318.6 565.013 1316.52 566.987 1314.32 568.8C1312.15 570.653 1309.71 572.133 1307.21 573.507C1304.68 574.8 1302.07 575.96 1299.31 576.707C1296.57 577.493 1293.77 578.093 1290.87 578.12C1293.27 576.493 1295.71 575.187 1298.11 573.827L1305.33 569.92L1312.63 566.187C1315.11 564.973 1317.56 563.693 1320.27 562.64" fill="#7A6BBC"/>
<path d="M1328.84 585.973C1327.01 587.56 1325.01 588.72 1323 589.813C1321 590.96 1318.89 591.813 1316.77 592.653C1314.63 593.413 1312.48 594.147 1310.23 594.6C1307.97 595.093 1305.72 595.52 1303.29 595.533C1305.12 593.947 1307.12 592.787 1309.13 591.68C1311.13 590.533 1313.24 589.693 1315.36 588.853C1317.51 588.107 1319.65 587.36 1321.91 586.907C1324.15 586.413 1326.43 585.987 1328.84 585.973" fill="#7A6BBC"/>
<path d="M1333.77 630.933C1330.41 631.253 1327.13 631.187 1323.85 631.107C1320.57 631.093 1317.33 630.8 1314.08 630.573C1310.84 630.253 1307.6 629.973 1304.36 629.453C1301.12 628.96 1297.88 628.467 1294.61 627.573C1297.91 626.773 1301.21 626.493 1304.52 626.333C1307.84 626.133 1311.13 626.307 1314.43 626.533C1317.71 626.867 1321 627.267 1324.23 628.027C1327.47 628.747 1330.67 629.587 1333.77 630.933Z" fill="#7A6BBC"/>
<path d="M385.639 429.627C375.709 426.12 365.639 421.427 359.356 412.974C353.075 404.534 352.008 391.4 359.557 384.054C368.904 374.974 384.323 379.24 397.084 376.587C387.089 367.147 367.185 368.294 363.479 355.054C361.123 346.64 368.352 337.973 376.729 335.493C385.108 333.027 394.076 335.04 402.579 337.04C387.509 325.654 375.935 309.694 369.785 291.84C366.921 283.534 366.043 272.56 373.332 267.654C376.327 265.627 380.12 265.16 383.723 265.374C402.815 266.494 416.419 283.68 427.407 299.334C425.443 287.16 419.248 271.347 427.855 262.507C437.708 252.387 450.359 274.773 455.735 281.547C448.623 271.253 458.58 255.933 470.949 254.093C483.317 252.267 495.229 259.774 503.947 268.734C511.999 277.014 518.44 286.734 523.889 296.92C533.925 315.68 540.771 336.574 540.496 357.854C539.411 442.08 447.088 451.347 385.639 429.627" fill="#937CC5"/>
<path d="M606.965 215C606.252 211.08 605.256 206.934 602.324 204.254C595.313 197.854 584.141 204.454 578.161 211.84C570.144 221.734 564.269 233.36 561.056 245.693C562.763 236.64 560.885 226.973 555.916 219.227C552.723 214.24 546.777 209.707 541.301 211.96C537.855 213.36 535.916 216.974 534.443 220.4C530.956 228.507 528.542 237.067 527.29 245.8C523.83 237.28 519.921 228.187 512.128 223.293C504.332 218.4 491.579 220.614 489.232 229.52C487.333 236.707 492.783 244.907 489.305 251.48C484.568 241.694 465.019 215.014 451.013 222.854C435.704 231.414 444.188 282.36 456.193 296.52C466.396 308.56 489.984 328.347 500.185 340.387C509.6 351.494 520.401 363.373 534.849 365.16C543.397 366.227 552.019 363.467 559.639 359.454C606.569 334.774 615.481 261.8 606.965 215" fill="#937CC5"/>
<path d="M617.297 272.933C617.231 267.56 616.987 261.827 613.944 257.4C607.528 248.053 591.968 250.293 584.499 258.827C577.028 267.347 575.431 279.374 574.156 290.64C572.616 280.294 570.743 269.253 563.524 261.693C556.307 254.12 541.791 252.8 536.432 261.774C533.569 266.587 534.139 272.587 534.797 278.147C535.741 286.08 536.685 294.013 537.629 301.947C533.544 290.413 529.036 278.547 520.307 269.987C511.579 261.414 497.409 257.147 486.841 263.293C473.9 270.827 472.593 289.52 477.657 303.6C482.721 317.693 492.359 329.92 496.477 344.32C489.084 343.36 483.957 336.8 478.339 331.893C472.716 327 463.471 323.733 458.323 329.133C453.795 333.88 456.005 341.853 459.885 347.147C463.764 352.427 469.137 356.947 470.915 363.267C458.041 353.973 444.364 344.533 428.615 342.56C412.865 340.6 394.644 348.853 390.967 364.293C388.305 375.453 393.909 387.293 402.291 395.133C410.672 402.973 421.476 407.6 432.04 412.093C423.943 412.427 415.364 412.907 408.688 417.493C402.005 422.08 398.563 432.347 403.872 438.467C405.848 440.76 408.661 442.094 411.391 443.374C441.06 457.307 471.411 471.44 503.985 475.027C621.961 488.04 618.352 357.147 617.297 272.933" fill="#A48CCD"/>
<path d="M554.237 1350.87C568.416 1300.89 581.067 1224.77 590.231 1136.21C599.388 1047.67 605.025 946.747 605.025 847.48C605.013 717.24 595.357 589.907 571.028 496.8L561.315 499.347C585.284 590.96 594.996 717.773 594.985 847.48C594.985 946.373 589.364 1046.99 580.245 1135.17C571.132 1223.35 558.484 1299.16 544.579 1348.12L554.239 1350.87H554.237" fill="#49A354"/>
<path d="M510.377 505.254C526.155 511.48 544.123 513.72 560.087 508C578.005 501.574 591.429 485.747 598.548 468.094C605.667 450.44 607.165 431.027 606.981 411.987C606.933 406.934 605.625 400.467 600.644 399.627C596.32 398.88 592.951 403.147 590.652 406.88C587.571 411.88 584.488 416.894 581.404 421.92C579.908 412 573.42 402.974 564.501 398.387C562.044 397.12 558.939 396.227 556.64 397.76C555.069 398.8 554.333 400.694 553.74 402.494C550.811 411.294 549.003 420.48 548.371 429.734C539.493 421.574 534.051 406.04 522.053 407.24C514.775 407.974 509.788 415.627 509.435 422.934C509.084 430.227 512.169 437.214 515.192 443.88C508.983 439.814 502.448 435.64 495.063 434.92C487.677 434.2 479.261 438.2 477.631 445.44C476.369 451.027 479.945 458.04 483.384 462.174C441.412 461.08 500.361 501.307 510.377 505.254Z" fill="#49A354"/>
<path d="M642.799 719.093C706.262 642.334 707.445 572.68 731.413 574.173C763.947 576.213 761.254 669.107 737.294 719.707C689.012 821.653 599.618 856.08 599.618 856.08C599.618 856.08 596.098 775.587 642.799 719.093" fill="#49A354"/>
<path d="M537.435 653.307C456.431 595.36 438.059 538.293 415.981 547.76C386.028 560.613 412.467 658.667 452.051 698.28C531.788 778.053 598.927 774.013 598.927 774.013C598.927 774.013 607.388 703.36 537.435 653.307Z" fill="#49A354"/>
<path d="M578.332 300.226C581.894 312.64 583.323 325.466 583.732 338.293C583.992 351.106 583.222 364.013 580.29 376.573C579.259 363.72 579.11 351.093 578.718 338.413C578.472 325.746 577.972 313.12 578.332 300.226" fill="#7A6BBC"/>
<path d="M536.865 312.32C541.204 324.133 544.505 336.013 547.916 347.907C551.183 359.827 554.533 371.707 556.94 384.04C550.8 373.053 546.517 361.253 543.084 349.253C539.796 337.213 537.335 324.907 536.865 312.32Z" fill="#7A6BBC"/>
<path d="M495.892 352.067C500.368 357.653 503.903 363.32 507.657 368.947C511.288 374.64 515.053 380.16 518.344 386.52C512.148 382.88 507.345 377.533 503.451 371.68C499.683 365.76 496.732 359.2 495.892 352.067" fill="#7A6BBC"/>
<path d="M472.571 372.134C477.716 375.134 481.704 379.12 485.412 383.36C489.003 387.693 492.304 392.267 494.431 397.84C489.278 394.854 485.285 390.854 481.589 386.614C478.008 382.267 474.707 377.694 472.571 372.134" fill="#7A6BBC"/>
<path d="M440.155 417.734C448.456 418.68 456.237 421.36 463.716 424.64C471.133 428.054 478.304 432.094 484.508 437.707C476.428 435.6 469.036 432.467 461.657 429.214C454.339 425.827 447.084 422.387 440.155 417.734" fill="#7A6BBC"/>
<path d="M73.4601 779.894C64.7761 781.174 55.5215 781.654 47.5935 777.88C39.6668 774.094 33.7561 764.84 36.4601 756.48C39.8028 746.134 52.8348 743.267 61.2014 736.334C50.1508 733.267 35.9255 741.88 28.0295 733.574C23.0121 728.294 24.9588 719.08 30.1681 713.987C35.3814 708.894 42.7735 706.88 49.8215 705.04C34.2695 702.52 19.5175 695.28 8.01614 684.52C2.66014 679.507 -2.27189 671.76 1.18945 665.294C2.60811 662.64 5.22148 660.814 7.96015 659.574C22.4681 652.947 39.2055 660.307 53.4108 667.547C47.2121 659.347 36.4775 650.107 39.3721 640.24C42.6868 628.92 60.7441 640.494 67.3481 643.387C58.0921 638.574 59.4561 623.4 67.8548 617.214C76.2561 611.04 87.9681 611.92 97.8894 615.134C107.055 618.094 115.6 622.747 123.584 628.12C138.307 638.04 151.507 650.76 159.607 666.56C191.668 729.067 127.229 771.92 73.4601 779.894" fill="#937CC5"/>
<path d="M152.857 535.32C150.808 532.72 148.456 530.04 145.245 529.213C137.58 527.227 131.921 536.467 130.395 544.227C128.348 554.653 128.552 565.52 130.995 575.853C128.725 568.533 123.565 562.133 116.88 558.347C112.58 555.933 106.431 554.907 103.268 558.693C101.28 561.08 101.255 564.507 101.505 567.6C102.099 574.933 103.668 582.187 106.152 589.12C100.273 584.187 93.8468 579.013 86.1908 578.453C78.5335 577.88 69.9961 584.493 71.7427 591.973C73.1507 598.013 80.3628 601.92 80.3668 608.133C73.0548 602.76 48.2334 590.72 40.9694 601.96C33.0241 614.253 59.1575 648.493 73.5295 654.24C85.7468 659.133 110.861 664.52 123.076 669.413C134.352 673.92 146.949 678.48 158.299 674.147C165.011 671.6 170.289 666.2 174.343 660.267C199.303 623.76 177.4 566.507 152.857 535.32" fill="#937CC5"/>
<path d="M183.084 574C180.937 570.067 178.524 565.947 174.548 563.854C166.173 559.467 155.578 567.187 153.399 576.387C151.218 585.587 154.735 595.08 158.194 603.88C153.023 596.867 147.328 589.454 139.058 586.694C130.784 583.934 119.567 588.627 119.123 597.334C118.887 601.987 121.652 606.2 124.303 610.027C128.093 615.507 131.887 620.987 135.678 626.48C128.171 619.574 120.215 612.574 110.439 609.667C100.661 606.76 88.5455 609.134 83.1562 617.8C76.5588 628.4 82.8868 642.68 92.1175 651.094C101.349 659.507 113.223 664.747 121.878 673.76C116.051 675.934 109.714 673.107 103.66 671.694C97.6055 670.267 89.5149 671.467 87.8242 677.454C86.3402 682.72 91.0828 687.734 96.0082 690.12C100.93 692.507 106.652 693.747 110.425 697.707C97.3122 695.88 83.5481 694.253 71.1735 698.947C58.7935 703.64 48.5829 716.827 51.8935 729.654C54.2882 738.92 63.0375 745.454 72.2761 747.96C81.5161 750.48 91.2855 749.68 100.822 748.854C94.9842 752.254 88.8481 755.974 85.7175 761.96C82.5841 767.947 84.0522 776.854 90.3548 779.307C92.7002 780.214 95.3002 780.107 97.8135 779.987C125.116 778.68 152.999 777.24 178.416 767.187C270.457 730.747 216.719 635.654 183.084 574" fill="#A48CCD"/>
<path d="M557.205 1393.17C542.224 1323.07 496.183 1201.52 436.808 1078.6C377.412 955.72 304.817 831.72 236.333 757.067L230.164 762.733C297.612 836.187 370.127 959.813 429.268 1082.25C488.433 1204.65 534.355 1326.13 549.016 1394.92L557.207 1393.17H557.205Z" fill="#49A354"/>
<path d="M194.923 786.973C208.983 785.4 223.093 780.04 232.632 769.587C243.335 757.867 247.051 740.96 245.413 725.173C243.772 709.373 237.303 694.48 229.74 680.533C227.731 676.827 224.244 672.56 220.241 673.88C216.767 675.027 215.945 679.48 215.708 683.133C215.389 688.027 215.073 692.92 214.757 697.827C209.788 691.093 201.479 686.973 193.116 687.067C190.813 687.093 188.173 687.653 187.076 689.68C186.327 691.067 186.524 692.747 186.784 694.293C188.061 701.933 190.311 709.4 193.456 716.467C183.731 713.92 173.659 704.6 165.284 710.16C160.203 713.547 159.509 721.133 162.101 726.653C164.693 732.173 169.695 736.12 174.524 739.853C168.359 739.28 161.912 738.747 156.188 741.093C150.463 743.453 145.817 749.68 147.439 755.653C148.695 760.267 154.068 764.04 158.215 765.747C126.841 781.307 185.997 787.973 194.923 786.973" fill="#49A354"/>
<path d="M375.972 892.92C392.799 811.573 366.491 759.773 384.751 751.52C409.524 740.333 443.788 809.853 445.867 856.507C450.056 950.493 397.591 1010.75 397.591 1010.75C397.591 1010.75 363.589 952.787 375.972 892.92" fill="#49A354"/>
<path d="M272.633 885.547C190.311 874.427 154.505 839.533 141.927 855.133C124.859 876.293 182.609 938.253 227.245 952.013C317.149 979.707 365.059 950.52 365.059 950.52C365.059 950.52 343.732 895.147 272.633 885.547Z" fill="#49A354"/>
<path d="M165.007 609.32C168.776 613.174 172.074 617.4 175.207 621.747C178.383 626.053 181.174 630.627 183.843 635.267C186.427 639.96 188.884 644.72 190.932 649.667C193.015 654.613 194.914 659.613 196.247 664.84C193.32 660.32 190.71 655.693 188.048 651.107L180.194 637.32L172.496 623.454C169.956 618.8 167.359 614.16 165.007 609.32" fill="#7A6BBC"/>
<path d="M139.166 634.414C143.1 637.894 146.739 641.587 150.396 645.24C154.088 648.867 157.604 652.64 161.192 656.334C164.708 660.107 168.291 663.814 171.723 667.68C175.187 671.52 178.681 675.347 181.951 679.454C177.515 676.64 173.44 673.374 169.476 669.987C165.483 666.627 161.78 662.96 158.159 659.214C154.609 655.4 151.132 651.52 147.987 647.347C144.808 643.227 141.762 638.987 139.166 634.414" fill="#7A6BBC"/>
<path d="M124.469 679.707C127.237 680.853 129.747 682.227 132.272 683.547L139.727 687.56L147.08 691.747C149.527 693.2 152.02 694.6 154.464 696.333C151.457 696.24 148.587 695.56 145.78 694.694C142.951 693.854 140.286 692.6 137.696 691.213C135.156 689.747 132.675 688.147 130.471 686.2C128.244 684.267 126.147 682.2 124.469 679.707" fill="#7A6BBC"/>
<path d="M115.107 703.587C117.605 703.654 119.931 704.147 122.236 704.707C124.557 705.227 126.757 706.04 128.955 706.854C131.117 707.774 133.275 708.693 135.312 709.907C137.367 711.093 139.401 712.333 141.253 714.013C138.755 713.947 136.427 713.467 134.123 712.907C131.801 712.387 129.6 711.573 127.407 710.747C125.247 709.827 123.085 708.907 121.048 707.68C118.993 706.507 116.964 705.267 115.107 703.587" fill="#7A6BBC"/>
<path d="M109.005 749.854C112.247 748.547 115.58 747.747 118.928 747.08C122.277 746.36 125.675 746.027 129.073 745.76C132.473 745.587 135.885 745.48 139.297 745.76C142.708 746.014 146.113 746.373 149.493 747.267C146.107 748.107 142.743 748.547 139.391 748.987C136.037 749.454 132.689 749.667 129.336 749.933C125.983 750.093 122.632 750.307 119.247 750.267C115.863 750.267 112.475 750.254 109.005 749.854Z" fill="#7A6BBC"/>
<path d="M1138.04 548.413C1148.57 548.267 1159.61 547.04 1168.27 541.054C1176.92 535.054 1182.13 522.96 1177.33 513.587C1171.39 501.987 1155.4 501.107 1144.17 494.507C1156.65 488.747 1175.16 496.214 1182.91 484.854C1187.83 477.64 1183.75 467.107 1176.6 462.08C1169.45 457.067 1160.32 456.093 1151.61 455.28C1169.53 449.307 1185.6 437.907 1197.15 422.947C1202.52 415.987 1206.87 405.88 1201.53 398.88C1199.35 396.013 1195.89 394.373 1192.41 393.413C1173.97 388.36 1155.57 400.294 1140.16 411.6C1145.92 400.694 1156.85 387.707 1151.52 376.574C1145.43 363.827 1126.28 380.987 1119.03 385.68C1129.05 378.213 1124.52 360.507 1113.39 354.813C1102.25 349.12 1088.57 352.414 1077.44 358.12C1067.16 363.387 1057.95 370.534 1049.53 378.44C1034.01 393 1020.84 410.614 1014.29 430.854C988.373 511.014 1072.88 549.32 1138.04 548.413" fill="#937CC5"/>
<path d="M997.04 274.24C998.96 270.76 1001.24 267.147 1004.88 265.547C1013.56 261.72 1022.03 271.56 1025.33 280.467C1029.76 292.414 1031.61 305.307 1030.71 318.013C1031.99 308.893 1036.85 300.334 1044.05 294.587C1048.67 290.88 1055.75 288.494 1060.23 292.374C1063.04 294.814 1063.72 298.853 1064.01 302.56C1064.72 311.36 1064.27 320.254 1062.65 328.92C1068.67 321.947 1075.28 314.6 1084.23 312.454C1093.19 310.307 1104.56 316.493 1103.93 325.68C1103.43 333.107 1095.64 339.12 1096.84 346.467C1104.45 338.694 1131.52 319.68 1142.27 331.587C1154.04 344.6 1129.69 390.16 1113.8 399.72C1100.28 407.867 1071.59 419.067 1058.08 427.213C1045.6 434.72 1031.56 442.52 1017.31 439.587C1008.87 437.867 1001.59 432.494 995.64 426.254C959.08 387.84 973.987 315.867 997.04 274.24" fill="#937CC5"/>
<path d="M968.707 325.84C970.494 320.76 972.547 315.414 976.854 312.187C985.92 305.374 999.947 312.48 1004.29 322.947C1008.65 333.413 1006.31 345.333 1003.91 356.413C1008.68 347.107 1013.99 337.24 1023.25 332.387C1032.51 327.52 1046.69 330.92 1048.89 341.133C1050.07 346.6 1047.6 352.12 1045.2 357.16C1041.76 364.387 1038.33 371.587 1034.91 378.813C1042.45 369.187 1050.52 359.387 1061.55 354.067C1072.55 348.747 1087.35 349.227 1095.39 358.44C1105.24 369.72 1100.49 387.84 1091.19 399.574C1081.88 411.307 1068.84 419.8 1060.32 432.12C1067.64 433.574 1074.6 429 1081.49 426.16C1088.39 423.32 1098.19 423.187 1101.35 429.947C1104.11 435.88 1099.47 442.747 1094.09 446.507C1088.72 450.28 1082.19 452.827 1078.48 458.254C1093.65 453.574 1109.63 449 1125.19 452.187C1140.73 455.36 1155.36 469 1153.89 484.8C1152.85 496.24 1143.75 505.653 1133.31 510.4C1122.85 515.147 1111.13 516.08 1099.69 516.947C1107.25 519.853 1115.23 523.053 1120.09 529.547C1124.95 536.027 1124.92 546.853 1117.93 550.96C1115.33 552.493 1112.24 552.867 1109.24 553.2C1076.67 556.907 1043.4 560.573 1011.39 553.56C895.454 528.133 940.76 405.28 968.707 325.84" fill="#A48CCD"/>
<path d="M693.532 1367.75C697.652 1283.51 728.636 1130.92 775.107 974.68C821.547 818.4 883.6 658.147 949.293 558.253L940.907 552.733C874.213 654.253 812.147 814.96 765.48 971.813C718.86 1128.69 687.749 1281.4 683.505 1367.25L693.533 1367.75H693.532Z" fill="#49A354"/>
<path d="M995.653 580.147C978.72 581 960.987 577.36 947.68 566.84C932.773 555.013 925.107 535.72 924.013 516.72C922.92 497.72 927.72 478.853 933.987 460.88C935.64 456.107 938.947 450.387 943.947 451.187C948.28 451.867 950.107 456.973 951.08 461.253C952.4 466.987 953.72 472.72 955.04 478.467C959.627 469.547 968.667 463.067 978.587 461.573C981.307 461.16 984.547 461.306 986.227 463.493C987.387 464.986 987.467 467.027 987.467 468.907C987.427 478.187 986.2 487.467 983.84 496.44C994.853 491.547 1004.97 478.573 1015.96 483.56C1022.63 486.573 1024.91 495.413 1022.89 502.453C1020.89 509.48 1015.73 515.12 1010.73 520.467C1017.92 518.6 1025.44 516.72 1032.67 518.413C1039.91 520.093 1046.6 526.573 1045.83 533.947C1045.23 539.653 1039.6 545.16 1035.01 547.973C1075.13 560.36 1006.41 579.613 995.653 580.147" fill="#49A354"/>
<path d="M801.773 740.36C766.213 647.333 787.374 580.96 764.187 574.707C732.707 566.227 705.535 655.093 712.049 710.72C725.165 822.747 798.84 883.96 798.84 883.96C798.84 883.96 827.933 808.827 801.773 740.36Z" fill="#49A354"/>
<path d="M922.654 711.76C1017.93 682.774 1053.6 634.587 1071.49 650.627C1095.76 672.387 1039.33 756.827 989.147 781.68C888.08 831.747 825.76 806.427 825.76 806.427C825.76 806.427 840.36 736.787 922.654 711.76Z" fill="#49A354"/>
<path d="M996.893 364.147C993.107 376.48 988.587 388.28 984.293 400.213C979.867 412.093 975.693 424.013 970.6 435.867C971.853 423.013 975.24 410.56 979.6 398.48C984.08 386.467 989.547 374.76 996.893 364.147Z" fill="#7A6BBC"/>
<path d="M1032.31 388.88C1027.84 400.653 1021.56 411.533 1014.59 421.88C1007.51 432.16 999.667 441.96 990.333 450.413C996.56 439.48 1003.55 429.307 1010.45 419.053C1017.48 408.88 1024.41 398.68 1032.31 388.88Z" fill="#7A6BBC"/>
<path d="M1058.4 439.654C1055.32 446.147 1050.44 451.413 1044.96 455.813C1039.4 460.12 1033.15 463.64 1026.11 465.107C1031.27 460.134 1036.6 456.107 1041.85 451.88C1047.21 447.747 1052.37 443.507 1058.4 439.654" fill="#7A6BBC"/>
<path d="M1074.08 466.12C1070.27 470.707 1065.68 473.987 1060.91 476.96C1056.04 479.787 1050.99 482.293 1045.13 483.48C1048.95 478.893 1053.53 475.613 1058.32 472.653C1063.19 469.827 1068.24 467.32 1074.08 466.12" fill="#7A6BBC"/>
<path d="M1090.2 519.694C1082.15 521.88 1074.16 522.84 1066.15 523.694C1058.12 524.414 1050.11 525.027 1041.79 524.427C1049.45 521.107 1057.55 519.56 1065.67 518.707C1073.8 517.987 1082.03 517.934 1090.2 519.694Z" fill="#7A6BBC"/>
<path d="M1284.12 1166.43C1287.03 1140.35 1252.17 1118.95 1217.36 1104.61C1182.53 1090.29 1175.39 1063 1145.73 1060.39C1110 1057.24 1092.63 1059.65 1083.71 1055.61C1079 1053.49 1036.05 1018.27 1030.43 1017.44C967.213 1008.23 959.653 1034.47 897.667 1022.43C829.387 1009.16 766.907 968.573 698.664 981.933C677.179 986.133 658.263 995.573 635.871 997C619.875 998.013 604.073 994.787 588.179 993.28C501.76 985.12 449.095 1012.79 387.217 1051.55C355.521 1071.4 302.201 1062 270.505 1081.85C244.872 1097.91 215.535 1164.04 231.493 1184.44L1284.12 1166.43" fill="#4B2F35"/>
<path d="M1173.87 2320.08H306.596L201.471 1137.43H1278.99L1173.87 2320.08" fill="#CE5638"/>
<path d="M603.352 2110.92C535.551 1971.97 535.161 1785.19 537.179 1631.29C539.563 1448.93 567.032 1304.51 620.704 1137.43H201.471L306.596 2320.08H872.88C740.24 2281.75 637.363 2180.63 603.352 2110.92" fill="#C54C36"/>
<path d="M891.533 1480.17C837.267 1574.89 852.693 1714.28 864.4 1815.08C873.48 1893.27 889.667 1971.21 919.107 2044.36C949.973 2121.05 1003.63 2228.01 1081.56 2270.79H1138.12L1207.81 1480.17H891.533Z" fill="#D65B3B"/>
<path d="M1252.91 1430.89L1278.99 1137.43H201.471L227.557 1430.89H1252.91Z" fill="#B83E2D"/>
<path d="M1322.8 1382.72H157.669V1122.09H1322.8V1382.72Z" fill="#CE5638"/>
<path d="M1278.99 1252.41H201.471V1158.23H1278.99V1252.41Z" fill="#D65B3B"/>
</svg>
