<svg width="565" height="833" viewBox="0 0 565 833" fill="none" xmlns="http://www.w3.org/2000/svg">
<path d="M556.4 211.2C511.4 245.8 458.7 269.6 418.2 310C403.9 324.2 392.1 340.7 380.1 356.9L378.8 358.7C383.6 347.9 388.2 337.1 392.9 326.3C399.3 311.5 406 297.2 410.2 281.6C420.6 243.7 425.7 204.5 435.3 166.4C439.9 148.2 445.3 130 453.6 113.2C456.1 108.1 459 103 462.4 98.3999C469.2 92.5999 476 86.7999 482.7 80.9999C487.7 76.6999 481.3 70.0999 476.1 72.4999C467.2 76.4999 460.2 83.2999 454.4 91.0999C418.2 122.1 382 153.2 350 188.5C310.7 231.9 276.6 283.5 258.6 339.7C247.8 373.6 243.6 409.1 238 444.2C243.5 390.4 243 336 240.7 282C240 265 239.5 247.9 237.7 231C236 214.8 233.2 198.8 229.8 182.9C223 150.4 214 118.4 207.8 85.6999C202.8 59.2999 200 32.3999 202 5.4999C202.3 1.3999 197.1 -1.30012 193.8 0.799885C175.2 12.7999 161.5 31.3999 150 49.9999C136.6 71.6999 125.9 95.2999 117.2 119.3C108.8 142.5 103.5 165.7 101.5 190.4C98.9003 222.5 100.5 254.9 104.8 286.8C106.7 300.7 109.1 314.6 112.1 328.4C114.2 338 116.3 347.6 119.9 356.8C122.8 364.4 126 371.9 129.2 379.4C121.2 364.8 112.5 350.5 102.9 337.2C88.1003 316.9 71.3002 298.2 56.5002 277.8C43.4002 259.8 29.6003 238.9 28.3003 216.1C27.9003 209.8 19.7002 208.9 17.6002 214.7C-0.199774 263.7 -5.7998 317.2 9.2002 367.7C24.2002 418 58.9002 459 101.2 489.1C101.7 489.4 102.1 489.8 102.6 490.1C105.4 492 108.1 490.9 109.5 488.7H161.5C162.7 490.9 165.3 491.3 167.5 490.4C169.2 490.6 171.1 490.2 172.5 488.7H222.9C225.2 491.3 229.6 491.7 231.4 488.7C233.6 491.2 238 491.6 240 488.7H281.5C283.1 490.4 285.6 491.4 288.2 490.1C289.2 489.6 290.1 489.2 291.1 488.7H365.8C365.9 488.7 366 488.7 366.1 488.7C367.3 490.2 369.2 491.2 371.6 490.7C423.3 479.9 462 434.2 490 392.3C506.1 368.3 520.9 343 531.9 316.2C536.7 304.4 540.8 292.1 543.5 279.6C545.9 268.4 547.7 257.1 550.4 245.9C552.4 237.9 554.8 226.2 561.8 220.9C567.3 216.4 562 207 556.4 211.2Z" fill="#87B560"/>
<path d="M519.5 263.3C454.9 295.8 401.6 343.6 356.1 398.6C357.5 394.9 358.8 391.2 360 387.5C374.3 344.8 381.2 300 389 255.8C393 232.7 397 209.4 403.8 187C405.2 182.3 399.9 178.7 395.8 180.9C355.6 202.7 328.6 241.9 308.9 282.1C287.7 325.5 273.8 372.1 260.8 418.5C256.5 433.7 252.3 449 247.9 464.2C247.6 465.1 247.6 466 247.8 466.8C241.4 455.4 232.7 444.4 230.2 431.6C230.1 430.9 229.8 430.3 229.6 429.8C218.8 372.5 227.2 313 219.9 255.2C217.7 238.2 213.9 221.4 211.4 204.4C208.8 186.7 206.5 168.9 203 151.4C197.3 122.8 176.8 97.7997 178.2 67.5997C178.5 61.5997 180.2 55.6997 182.6 50.0997C185.1 44.1997 175.9 41.0997 172.7 45.8997C156.5 70.2997 144.2 96.9997 136.2 125.2C128.5 152.6 125.3 181.1 124.2 209.5C123 240.1 123.4 271 129 301.2C134.4 330.1 144.7 357.8 155.9 384.9C161.4 398.2 167.1 411.5 172.6 424.8C160.5 410.3 146.4 397.4 131.9 385.5C101.4 360.6 67.6003 339.9 37.9003 314C34.1003 310.7 27.0004 313.8 28.8004 319.3C39.0004 350.1 48.1003 381.2 62.0003 410.6C75.3003 438.9 94.8003 469.1 126 479.4C132.7 481.6 135.5 471.1 128.9 468.9C99.7003 459.2 82.4003 428.8 70.2003 402.6C59.9003 380.4 52.5003 357.2 45.0003 333.9C70.0003 353.8 96.9004 371.3 121.8 391.3C151.2 414.9 180.2 443 191.6 480C193.7 486.7 204.1 483.8 202.1 477.1C201.4 474.7 200.6 472.4 199.7 470.1C200.3 469 200.4 467.7 199.9 466.2C181.2 410.3 151.5 358.2 139.8 300.1C133.7 269.9 133.9 238.5 135.1 207.8C136.2 179.2 139.9 150.8 148 123.3C152.9 106.7 159.5 90.7997 167.6 75.5997C168.9 94.3997 177.5 112.8 184.8 130.5C197.7 162.1 198.6 197.3 204.7 230.6C207.7 247.2 210.4 263.6 211.5 280.5C212.6 297 212.7 313.5 212.8 330C213 358.7 213 387.5 216.6 415.9C195.4 378.1 186.9 333 181.5 290.7C175.1 240.5 174.1 189.8 174.1 139.3C174.1 138 174.1 136.7 174.1 135.5C174.1 128.5 163.2 128.5 163.2 135.5C163.2 185.7 164.2 236 170 285.9C175.7 334.5 185.3 385.7 211.1 428.1C212.7 430.7 214.3 433.2 216 435.7C217.1 437.3 218.7 438 220.2 438.1C221.3 443.4 222.6 448.7 224.1 453.9C224.9 456.9 227.5 458 229.9 457.7C234.2 464.8 238.8 471.7 242.1 479.1C244.9 485.5 254.3 480 251.5 473.6C250.8 472.1 250.1 470.6 249.3 469.1C251.9 471.7 257.2 471.6 258.6 467C271.5 422.8 282.8 378.1 298.6 334.8C314.6 291.1 335.4 246.7 369.3 213.9C375.7 207.7 382.6 202.2 389.9 197.3C380.9 231.9 376.5 267.9 369.9 302.9C361.9 345.5 352.5 389.9 331.1 428C321.1 445.8 307.8 461.8 289.7 471.7C283.6 475.1 289 484.4 295.2 481.1C308.2 473.9 319 464.1 327.9 452.6C328.6 452.2 329.2 451.7 329.7 450.9C378.7 382.4 437.3 320.9 511.3 280C494.9 316.7 477.6 353.1 455.7 387C431.6 424.2 399.6 461.5 356.1 475.5C349.5 477.6 352.3 488.1 359 486C403.6 471.6 436.4 435.3 461.8 397.5C488.4 357.9 508.1 314.2 527.2 270.7C529.1 265.8 524.6 260.7 519.5 263.3Z" fill="#BADD99"/>
<path d="M367.7 247.9C352.7 268.4 338.2 289.3 325.7 311.5C316.1 328.5 308.6 346.6 300.3 364.2C293.2 379.3 286.2 394.4 280.5 410C276.9 420 270.3 436.3 276.5 446.5C280.1 452.5 289.5 447 285.9 441C284.5 438.7 285.2 433.8 285.9 430.1C287.3 423 289.8 416 292.3 409.3C297.7 394.7 304.4 380.7 311 366.6C319.1 349.3 326.6 331.8 336 315.1C348.2 293.5 362.4 273.2 377.1 253.2C381.2 247.7 371.8 242.3 367.7 247.9Z" fill="#BADD99"/>
<path d="M483.6 301.1C433.3 355.7 384.1 411.4 331.6 463.9C326.6 468.9 334.301 476.5 339.301 471.6C391.801 419.1 441.001 363.4 491.301 308.8C496.001 303.6 488.4 295.9 483.6 301.1Z" fill="#BADD99"/>
<path d="M152.6 450.8C124 415.8 87.7004 387.6 62.3004 349.9C58.4004 344.1 49.0004 349.6 52.9004 355.4C78.8004 393.9 115.7 422.8 144.9 458.5C149.4 463.9 157 456.2 152.6 450.8Z" fill="#BADD99"/>
<path d="M353.1 828.3H119.1L42.5 525.6H424.4L353.1 828.3Z" fill="#F8C401"/>
<path d="M444.7 486.3H17V525.6H444.7V486.3Z" fill="#FFD95F"/>
<path d="M233.5 525.6H42.5L119.1 828.3H233.5V525.6Z" fill="#E5AF05"/>
<path d="M233.5 486.3H17V525.6H233.5V486.3Z" fill="#F8C401"/>
<path d="M353.1 832.8H119.1L42.5 791.9H424.4L353.1 832.8Z" fill="#E5AF05"/>
<path d="M233.5 791.9H42.5L119.1 832.8H233.5V791.9Z" fill="#C9970A"/>
</svg>
