<svg width="524" height="897" viewBox="0 0 524 897" fill="none" xmlns="http://www.w3.org/2000/svg">
<path d="M369.1 891.9H135L58.3999 589.2H440.3L369.1 891.9Z" fill="#D34F2E"/>
<path d="M460.6 549.9H32.8999V589.2H460.6V549.9Z" fill="#EA6147"/>
<path d="M249.4 589.2H58.3999L135 891.9H249.4V589.2Z" fill="#C63D22"/>
<path d="M249.4 549.9H32.8999V589.2H249.4V549.9Z" fill="#D34F2E"/>
<path d="M369.1 896.401H135L58.3999 855.601H440.3L369.1 896.401Z" fill="#C63D22"/>
<path d="M249.4 855.601H58.3999L135 896.401H249.4V855.601Z" fill="#B52C1A"/>
<path d="M468.8 11.8002C468.8 10.0002 468.9 8.10019 468.9 6.30019C469 1.70019 462.9 -0.999811 459.6 2.50019C441.6 22.0002 424.6 42.6002 409.4 64.4002C401.5 75.8002 394.1 87.6002 387.6 99.8002C383.3 107.9 378.9 116.3 376.7 125.3C372.6 142 372.3 159.7 371.7 176.8C371.4 184.8 371.3 192.9 370.9 201C370.8 203.8 370.6 206.6 370.3 209.4C370.2 210 370.2 209.9 370 211.1C369.9 211.5 369.9 211.8 369.8 211.9C368.4 214.4 369.3 217.2 371 218.9C339.4 269.2 312.6 321.8 291 377.1C269.5 432.1 243.3 486.5 245.1 546.9C245.1 548.2 245.6 549.3 246.3 550.2H255.1C255.7 549.4 256.1 548.3 256.1 546.9C254.4 488.2 279.9 435 300.9 381.7C321.2 330.4 345.5 281.6 374.1 234.7C375 237 377.2 238.6 380.2 237.4C403.1 228.3 424.7 215.8 440.8 196.9C454 181.4 462.1 162.6 466.2 142.8C475.2 99.8002 468.4 55.1002 468.8 11.8002Z" fill="#699F13"/>
<path d="M461.8 93.6002C453.8 101.6 445.3 111.2 435.5 118.1C438.7 107.8 441.2 97.3002 443.8 86.8002C451 79.4002 461.6 75.0002 469.5 68.8002C475 64.5002 467.3 56.9002 461.8 61.1002C457.3 64.6002 452.5 67.4002 447.8 70.5002C451.2 56.9002 455.1 43.2002 461.7 30.8002C465 24.6002 455.6 19.1002 452.3 25.3002C442.9 43.1002 437.9 62.8002 433.3 82.5002C432.4 83.6002 431.5 84.8002 430.6 86.1002C429.2 88.4002 429.6 90.6002 431 92.1002C428.9 101.1 426.6 110 423.9 118.7C424.7 102.6 426.5 86.6002 429.7 70.8002C431 64.0002 420.6 61.0002 419.2 67.9002C414.6 91.3002 412.6 115 412.5 138.8C412.5 140.7 413.3 142.1 414.5 143C408.7 155.3 401.9 167 394.8 178.6C394.3 157 393.8 135 399.3 114.2C401.1 107.4 390.6 104.5 388.8 111.3C381.6 138.6 384.1 167.8 384.3 195.8C378.5 205.4 372.8 215 367.7 225.1C364.6 231.3 373.9 236.8 377.1 230.6C381.9 221.1 387.3 212 392.9 203C409 204.3 423.8 196.7 439.7 196.4C446.7 196.3 446.7 185.4 439.7 185.5C426 185.7 413.1 191.4 399.6 192.1C401.8 188.5 404.1 184.9 406.3 181.3C407.3 179.6 408.3 178 409.3 176.3C409.9 176 410.5 175.7 411 175.1C422 164.3 434.8 155.5 445.7 144.7C450.7 139.8 443 132.1 438 137C433.3 141.7 428.2 145.9 423.1 150.1C425.7 144.6 428 139.1 430.2 133.4C445.5 126.4 457.8 112.9 469.5 101.2C474.4 96.3002 466.8 88.7002 461.8 93.6002Z" fill="#5E870F"/>
<path d="M255.1 462.2C248.7 441.5 239.5 420.5 227.2 402.5C198.9 361.3 159.9 328.8 131.1 288C131.7 287.8 132.4 287.4 132.9 286.8C149 271.7 152.4 246.9 153 226C153.3 214.8 152.4 203.5 150.8 192.4C148.9 179.6 144.5 167.5 139.8 155.6C128.9 128 114.2 102.1 95.8999 78.7002C83.9999 63.5002 64.7 41.1002 43 45.2002C42.7 45.3002 42.3 45.4001 42 45.5001C38.9 46.3001 37.7 49.3002 38.2 52.2002C46.8 103.8 33.1 156.2 43.7 207.7C51.1 243.7 76.3001 286.8 117.6 287.4C145.3 329.1 184 361.8 213.6 402C226.3 419.2 235.6 438.7 242.6 458.8C249.4 478.3 255.4 500.9 250.9 521.5C249.4 528.3 259.9 531.2 261.4 524.4C265.8 503.7 261.3 482 255.1 462.2Z" fill="#699F13"/>
<path d="M134.8 221.9C131.7 234.4 126 246 122.1 258.2C120.1 247.8 117.8 237.6 115.2 227.4C118.3 228 121.7 226.3 121.5 222.3C121 210.2 132 200.7 134.3 189C135.7 182.2 125.2 179.3 123.8 186.1C121.8 196.4 114.3 204.3 111.6 214.1C109 204.7 106.3 195.4 103.3 186.2C103.7 185.9 104.1 185.4 104.4 184.9C111.1 174.5 114.7 162.8 118 151C119.9 144.2 109.4 141.4 107.5 148.1C105.2 156.5 102.7 164.8 98.8999 172.5C95.8999 163.4 92.8001 154.4 89.6001 145.4C90.1001 144.9 90.5001 144.2 90.8001 143.4C94.3001 133.5 101.4 125.6 103.8 115.2C105.4 108.4 94.9001 105.5 93.3001 112.3C91.7001 119.2 87.9 125.2 84.5 131.4C82.2 125.1 80 118.8 77.7 112.6C80.2 103.5 81.3001 94.1004 83.1001 84.8004C84.4001 78.0004 74.0001 75.0004 72.6001 81.9004C71.9001 85.7004 71.2001 89.4004 70.6001 93.2004C66.4001 81.5004 62.1001 69.8004 58.1001 58.0004C55.8001 51.4004 45.3001 54.2004 47.6001 60.9004C52.5001 75.2004 57.6999 89.5004 62.8999 103.8C60.7999 101.9 58.7 99.9004 56.7 97.9004C51.7 93.0004 44 100.6 49 105.6C54.6 111.2 60.6999 116.3 66.3999 121.9C67.4999 123 68.8001 123.5 70.1001 123.5C72.2001 129.2 74.2 134.8 76.2 140.5C70.9 137.2 65.4001 134.1 61.1001 129.5C56.3001 124.4 48.6999 132.1 53.3999 137.2C61.1999 145.6 74.1001 148.5 80.8001 157.8C81.4001 158.6 82.0999 159.2 82.8999 159.6C85.6999 167.9 88.5 176.1 91.2 184.5C87.9 181.5 84.1001 179.2 80.1001 177.1C74.8001 174.3 69.2 171.9 66.2 166.5C62.8 160.4 53.4001 165.8 56.8001 172C63.3001 183.8 77.6999 185 85.8999 194.8C88.5999 198 92.3 196.6 94 193.8C96.5 201.8 98.9001 209.9 101.1 218C90.0001 211.3 80.0001 202.8 70.8001 193.7C65.8001 188.8 58.1001 196.4 63.1001 201.4C73.8001 212 85.6999 222 98.8999 229.4C100.8 230.5 102.6 230.3 104.1 229.4C106.4 238.3 108.5 247.3 110.3 256.3C100.2 245.3 87.5 236.8 79.2 224.1C75.4 218.2 66.0001 223.7 69.8001 229.6C81.3001 247.3 101.6 257.1 111 276.3C111.8 277.9 113 278.7 114.2 279C114.4 280.2 114.6 281.4 114.8 282.6C115.7 288.8 124.3 287 125.3 281.6C127.1 280.9 128.6 279.3 128.8 276.8C130.2 258.6 140.6 242.5 144.9 225.1C146.9 218 136.5 215.1 134.8 221.9Z" fill="#5E870F"/>
<path d="M517 364.1C510.3 323.9 496.3 281.1 464.9 253.4C468.6 250 465.6 242.4 459.8 244.1C440.1 249.8 422.1 259.3 407.9 274.3C405.6 276.7 403.5 279.3 401.4 281.9C401.1 278.9 398.5 275.9 394.6 276.7C375.4 280.6 360.3 295.7 348.5 310.4C333.6 328.9 322 349.9 311.5 371.1C302.2 389.8 294.1 409.2 285.6 428.3C285.4 428.6 285.2 428.9 285 429.2C278.2 439.6 274.6 452.6 271 464.3C270.2 467 269.3 469.7 268.5 472.4C267.5 442 263.7 411.5 263.6 381.5C263.6 381.3 263.6 381.1 263.6 380.9C283.6 365.1 300.7 346 309.6 321.7C317.2 300.8 316.5 278 311.6 256.6C300.8 209.6 271.9 168.6 249.7 126.5C242.4 112.7 235.7 98.6001 230.8 83.7001C229.2 78.8001 221.6 78.2001 220.3 83.7001C208.5 134.4 173.3 176.3 163.3 227.6C158.4 253.1 162.2 278 172.7 301.6C176.1 309.3 181.6 316.1 186.9 322.6C193.2 330.5 200.1 338 207 345.4C211.1 349.8 215.2 354.2 219.3 358.6C220.6 360.1 222 361.5 223.3 363C223.4 363.1 223.8 363.6 224 363.9L224.1 364C224.1 364 224.1 364 224.1 363.9C224.2 364 224.2 364 224.1 363.8C224 363.6 223.9 363.2 223.8 362.8C224.3 364.5 225.4 366 227.1 366.8C233.4 375.2 240.4 382.8 249 389.4C250.4 390.5 251.8 390.7 253 390.3C254 429.7 260.5 470.3 257.2 509.7C254.5 519.5 252.4 529.5 251 539.5C250.2 543 249.4 546.5 248.6 550H260.9C263.9 539.6 265.9 529.2 267.1 518.6C271.5 500.9 276.3 483.3 282.3 466C282.7 464.8 283.2 463.5 283.6 462.3C283.2 492.4 293.4 523.5 305 550.1C323.5 592.4 350.7 632.6 383.8 664.8C390.9 671.7 398.4 678 406.4 683.7C409.4 685.8 413.4 683.5 414.4 680.5C423 653.7 427.2 625.6 424.6 597.5C422.2 571.9 414.1 547.4 402.4 524.7C389.9 500.5 373.2 478.6 355.3 458.1C346.1 447.5 336.5 437 325.7 428C319.3 422.7 311.8 417.5 303.2 417.1C302.8 417.1 302.5 417.1 302.1 417.1C305.2 410.1 308.4 403.1 311.6 396.1C321.4 374.6 332.1 353.4 345 333.7C356.1 316.8 369.7 298.8 388.4 289.9C391.3 288.5 394.5 287.6 397.6 287C390.8 296.7 385.1 307.2 379.8 317.7C378 317.9 376.3 319.1 375.8 321.5C372 338.3 373.5 354.9 382.8 369.6C391.7 383.8 406 394.1 419.6 403.6C420.5 404.2 421.4 404.5 422.3 404.6C427 408.8 431.7 412.8 436.2 416.6C451.8 429.7 468.1 442 483 456C495.4 467.7 507.7 481.3 512.6 498C514.4 503.9 523.1 502.7 523.3 496.6C524.4 452.6 524.3 408 517 364.1Z" fill="#8BBE24"/>
<path d="M288.1 289C277.4 298.3 268.1 309.1 259.1 320C258.5 309.8 257.6 299.7 256.4 289.6C265.9 278.9 275.8 268.6 285 257.6C289.5 252.3 281.8 244.6 277.3 249.9C269.9 258.7 262.1 267 254.4 275.5C253.2 267.7 251.7 260 249.9 252.2C249 248.3 248.1 244.3 247.1 240.3C247.1 240.2 247.2 240 247.2 239.9C251.9 224.6 263.9 212.9 272.7 199.9C276.6 194.1 267.2 188.7 263.3 194.4C256.7 204.1 248.8 213 242.9 223.1C240.9 214.8 239.1 206.5 237.5 198.1C239.8 198.3 242.1 197.2 242.8 194.2C245.1 183.8 251.4 175.8 258.8 168.4C263.7 163.4 256 155.7 251.1 160.7C244.6 167.3 238.7 174.5 235.1 182.9C232.9 165.7 232.6 148.4 236.3 131.3C237.8 124.5 227.3 121.6 225.8 128.4C222 146.2 222.1 164.1 224.2 182C217.9 174 210.9 166.5 204.5 158.6C200.1 153.2 192.5 160.9 196.8 166.3C205.2 176.7 214.9 186.3 222 197.8C223.2 199.8 225.1 200.5 226.9 200.3C228.6 209.6 230.6 218.8 232.8 227.9C219.9 217.5 207.3 206.6 192.5 199C186.3 195.8 180.8 205.2 187 208.4C204.6 217.4 219.1 231.3 234.8 243.1C235.4 243.6 236.1 243.9 236.7 244C237.1 245.8 237.6 247.6 238 249.5C240.6 260.5 242.6 271.4 244.2 282.4C227.3 269.8 207.2 261.8 190.3 248.9C184.7 244.6 179.3 254.1 184.8 258.3C202.5 271.8 224 279.7 241.1 293.8C241.7 296.2 243.8 298.2 246.1 298.3C247.3 309.6 248 320.9 248.5 332.2C247.9 332.9 247.2 333.7 246.6 334.4C246.3 334.8 246 335.2 245.8 335.5C232.7 326.4 219.2 317.6 205.4 309.6C199.3 306.1 193.9 315.5 199.9 319C216.8 328.7 233.1 339.7 249.1 351C249.3 360.4 249.4 369.9 249.4 379.4C249.4 386.4 260.3 386.4 260.3 379.4C260.3 364.8 260.2 350.2 259.7 335.7C271.1 322 282.2 308.1 295.7 296.4C301.1 292.1 293.4 284.4 288.1 289Z" fill="#699F13"/>
<path d="M411.9 618.1C405.3 613.1 398.3 608 393.8 601.1C389.8 589.8 385.5 578.7 380.8 567.6C386.3 571.8 391.7 576.2 396.7 581.1C401.7 586 409.4 578.3 404.4 573.4C394.7 563.9 383.7 556 372.4 548.4C367.5 537.6 362.2 527 356.8 516.4C362.5 520.2 368.4 523.7 374 527.6C379.7 531.6 385.2 522.2 379.5 518.2C372.5 513.3 365.2 509 358.1 504.1C352.6 500.3 346.5 495.7 345.1 488.8C344.5 485.7 342 484.6 339.6 485C335.3 477.7 331 470.4 326.5 463.2C335.8 468.5 344.7 474.3 355.8 476C362.6 477 365.6 466.5 358.7 465.5C342.4 463.1 330.5 451.4 315.5 446C313.6 443.2 311.8 440.4 309.9 437.6C306 431.8 296.6 437.3 300.5 443.1C302.1 445.4 303.6 447.8 305.2 450.1C304.5 450.9 304.1 452 304.1 453.4V512C304.1 519 315 519 315 512V465.2C320.2 473.5 325.3 481.8 330.2 490.3C328.9 491.2 328 492.6 328 494.6C327.9 515 325.9 535.2 323.7 555.4C322.9 562.4 333.8 562.3 334.6 555.4C336.5 538.7 338.1 522 338.7 505.2C346.1 518.6 353 532.2 359.6 546C358.7 547.5 358.4 549.5 359.1 551.2C356 548.4 349.2 551.4 350 556.9C351.9 571 351.9 585.5 350 599.6C349.1 606.4 359.5 609.4 360.5 602.5C362.7 586.3 362.7 570.3 360.5 554C360.4 553.5 360.3 553.1 360.2 552.8C360.5 553.1 360.8 553.4 361.2 553.7C362.1 554.3 363.1 555 364 555.6C369.7 568.1 375 580.8 379.8 593.6C376.6 593.6 373.1 596.3 373.9 600.4C376 611.6 375.7 623.2 373.9 634.4C372.8 641.2 383.3 644.2 384.4 637.3C385.8 628.4 386.4 619.5 386 610.7C392.4 629.4 397.9 648.4 402.2 667.7C403.7 674.5 414.2 671.6 412.7 664.8C409.6 650.9 405.9 637.2 401.7 623.6C403.4 624.9 405.2 626.2 406.9 627.5C412.1 631.7 417.5 622.3 411.9 618.1Z" fill="#699F13"/>
<path d="M520 419.6C511.9 415.3 505.7 408.7 498.8 402.7C494.4 391.3 489.3 380.1 483.7 369.2C490.5 370.1 497.2 371.6 503.1 375.2C509.1 378.9 514.5 369.5 508.6 365.8C499.2 359.9 488.4 358.9 477.6 357.7C471 345.8 463.7 334.4 455.6 323.5C468 323.8 480.4 326.4 491.7 331.3C498.1 334 503.6 324.7 497.2 321.9C481.5 315.1 464.2 311.8 447.2 312.8C445.9 311.3 444.7 309.7 443.4 308.3C441.1 305.6 438.6 302.9 436.1 300.3C441.8 299.7 447.4 298.7 453.1 297.9C462.3 296.6 472.6 294.9 481.7 297.6C488.4 299.6 491.3 289.2 484.6 287.1C465.6 281.3 444.8 289.7 425.5 290.1C417.8 283.6 409.3 278 400 274C393.6 271.3 390.8 281.8 397.1 284.5C402.1 286.6 406.8 289.3 411.2 292.5C411.2 293.3 411.3 294.2 411.7 295C415.1 302.5 412.8 312.7 411.6 320.4C410.1 329.9 407.8 339.5 407.7 349.2C407.6 356.2 418.5 356.2 418.6 349.2C418.8 334.6 425 318.5 424.3 303.5C428.7 307.7 432.8 312.3 436.7 316.7C437.2 317.3 437.7 317.9 438.2 318.5C436.6 319.3 435.4 320.8 435.4 323.1C435.4 339.6 435.3 356.1 430.7 372.1C428.8 378.8 439.2 381.7 441.2 375C445.6 359.9 446.2 344.2 446.3 328.6C453.7 338.5 460.4 349 466.5 359.7C465.8 360.3 465.2 361.2 464.9 362.4C461 377.4 464.5 393.3 458.4 408C455.7 414.5 466.2 417.2 468.9 410.9C473.9 398.8 472.5 386 473.9 373.4C478.9 383.1 483.5 393.1 487.5 403.3C487.2 404.1 487.1 405 487.3 405.8C485.6 407.3 484.9 409.7 486.5 412.1C491 418.9 487.1 429.8 486 437.2C485 444 495.4 447 496.5 440.1C496.8 437.9 497.3 435.6 497.7 433.3C502.3 449.8 505.5 467.1 503.7 484.3C503 491.3 513.9 491.2 514.6 484.3C516.5 465.9 512.7 446.9 507.8 429.2C507.2 427.2 506.6 425.1 506 423.1C508.7 425.2 511.5 427.1 514.6 428.7C520.7 432.2 526.2 422.9 520 419.6Z" fill="#699F13"/>
<path d="M240 540.5C240.6 542.5 241 544.6 241.1 546C241.1 546.3 241.1 547.4 241.1 547.7C240.4 548.5 240 549.3 239.9 550.1H256.5C256.8 549.5 257.1 548.8 257.2 547.9C260.1 522.9 257.4 494.8 248.9 471.1C245.5 461.7 241 450 233.5 442.4C232.6 440.1 231.6 437.7 230.4 435.5C228 430.9 222.2 432.7 220.7 436.5C214.5 436.9 208.5 441.1 203.3 445C194.3 430.1 184.9 415.3 174.7 401.4C165.2 388.4 154 372.9 139 365.7C133.1 362.9 126.9 362.2 121 365C115 367.9 111.6 374.7 109.5 380.9C108 381.9 106.8 383.4 105.8 385.1C99.3001 380.2 92.2001 376.1 84.5001 373.1C83.1001 370.8 80.4001 369.6 77.5001 371.5C48.6001 391.6 26.7001 417.2 15.1001 450.8C0.000146866 494.4 11.7 541.3 0.200001 585.4C-0.899999 589.7 4.1 594.5 8.2 591.5C21.6 581.8 38 577.6 52.2 569.3C65.9 561.2 78.5001 551 90.3001 540.4C113.5 519.8 135.4 492.3 141.8 461.3C143.4 460.6 144.6 459 144.4 456.6C142.6 432.5 131.6 409.1 114.3 392.4C114.7 391.6 115.2 390.8 115.7 390.1C117.4 389.5 118.7 388.2 119.2 386.4C120.2 383.2 121.3 380.2 123.2 377.4C124.5 375.5 125.9 374.6 127.3 374.1C128.8 373.6 129.9 373.8 132.1 374.4C134.6 375.1 136.9 376.6 139.3 378.2C152 386.9 161.7 401.1 170.5 413.5C179.1 425.8 187.3 438.7 195.1 451.7C158.3 484.1 142.5 535.5 138 583C136.1 603.2 135 625 140.4 644.6C141.4 648.2 145.3 649.4 148.4 647.8C183.8 630.7 202.8 593.5 216.7 558.7C222.1 545.2 227.1 531.4 231.2 517.4C232.1 519.3 233 521.3 233.9 523.3C236.1 529.1 238.4 534.7 240 540.5ZM235.6 499.6C237.4 491.2 238.6 482.5 238.8 473.9C245 491 246.9 510 247.2 527.8C246 524.8 244.7 521.9 243.5 519.1C240.9 513.2 238.1 507.3 235.2 501.5C235.3 500.9 235.5 500.2 235.6 499.6Z" fill="#8BBE24"/>
<path d="M114.3 392.2C118.1 386.3 108.7 380.9 104.9 386.7C103.2 389.2 101.5 391.7 99.6998 394.1C98.8998 394.3 98.2 394.6 97.6 395.1C96.4 394.1 94.7999 393.6 92.9999 394C82.9999 396.1 73.2999 400.1 62.9999 400.3C55.9999 400.5 55.9999 411.3 62.9999 411.2C72.7999 411 81.8999 407.9 91.2999 405.6C85.6999 412.9 80.2998 420.3 75.8998 428.5C75.4998 429.3 75.0998 430.1 74.6998 430.9C75.4998 426.8 71.2999 422.1 66.7999 425C57.2999 431.2 46.1999 437 34.7999 438.4C27.8999 439.2 27.8999 450.1 34.7999 449.3C45.0999 448.1 55.0998 444.3 64.1998 439.3C65.2998 441.9 66.3998 444.5 67.3998 447.2C66.3998 449.6 65.3998 452 64.3998 454.4C62.3998 459 60.5 463.7 58.6 468.4C58.8 464.6 54.7999 460.6 50.4999 463.1C38.0999 470.3 22.5999 473.5 13.7999 485.7C9.69993 491.4 19.0998 496.8 23.1998 491.2C26.7998 486.2 32.9998 483.5 38.3998 481C42.5998 479 46.9 477.2 51.1 475.2C51 478.9 51.4998 482.5 52.1998 486C51.5998 487.7 50.8998 489.4 50.1998 491C49.4998 491.3 48.8999 491.7 48.2999 492.2C36.9999 503.4 23.7999 512.5 12.4999 523.7C7.49988 528.6 15.1998 536.3 20.1998 531.4C25.6998 526 31.6 521 37.6 516.1C26.4 536 14.2 555.4 10.1 578.2C8.79998 585 19.3 588 20.6 581.1C23.9 563 32.2998 546.8 41.1998 530.7C42.2998 537.6 43.3999 544.4 43.4999 551.4C43.5999 558.4 54.4998 558.4 54.3998 551.4C54.1998 539 50.7 527.1 50.1 514.8C52.4 510.7 54.5998 506.5 56.6998 502.3C57.6998 506.3 58.5998 510.3 58.6998 514.5C58.8998 521.5 69.7 521.5 69.6 514.5C69.4 505.1 65.5999 496.3 63.4999 487.3C66.6999 479.2 69.3 471 72.6 462.9C74.2 468.9 75.4998 475 76.3998 481.1C77.3998 488 87.7998 485.1 86.8998 478.2C85.3998 467.7 82.6998 457.4 79.1998 447.5C80.8998 443.5 82.7 439.6 84.6 435.7C88.1 428.5 92.4999 422 97.2999 415.6C99.7999 427.5 104.2 439.2 104.4 451.5C104.5 458.5 115.4 458.5 115.3 451.5C115 435.1 107.2 419.7 106.6 403.5C109.1 399.6 111.8 396 114.3 392.2Z" fill="#699F13"/>
<path d="M219.7 450.7C213.3 458.8 207.7 467.3 202.6 476.2C201.2 476.1 199.8 476.6 198.7 477.6C197.1 477.1 195.3 477.4 193.7 479C187.5 485 180.1 489.5 173.1 494.4C167.4 498.4 172.8 507.8 178.6 503.8C183.7 500.2 188.9 496.9 193.8 493.1C190.6 499.8 187.7 506.6 185 513.5C184.7 513.6 184.3 513.8 184 514C174.7 519.6 162.7 522.2 155.8 531.1C151.5 536.5 159.2 544.3 163.5 538.8C167.5 533.7 173.6 530.8 179.7 528.2C177.7 533.9 175.9 539.7 174.1 545.6C173.1 545.5 172.1 545.9 171 546.7C161.4 553.9 151.8 561.3 145.2 571.4C141.4 577.3 150.8 582.7 154.6 576.9C158.6 570.8 164 565.9 169.7 561.3C168 567.4 166.5 573.6 164.9 579.7C156.3 585.8 147.8 591.7 142 600.7C138.2 606.6 147.6 612 151.4 606.2C154 602.2 157.4 598.9 161.1 596C159.6 602.4 158.1 608.8 156.7 615.1C155.1 621.9 165.6 624.8 167.2 618C168.2 613.6 169.2 609.2 170.3 604.9C170.5 606 170.7 607.1 170.9 608.3C171.3 611.2 175 612.8 177.6 612.1C180.7 611.2 181.8 608.3 181.4 605.4C180.4 599 178.5 592.8 174.5 587.8C176 581.8 177.6 575.7 179.2 569.7C180.3 572.1 181.3 574.6 182.4 577C183.6 579.7 187.5 580.3 189.8 578.9C192.6 577.3 192.9 574.2 191.7 571.5C189.1 565.5 186.5 559.5 183.7 553.6C185.3 548.3 186.9 543 188.7 537.7C189.4 540.8 189.9 544 190.3 547.1C191.1 554 202 554 201.2 547.1C200.1 537.7 198 528.6 195.2 519.5C197.9 512.3 200.9 505.2 204.1 498.2C205.9 502.2 207.6 506.3 209 510.5C211.3 517.1 221.7 514.3 219.5 507.6C216.9 500.1 213.7 492.9 210.3 485.8C215.4 476.3 221.2 467.1 227.9 458.6C231.7 453 224.1 445.2 219.7 450.7Z" fill="#699F13"/>
</svg>
