<svg width="492" height="941" viewBox="0 0 492 941" fill="none" xmlns="http://www.w3.org/2000/svg">
<path d="M434.4 141.5C417.9 168.3 395.9 191.1 377.7 216.7C359.1 242.8 344.3 271.4 332 301C319.7 330.7 309.6 361.8 302.7 393.3C295.6 425.7 292 458.7 289.3 491.7C288.5 501.4 287.8 511.2 287.1 520.9C286.7 527.2 288 533.9 288.7 540.1C289.5 547.6 290.4 555 290.7 562.5C291 568.4 291.5 575.6 288.9 581.1C288.3 582.4 288.2 583.7 288.5 584.9C286.2 587.7 286.5 592.5 291 593.4C299.9 595.2 309.3 597.8 318.4 597.4C328.5 597 331.6 585.3 333.7 577.2C341.3 546.9 350.9 517.3 361.2 487.8C383.9 422.5 408.5 358.1 425.2 291C437.1 242.9 444.4 193.8 444.5 144.2C444.5 138.8 437.2 137 434.4 141.5Z" fill="#699F13"/>
<path d="M335.9 568.9C336.8 565.4 337.8 561.9 338.8 558.4C322.9 555.1 306.3 554.2 290.2 554.4C290.4 557.1 290.6 559.9 290.8 562.6C290.8 563.5 290.9 564.3 290.9 565.2C305.9 565 321.1 565.9 335.9 568.9Z" fill="#5A7F11"/>
<path d="M349.9 521.5C329.4 517.1 308.6 513.8 287.9 510.7C287.7 514.1 287.4 517.4 287.2 520.8C287.2 521 287.2 521.2 287.2 521.5C307.1 524.4 327 527.7 346.7 531.9C347.7 528.5 348.8 525 349.9 521.5Z" fill="#5A7F11"/>
<path d="M365.8 474.7C340.9 473.1 316.3 464.3 292.8 455.5C292.4 459.2 292 462.9 291.6 466.6C314.3 475 338.1 483.3 362.1 485.3C363.3 481.8 364.6 478.2 365.8 474.7Z" fill="#5A7F11"/>
<path d="M382.7 426.8C383.9 423.4 385.1 420 386.3 416.5C371.4 412.4 357 405.9 342.6 400.7C330.1 396.1 316.7 391.8 303.3 391C303.1 391.8 303 392.5 302.8 393.3C302.2 396.1 301.6 398.8 301.1 401.6C314.9 402.1 328.8 407.2 341.3 411.8C355 416.8 368.6 422.9 382.7 426.8Z" fill="#5A7F11"/>
<path d="M406 358.2C379 345 353.8 327.1 324.1 321.5C322.8 324.9 321.6 328.3 320.4 331.7C350.2 336.4 375.7 354.8 402.7 368.4C403.8 365 404.9 361.6 406 358.2Z" fill="#5A7F11"/>
<path d="M422.6 301C397.8 288.7 373.8 274.6 346.7 268.7C345.1 272 343.5 275.3 341.9 278.6C369.8 283.7 394.5 298.9 419.8 311.5C420.8 308.1 421.7 304.6 422.6 301Z" fill="#5A7F11"/>
<path d="M433.8 251.7C434.5 248.2 435.1 244.7 435.7 241.1C423.5 237.6 411.2 234.6 400.6 227.2C394 222.6 387.5 217 380.4 213C379.5 214.2 378.6 215.4 377.7 216.7C376.5 218.4 375.3 220.1 374.1 221.8C382.6 225.8 390.1 233.3 397.5 238.2C408.5 245.6 421.4 248.1 433.8 251.7Z" fill="#5A7F11"/>
<path d="M443 182.5C433.6 178.2 424.6 173.2 415.3 168.7C413.1 171.6 410.8 174.5 408.5 177.3C419.8 182.6 430.7 188.8 442 193.9C442.4 190.1 442.8 186.3 443 182.5Z" fill="#5A7F11"/>
<path d="M84.6997 5.69994C80.3997 36.8999 69.2998 66.6 62.8998 97.3C56.2998 128.7 54.1998 160.8 54.7998 192.8C55.3998 225 58.5998 257.5 64.8998 289.1C71.2998 321.6 81.2998 353.3 91.9998 384.7C95.1998 393.9 98.3997 403.2 101.7 412.4C103.8 418.3 107.7 423.9 110.8 429.4C114.6 435.9 118.3 442.4 121.6 449.1C124.2 454.4 127.6 460.8 127.4 466.9C127.4 468.4 127.8 469.6 128.6 470.5C127.7 474 129.9 478.3 134.3 477.3C143.1 475.4 152.8 474 161 470C170 465.6 168.3 453.6 166.9 445.4C161.7 414.6 158.7 383.6 156.3 352.5C151 283.6 147.7 214.7 136.1 146.5C127.8 97.7 114.8 49.6999 94.9998 4.19994C92.7998 -0.900062 85.3997 0.399938 84.6997 5.69994Z" fill="#699F13"/>
<path d="M165.5 436.7C164.9 433.1 164.4 429.5 163.9 425.9C148 429.3 132.4 435 117.7 441.7C119 444.1 120.3 446.5 121.5 449C121.9 449.8 122.3 450.6 122.7 451.4C136.4 445.2 150.8 440 165.5 436.7Z" fill="#5A7F11"/>
<path d="M159.4 387.8C138.9 392 118.5 397.3 98.2998 402.8C99.3998 406 100.5 409.2 101.7 412.4C101.8 412.6 101.9 412.8 101.9 413C121.3 407.7 140.9 402.7 160.6 398.7C160.1 395 159.7 391.4 159.4 387.8Z" fill="#5A7F11"/>
<path d="M155.2 338.5C131.8 347 105.7 348.8 80.5996 350.2C81.6996 353.7 82.7997 357.3 83.8997 360.8C108.1 359.4 133.2 357.5 156 349.8C155.8 346 155.5 342.2 155.2 338.5Z" fill="#5A7F11"/>
<path d="M151.6 287.8C151.3 284.2 151.1 280.6 150.8 277C135.5 279.2 119.8 279 104.4 280C91.1 280.8 77.1 282.2 64.5 286.8C64.6 287.6 64.8 288.3 64.9 289.1C65.5 291.9 66 294.6 66.6 297.4C79.4 292.3 94.2 291.5 107.6 290.6C122.1 289.7 137 289.9 151.6 287.8Z" fill="#5A7F11"/>
<path d="M145.4 215.7C115.3 214.4 85.1996 208.1 55.5996 214.8C55.7996 218.4 55.9997 222 56.2997 225.7C85.4997 218.1 116.2 224.7 146.4 226.3C146.1 222.8 145.7 219.2 145.4 215.7Z" fill="#5A7F11"/>
<path d="M137.8 156.6C110.2 155.2 82.4999 151.9 55.2999 157.4C55.0999 161.1 54.9999 164.8 54.8999 168.4C82.4999 161.9 111.2 166 139.4 167.4C138.9 163.8 138.3 160.2 137.8 156.6Z" fill="#5A7F11"/>
<path d="M128.2 106.9C127.4 103.4 126.6 99.8999 125.7 96.4999C113.1 98.0999 100.7 100.3 87.9 97.7999C80.1 96.2999 71.8 93.6999 63.7 92.8999C63.4 94.3999 63 95.7999 62.7 97.2999C62.3 99.2999 61.9 101.4 61.5 103.4C70.9 103.7 80.8 107.5 89.5 109.1C102.6 111.4 115.4 108.6 128.2 106.9Z" fill="#5A7F11"/>
<path d="M109 39.8C98.6998 39.6 88.3997 38.7 78.0997 38.2C77.1997 41.7 76.2998 45.3 75.2998 48.8C87.7998 49.1 100.2 50.4 112.7 50.6C111.5 47 110.3 43.4 109 39.8Z" fill="#5A7F11"/>
<path d="M354.9 10.2C342.1 38.9 323.2 64.4 308.5 92.1C293.5 120.4 282.5 150.7 274.2 181.6C265.9 212.7 259.9 244.8 257.1 276.9C254.3 309.9 255 343.2 256.6 376.2C257.1 386 257.6 395.7 258.2 405.5C258.6 411.8 260.7 418.3 262.2 424.3C264 431.6 265.8 438.9 267.1 446.3C268.2 452.1 269.6 459.2 267.8 465C267.4 466.4 267.5 467.7 267.9 468.8C266 471.9 267 476.6 271.5 476.9C280.5 477.5 290.2 478.9 299.2 477.3C309.1 475.6 310.8 463.6 311.7 455.3C315.3 424.3 321 393.7 327.3 363.1C341.3 295.4 357.3 228.4 365.1 159.6C370.7 110.4 371.5 60.7 365.2 11.5C364.6 6.20001 357.1 5.29996 354.9 10.2Z" fill="#699F13"/>
<path d="M312.9 446.7C313.4 443.1 313.9 439.5 314.4 435.9C298.2 434.7 281.6 435.9 265.7 438.2C266.3 440.9 266.9 443.6 267.3 446.3C267.5 447.1 267.6 448 267.8 448.9C282.6 446.8 297.8 445.7 312.9 446.7Z" fill="#5A7F11"/>
<path d="M320.6 398C299.7 396.3 278.7 395.7 257.7 395.4C257.9 398.8 258.1 402.2 258.3 405.5C258.3 405.7 258.3 405.9 258.4 406.2C278.5 406.5 298.7 407.2 318.7 408.7C319.3 405.1 319.9 401.6 320.6 398Z" fill="#5A7F11"/>
<path d="M330.3 349.5C305.4 351.2 279.9 345.7 255.4 340C255.5 343.7 255.6 347.4 255.7 351.1C279.3 356.5 303.9 361.6 328 360.5C328.7 356.8 329.5 353.1 330.3 349.5Z" fill="#5A7F11"/>
<path d="M340.801 299.8C341.501 296.3 342.301 292.7 343.001 289.2C327.701 287.1 312.601 282.5 297.601 279.2C284.601 276.3 270.801 273.8 257.401 274.7C257.301 275.5 257.301 276.2 257.201 277C257.001 279.8 256.701 282.6 256.601 285.5C270.301 284.2 284.801 287.5 297.801 290.4C312.001 293.5 326.301 297.7 340.801 299.8Z" fill="#5A7F11"/>
<path d="M354.901 228.8C326.401 219.2 299.101 204.8 268.901 203C268.101 206.5 267.301 210.1 266.601 213.6C296.801 214.4 324.401 229.3 353.001 239.2C353.601 235.8 354.301 232.3 354.901 228.8Z" fill="#5A7F11"/>
<path d="M364.001 169.9C337.801 160.9 312.201 150.1 284.601 147.8C283.401 151.3 282.201 154.8 281.101 158.3C309.401 159.7 335.901 171.6 362.601 180.8C363.101 177.2 363.501 173.5 364.001 169.9Z" fill="#5A7F11"/>
<path d="M368.7 119.5C368.9 115.9 369.1 112.4 369.2 108.8C356.7 106.9 344.1 105.5 332.5 99.6002C325.4 95.9002 318.2 91.2002 310.6 88.2002C309.9 89.5002 309.201 90.8002 308.401 92.2002C307.401 94.0002 306.5 95.9002 305.5 97.7002C314.4 100.6 322.901 107 330.801 110.9C342.801 116.8 355.9 117.5 368.7 119.5Z" fill="#5A7F11"/>
<path d="M368.8 49.7001C358.9 46.6001 349.3 42.9001 339.5 39.6001C337.7 42.8001 335.8 45.9001 333.9 49.0001C345.8 52.8001 357.4 57.5001 369.3 61.1001C369.2 57.3001 369 53.5001 368.8 49.7001Z" fill="#5A7F11"/>
<path d="M267.1 483.6C270.2 414.1 274.9 344.4 269.8 274.9C267.2 239.9 260.3 206 254.9 171.4C249.5 137.2 245.8 102.8 240.4 68.5999C238.5 56.2999 237.7 41.7999 230.8 30.9999C225.4 22.5999 216.4 24.0999 211.9 32.2999C208.7 38.0999 207.4 45.0999 206.1 51.5999C204.5 59.3999 203.3 67.2998 202.3 75.1998C200.3 90.6998 199.2 106.4 198.4 122C196.7 155.9 190.9 189.4 189.6 223.3C188.3 258.1 196.3 292 198.6 326.7C199.8 344.3 200.5 361.9 201.9 379.5C203.3 397 205.9 414.2 208.9 431.5C214.9 466.1 216.4 501.3 219 536.3C220.3 554.1 222 571.8 224.4 589.5C224.4 589.7 224.5 590 224.5 590.2C223.7 592.8 224.7 595.9 228.2 596.6C238.3 598.6 248.8 599.4 257.3 592.8C263.9 587.7 265.2 578 265.6 570.3C266.3 558.7 265.4 547 265.5 535.4C265.6 518 266.3 500.8 267.1 483.6Z" fill="#699F13"/>
<path d="M237.5 49.7998C226.9 50.5998 216.3 51.2997 205.8 52.5997C205 56.2997 204.4 59.9997 203.8 63.6997C215.5 61.9997 227.4 61.3998 239.2 60.4998C238.7 56.8998 238.2 53.2998 237.5 49.7998Z" fill="#5A7F11"/>
<path d="M242.6 83.4998C228.6 85.8998 214.6 88.3997 200.5 90.0997C200.2 93.7997 199.8 97.3997 199.6 101.1C214.5 99.3997 229.3 96.6997 244.1 94.1997C243.6 90.5997 243.1 87.0998 242.6 83.4998Z" fill="#5A7F11"/>
<path d="M200.3 159.2C208.1 159.3 215.9 159.3 223.7 158.7C233.3 158 242.9 156.4 252.3 154.6C251.8 151 251.3 147.4 250.8 143.8C240.6 145.8 230.3 147.4 219.8 148.1C212.3 148.6 204.2 147.9 196.4 148C196 151.7 195.7 155.5 195.3 159.2C196.9 159.1 198.6 159.1 200.3 159.2Z" fill="#5A7F11"/>
<path d="M261.7 212.6C261.1 209.1 260.5 205.5 259.9 202C249.3 203.8 238.9 206.8 228.5 209.6C216.1 212.9 202.8 216.5 189.8 215.6C189.7 218.2 189.5 220.8 189.4 223.3C189.4 224.3 189.4 225.3 189.3 226.3C214.1 227.8 237.5 216.6 261.7 212.6Z" fill="#5A7F11"/>
<path d="M270.6 286.6C270.4 283.1 270.2 279.5 269.9 276C258.9 276.9 248 279.8 237.2 281.9C223 284.7 208.4 285.2 193.9 285.2C194.4 288.8 194.8 292.4 195.3 296C208.3 295.8 221.3 295.3 234.2 293.4C246.1 291.6 258.4 287.5 270.6 286.6Z" fill="#5A7F11"/>
<path d="M272 359.1C272 355.5 272.1 351.9 272.1 348.2C259.9 349 248.1 352 236.3 354.8C224.6 357.6 212.4 360.3 200.4 358.6C200.6 362.2 200.8 365.9 201.1 369.5C225.1 372 248.1 360.7 272 359.1Z" fill="#5A7F11"/>
<path d="M259.1 412C262.4 411.8 266.8 411.4 270.4 411.5C270.5 407.9 270.7 404.2 270.8 400.6C266.8 400.5 262.8 400.9 259 401.1C248.9 401.8 238.9 403.1 228.9 404.8C220.9 406.1 213 407.6 205.2 409.7C205.7 413.3 206.3 416.9 206.9 420.5C215.1 418.2 223.5 416.6 231.9 415.2C240.9 413.8 250 412.7 259.1 412Z" fill="#5A7F11"/>
<path d="M267.8 469.5C250.1 472.1 232.5 480.1 214.8 480.1C215.1 483.6 215.4 487.2 215.7 490.7C233.1 490.1 249.9 482.9 267.3 480.4C267.4 476.7 267.6 473.1 267.8 469.5Z" fill="#5A7F11"/>
<path d="M222 384.3C216.6 352.1 210.2 320.3 202.9 288.4C195.5 256.4 188.1 224.3 183.6 191.7C180 165.9 178.7 139.7 181.4 113.8C182.1 107.3 172.7 107.1 170.7 112.4C125.3 232.6 125.5 365.2 153.6 489.4C161.9 526 172.8 562.1 185.8 597.3C187.2 601.2 193.6 603.3 195.7 598.6C196.1 597.8 196.4 597 196.7 596.2C210.1 593.1 223.8 594.8 237.3 596.7C240.6 597.2 244.3 595.3 244.2 591.5C242.4 522 233.5 452.9 222 384.3Z" fill="#8BBE24"/>
<path d="M180.3 156C178.2 156.5 176.1 157 174.1 157.6C167.9 159.2 161.4 161 154.8 162C153.8 165.7 152.8 169.5 151.9 173.2C161.7 172.2 171.3 169.5 181 167C180.7 163.3 180.5 159.6 180.3 156Z" fill="#699F13"/>
<path d="M185.4 203.4C171.5 206.2 157.7 210.2 143.7 211.9C143.1 215.6 142.4 219.3 141.9 223C157.2 221.4 172.1 216.8 187.2 213.9C186.5 210.4 185.9 206.9 185.4 203.4Z" fill="#699F13"/>
<path d="M198.8 270.2C177.6 273 156.7 277.8 135.6 281.4C135.4 285 135.2 288.7 135 292.3C157.1 288.5 179 283.5 201.2 280.7C200.4 277.2 199.6 273.7 198.8 270.2Z" fill="#699F13"/>
<path d="M215 345.4C214.3 341.8 213.6 338.3 212.9 334.8C196.1 335.8 179.4 338.3 163 341.8C155.9 343.3 149.2 345.6 142.3 347.8C139.9 348.6 137.4 349.3 135 349.9C135.2 353.6 135.3 357.3 135.5 361C143 359.3 150.3 356.5 157.7 354.2C175.8 348.7 195.7 346.2 215 345.4Z" fill="#699F13"/>
<path d="M224.8 401.6C196.2 402.4 168.6 411.3 140.4 414.5C140.9 418.1 141.3 421.6 141.9 425.2C170.2 421.8 197.9 412.9 226.6 412.4C226 408.8 225.4 405.2 224.8 401.6Z" fill="#699F13"/>
<path d="M233.9 464.1C233.4 460 232.8 456 232.3 451.9C216.3 447.5 199.3 454.6 184.7 461.7C175 466.4 165.6 471.8 155.5 475.8C154.1 476.4 152.6 476.9 151.1 477.4C151.9 481 152.6 484.6 153.5 488.2C163.1 485.2 172.4 480.1 180.7 475.9C195.9 468.2 216.8 455.5 233.9 464.1Z" fill="#699F13"/>
<path d="M241.4 536C241.1 532.4 240.8 528.8 240.5 525.2C227.9 525 215.3 524.7 202.8 526.6C190.2 528.5 178.2 533.4 165.7 535.9C166.7 539.3 167.7 542.8 168.7 546.2C179.1 543.9 189.3 540.3 199.8 538.1C213.4 535.1 227.5 535.7 241.4 536Z" fill="#699F13"/>
<path d="M325.5 597.2C324.7 601 328 603.4 331.3 603.6C345 604.1 358.7 604.9 371.4 610.3C371.6 611.1 371.8 612 372 612.8C373.3 617.8 379.9 616.9 382 613.3C401.1 580.9 418.2 547.4 432.8 512.8C482.4 395.6 506.1 265.1 482.6 138.8C481.6 133.2 472.3 131.8 471.9 138.3C470 164.3 464.1 189.9 456 214.6C445.8 245.9 432.8 276.1 419.9 306.4C407.1 336.4 395.2 366.7 384.2 397.4C360.7 462.7 339.8 529.1 325.5 597.2Z" fill="#8BBE24"/>
<path d="M465.6 179.9C467.6 180.8 469.5 181.7 471.4 182.5C477.3 185.1 483.3 188.1 489.6 190.2C489.9 194.1 490.2 197.9 490.5 201.8C481.1 199.1 472.1 194.7 463 190.6C463.9 187 464.8 183.5 465.6 179.9Z" fill="#699F13"/>
<path d="M452.2 225.7C465.4 230.9 478.2 237.3 491.7 241.4C491.7 245.1 491.6 248.9 491.6 252.6C476.8 248.4 463 241.2 448.6 235.7C449.8 232.4 451 229 452.2 225.7Z" fill="#699F13"/>
<path d="M427.2 289C447.6 295.5 467.3 303.9 487.5 311.2C487.1 314.8 486.6 318.5 486.1 322.1C465 314.5 444.4 305.6 423 299C424.4 295.7 425.8 292.4 427.2 289Z" fill="#699F13"/>
<path d="M398 360.2C399.3 356.8 400.6 353.5 401.9 350.1C418.2 354.1 434.2 359.4 449.8 365.8C456.5 368.6 462.7 372 469.1 375.4C471.4 376.6 473.6 377.7 475.9 378.8C475.1 382.4 474.3 386 473.4 389.6C466.3 386.6 459.6 382.5 452.8 379C435.9 370.4 416.8 364.4 398 360.2Z" fill="#699F13"/>
<path d="M378.3 413.7C406.3 419.6 431.9 433.2 459.1 441.4C458 444.8 456.9 448.2 455.8 451.7C428.5 443.4 402.9 429.7 374.7 424.1C375.9 420.6 377.1 417.2 378.3 413.7Z" fill="#699F13"/>
<path d="M358.3 473.7C359.5 469.8 360.8 465.9 362 462C378.5 460.4 394 470.5 407.1 480.1C415.8 486.5 424.2 493.4 433.4 499.1C434.7 499.9 436 500.7 437.4 501.4C436 504.8 434.6 508.2 433.2 511.6C424.3 506.9 416.1 500.3 408.6 494.7C395.1 484.4 376.7 468.2 358.3 473.7Z" fill="#699F13"/>
<path d="M338.3 543.1C339.2 539.6 340.1 536.1 341.1 532.6C353.5 534.6 366 536.6 378 540.6C390.1 544.7 401 551.6 412.8 556.3C411.2 559.5 409.6 562.7 408 565.9C398.1 561.8 388.8 556.5 378.8 552.4C366 547.2 352 545.2 338.3 543.1Z" fill="#699F13"/>
<path d="M326.2 169.5C324.9 154.1 323.1 138.7 320.9 123.3C320.4 119.4 314.2 117.9 311.8 120.9C278.5 161.9 258.6 212.5 245.8 263.3C233 313.8 228.2 365.4 230.1 417.3C231.2 448 231.4 478.7 234.1 509.4C236.6 537.9 240.1 569 254.5 594.3C255.6 596.3 257.4 597 259.1 596.9C259.9 598.2 261.4 599.2 263.5 599.1C271.5 598.9 279.4 597.1 287.4 596.9C289.7 596.9 292.2 595.3 292.6 592.9C318.2 453.5 338.5 311.5 326.2 169.5Z" fill="#8BBE24"/>
<path d="M305.5 519.2C281.7 516 258 512.3 234.6 507C234.4 506.9 234.1 506.9 233.9 506.9C234 507.7 234 508.5 234.1 509.4C234.4 512.3 234.6 515.2 234.9 518.2C257.6 523.2 280.7 526.8 303.7 529.9C304.4 526.3 305 522.7 305.5 519.2Z" fill="#699F13"/>
<path d="M310.3 488.6C310.9 484.9 311.4 481.2 311.9 477.5C286.3 467.2 258.5 460.9 231.3 457.4C231.4 461 231.5 464.7 231.7 468.3C246.3 470.3 260.7 473.4 274.9 477.1C287 480.3 298.9 484 310.3 488.6Z" fill="#699F13"/>
<path d="M320.4 413.3C291.2 400.7 259.8 394.6 230 383.6C229.9 387.4 229.9 391.2 229.9 395.1C259.4 405.7 290.5 411.6 319.2 424.6C319.5 420.7 320 417 320.4 413.3Z" fill="#699F13"/>
<path d="M323.8 374.7C324 374.8 324.1 374.9 324.3 375C324.7 370.8 325 366.6 325.4 362.5C311.5 352.8 295.6 346 279.7 340.5C265.1 335.5 249.2 331.5 233.5 330.9C233.1 334.5 232.7 338.1 232.4 341.8C247 342.3 261.5 346 275.3 350.5C292.4 356.1 309.4 363.8 323.8 374.7Z" fill="#699F13"/>
<path d="M329.5 286.2C302.4 275.6 272.8 275 244.9 267.4C244 270.9 243.2 274.4 242.4 278C271.1 285.6 301.8 285.7 329.2 297.8C329.3 293.9 329.4 290 329.5 286.2Z" fill="#699F13"/>
<path d="M329.8 242.2C329.7 238.5 329.7 234.9 329.6 231.2C306.7 225.9 285.4 214 262.3 210.4C261 213.9 259.7 217.4 258.5 220.9C270.1 222.4 281.4 226.3 292.5 230.4C304.8 234.8 317 239.4 329.8 242.2Z" fill="#699F13"/>
<path d="M326.4 171.7C326.3 171 326.3 170.2 326.2 169.5C326.1 167.8 325.9 166.1 325.7 164.3C325.2 163.7 324.5 163.2 323.7 162.9C312.8 158.4 302.1 153.6 291 150.6C289 153.8 287.2 157 285.3 160.3C297.5 163.1 309.1 168.5 320.8 173.4C323.3 174.4 325.3 173.4 326.4 171.7Z" fill="#699F13"/>
<path d="M42.6999 207.5C35.0999 194 27.1 180.7 18.8 167.6C16.7 164.3 10.4999 165.5 9.59993 169.2C-3.80007 220.3 -0.900017 274.6 8.39998 326.1C17.7 377.3 34.6 426.3 57.8 472.8C71.5 500.3 84.4 528.2 99.5 555C113.5 579.9 129.6 606.7 153.2 623.8C155.1 625.1 157 625.1 158.5 624.3C159.8 625.2 161.5 625.4 163.4 624.5C170.6 621 177 616.1 184.2 612.6C186.2 611.6 187.9 609.2 187.3 606.8C152.9 469.4 112.7 331.7 42.6999 207.5Z" fill="#8BBE24"/>
<path d="M168.5 534.5C145.6 541.4 122.4 547.8 98.8998 552.7C98.6998 552.8 98.3997 552.8 98.1997 552.9C98.5997 553.6 98.9998 554.4 99.3998 555.1C100.8 557.6 102.3 560.2 103.8 562.8C126.6 557.9 149 551.7 171.3 544.9C170.4 541.4 169.5 538 168.5 534.5Z" fill="#699F13"/>
<path d="M160.3 504.6C159.3 501 158.2 497.4 157.2 493.8C129.6 495 101.7 500.7 75.5 508.9C77.1 512.2 78.7 515.4 80.4 518.7C94.5 514.4 108.9 511.3 123.4 508.9C135.6 506.8 147.9 505.2 160.3 504.6Z" fill="#699F13"/>
<path d="M138.2 431.9C106.4 432.6 75.2996 440 43.5996 442.2C45.0996 445.7 46.5996 449.2 48.1996 452.7C79.3996 450.2 110.2 442.6 141.7 442.6C140.6 439.1 139.4 435.5 138.2 431.9Z" fill="#699F13"/>
<path d="M125.4 395.4C125.6 395.4 125.8 395.5 126 395.5C124.6 391.5 123.2 387.6 121.8 383.6C105.2 380.5 87.7996 380.9 71.0996 382.5C55.6996 384 39.5996 386.9 25.0996 392.8C26.1996 396.3 27.3996 399.7 28.4996 403.2C41.9996 397.6 56.6996 395 71.0996 393.4C89.0996 391.4 107.8 391.4 125.4 395.4Z" fill="#699F13"/>
<path d="M93.9996 312.4C64.9996 314 37.6996 325.6 9.09961 330.3C9.79961 333.9 10.4996 337.4 11.1996 340.9C40.4996 335.9 68.4997 323.3 98.3997 323C96.9997 319.5 95.4996 316 93.9996 312.4Z" fill="#699F13"/>
<path d="M75.9999 272.2C74.3999 268.9 72.8999 265.6 71.2999 262.3C48.2999 266.9 23.8999 264.9 1.3999 271.2C1.6999 274.9 1.89993 278.6 2.29993 282.3C13.4999 278.8 25.3999 277.7 37.0999 276.9C50.1999 275.9 63.2999 275 75.9999 272.2Z" fill="#699F13"/>
<path d="M43.7997 209.5C43.3997 208.9 43.0996 208.2 42.6996 207.6C41.8996 206.1 40.9996 204.6 40.0996 203.1C39.3996 202.8 38.5996 202.6 37.6996 202.7C25.8996 203.1 14.1997 203.1 2.79968 205C2.29968 208.7 1.99961 212.4 1.59961 216.2C13.8996 213.7 26.5997 213.9 39.2997 213.4C42.0997 213.2 43.4997 211.5 43.7997 209.5Z" fill="#699F13"/>
<path d="M382.5 936.5H148.4L71.7998 633.8H453.8L382.5 936.5Z" fill="#788490"/>
<path d="M474 594.5H46.2998V633.8H474V594.5Z" fill="#919DA8"/>
<path d="M262.8 633.8H71.7998L148.4 936.5H262.8V633.8Z" fill="#58646D"/>
<path d="M262.8 594.5H46.2998V633.8H262.8V594.5Z" fill="#788490"/>
<path d="M382.5 941H148.4L71.7998 900.2H453.8L382.5 941Z" fill="#58646D"/>
<path d="M262.8 900.2H71.7998L148.4 941H262.8V900.2Z" fill="#4A575E"/>
</svg>
