<svg width="466" height="872" viewBox="0 0 466 872" fill="none" xmlns="http://www.w3.org/2000/svg">
<path d="M365.9 2.89986C321.7 7.49986 275.1 22.8998 247.2 59.5998C236.8 73.2998 229.8 89.1999 225.9 105.9C224.2 113.3 222.7 121 223 128.6C223.2 134.4 223.8 140.3 224.3 146.1C225.6 160.7 227.1 175.2 228.8 189.8C229.4 195.2 230 200.5 230.7 205.9C231 208.2 230.8 212.1 232.3 214.1C234.7 217.5 239.3 217.7 241.7 214.1C242.1 213.6 242.2 212.9 242.3 212.3C243.3 212.1 244.3 211.6 245.2 210.7C279.9 173.4 332.9 164.9 376.6 142.4C399.9 130.4 418.5 113.7 434.2 92.7999C445.7 77.4999 457 58.8998 457.4 39.1998C458.2 -6.00022 394.9 -0.100144 365.9 2.89986Z" fill="#526B22"/>
<path d="M345.8 88.7998C345.4 86.7998 344 84.7997 341.9 84.4997C316.6 80.7997 291.5 85.2997 272.2 102.9C253.1 120.4 243.3 146.4 237.3 171C231.2 196 228.5 221.8 227.3 247.6C226.4 252.8 225.5 258.1 224.8 263.3C213.2 344.2 220.9 426.5 227.8 507.4C228.9 520.1 230 532.9 230.8 545.6C231 548.5 233 550.2 235.3 550.7C236.3 555.9 244.6 557.5 245.8 551.4C250.1 529.8 248.5 506.9 247.4 485C245.8 452.6 243.2 420.3 241.1 388C238.8 351.9 237 315.8 237.3 279.6C237.4 268.8 237.6 258.1 238.1 247.3C248 193.7 269.6 141.3 317 112.5C326.2 106.9 336 102.6 346.2 99.1997C352 97.2997 350.9 90.1998 345.8 88.7998Z" fill="#60802A"/>
<path d="M463.1 407.8C458.5 396.6 449.3 388.2 439.5 381.4C403.8 356.8 355.3 371.6 319.1 387.4C311.4 390.7 303.9 394.3 297.1 399.2C290 404.3 244.9 428.1 240.8 444.3C240.7 444.3 236.7 456.5 243.5 454.8C243.6 454.8 243.7 454.7 243.9 454.7C246 455 248.4 454.2 249.8 452.4C255.3 449.5 260.3 445.1 264.9 441.2C270.9 436.2 274.8 429.3 282.4 425.7C289.9 422.1 297.2 423.9 302.7 424.2C332.9 425.7 360.5 440.6 389.9 446.3C403.4 448.9 416.7 448.6 430.3 447.6C440.5 446.8 451.6 445.4 459.2 438C466.9 430.3 467 417.3 463.1 407.8Z" fill="#526B22"/>
<path d="M229 434.4C226 427.5 221.9 421.8 217.2 417C206.8 395.4 197.3 373.9 180.7 356.1C170.8 345.5 159.2 335.4 147.3 327.2C137 320 125.4 316.3 113 318.6C101.6 320.7 90.3 326.8 81.3 333.9C72.5 340.9 67.4999 349.4 65.3999 360.5C61.8999 379 72.5 393.5 89 400.6C108.9 409.2 130.2 408.5 151.4 408C164.9 407.7 178.5 408.5 191.4 412.9C197.9 415.1 203.6 418.7 208.3 423.2C209.4 425.5 218.7 437.4 219.8 439.9C222.5 446.2 231.8 440.7 229 434.4Z" fill="#526B22"/>
<path d="M444.1 421.5C441.3 420.3 439.1 417.5 436.5 415.7C433.4 413.5 429.2 412.8 425.8 411.3C417.8 407.8 410.4 403.7 401.7 402.2C383.1 399 365.8 393.2 346.7 394.5C329.1 395.7 311.8 400.3 295.6 407.3C287.6 410.8 280.4 415.4 272.9 419.7C265.1 424.1 257.3 428.6 251.1 435.1C246.2 440.1 253.9 447.8 258.8 442.8C264.4 437 271.4 433 278.4 429.1C285.4 425.1 292.1 420.9 299.4 417.5C314.1 410.6 330.5 406.7 346.7 405.4C364 404 379.9 409.3 396.8 412.4C405.3 414 412.5 417.2 420.4 420.8C423.9 422.4 427.7 423.4 431.1 425.2C434 426.7 435.6 429.7 438.7 431C445 433.6 450.5 424.3 444.1 421.5Z" fill="#60802A"/>
<path d="M6.90006 272.4C14.6001 279.8 25.6001 281.3 35.8001 282C49.5001 283 62.7 283.4 76.2 280.7C105.6 275 133.2 260 163.4 258.6C168.9 258.3 176.2 256.5 183.7 260.1C191.2 263.7 195.2 270.6 201.2 275.6C205.8 279.4 210.7 283.9 216.3 286.8C217.6 288.7 220.1 289.5 222.2 289.1C222.3 289.1 222.4 289.2 222.6 289.2C229.4 290.9 225.4 278.7 225.3 278.7C221.2 262.5 176.1 238.7 169 233.6C162.2 228.7 154.7 225.2 147 221.8C110.7 206 62.3001 191.3 26.6001 215.8C16.8001 222.5 7.60003 231 3.00003 242.2C-0.999968 251.8 -0.999943 264.8 6.90006 272.4Z" fill="#526B22"/>
<path d="M21.8001 256C24.6001 254.8 26.7999 252 29.3999 250.2C32.4999 248 36.7001 247.3 40.1001 245.8C48.1001 242.3 55.5 238.2 64.2 236.7C82.8 233.5 100.1 227.7 119.2 229C136.8 230.2 154.1 234.8 170.3 241.8C178.3 245.3 185.5 249.9 193 254.2C200.8 258.6 208.6 263.1 214.8 269.6C219.7 274.6 212 282.3 207.1 277.3C201.5 271.5 194.5 267.5 187.5 263.6C180.5 259.6 173.8 255.4 166.5 252C151.8 245.1 135.4 241.2 119.2 239.9C101.9 238.5 86.0001 243.8 69.1001 246.9C60.6001 248.5 53.4 251.7 45.5 255.3C42 256.9 38.2001 257.9 34.8001 259.7C31.9001 261.2 30.3 264.2 27.2 265.5C21 268.1 15.4001 258.8 21.8001 256Z" fill="#60802A"/>
<path d="M194.5 395.2C181 382.7 163.9 374.8 148 365.8C140.3 361.4 132.3 358 123.9 355.4C115.7 352.9 108.4 347.8 99.4999 348.6C92.5999 349.2 92.4999 360.1 99.4999 359.5C106.5 358.9 113.2 362.9 119.6 365.4C127.5 368.4 135.1 371.1 142.6 375.2C157.6 383.6 174.2 391.1 186.9 402.9C191.9 407.6 199.6 400 194.5 395.2Z" fill="#60802A"/>
<path d="M239.4 321.6C240.5 319.1 249.8 307.2 250.9 304.9C255.6 300.4 261.2 296.9 267.8 294.6C280.7 290.2 294.3 289.4 307.8 289.7C329 290.2 350.3 290.9 370.2 282.3C386.7 275.1 397.3 260.6 393.8 242.2C391.7 231.2 386.7 222.6 377.9 215.6C368.9 208.5 357.6 202.4 346.2 200.3C333.7 198 322.2 201.7 311.9 208.9C300 217.2 288.4 227.3 278.5 237.8C261.8 255.6 252.3 277.2 242 298.7C237.2 303.5 233.2 309.2 230.2 316.1C227.3 322.5 236.6 328 239.4 321.6Z" fill="#526B22"/>
<path d="M264.6 277C278.1 264.5 295.2 256.6 311.1 247.6C318.8 243.2 326.8 239.8 335.2 237.2C343.4 234.7 350.7 229.6 359.6 230.4C366.5 231 366.6 241.9 359.6 241.3C352.6 240.7 345.9 244.7 339.5 247.2C331.6 250.2 324 252.9 316.5 257C301.5 265.4 284.9 272.9 272.2 284.7C267.2 289.4 259.5 281.8 264.6 277Z" fill="#60802A"/>
<path d="M363.8 867.4H129.8L53.2 564.8H435.1L363.8 867.4Z" fill="#69C3B6"/>
<path d="M455.3 525.4H27.6001V564.7H455.3V525.4Z" fill="#85DDCC"/>
<path d="M244.1 564.8H53.2L129.8 867.4H244.1V564.8Z" fill="#519E91"/>
<path d="M244.1 525.4H27.6001V564.7H244.1V525.4Z" fill="#69C3B6"/>
<path d="M363.8 872H129.8L53.2 831.1H435.1L363.8 872Z" fill="#519E91"/>
<path d="M244.1 831.1H53.2L129.8 872H244.1V831.1Z" fill="#418276"/>
</svg>
