<svg width="560" height="978" viewBox="0 0 560 978" fill="none" xmlns="http://www.w3.org/2000/svg">
<path d="M397.9 254.001C416.9 203.601 442.1 155.401 472.2 110.801C475.5 105.801 467.7 101.501 464 105.301C429.3 139.801 407.9 186.201 392.2 231.801C386.1 249.601 380.9 267.701 376.4 286.001C369.1 309.201 363 333.001 359 357.001C356 374.801 354.5 392.701 353.3 410.701C351.9 420.801 350.5 430.801 349.2 440.901C346.7 459.901 343.9 478.901 343 498.101C340.4 511.201 337.4 524.301 334.7 537.401C329.7 561.401 326.8 586.001 330.6 610.201C330.3 611.601 330.6 612.901 331.2 614.001C331.6 615.901 331.9 617.801 332.4 619.701C333.9 626.001 343.3 622.601 341.8 616.401C341.4 614.701 341.1 613.101 340.7 611.401C350.5 586.401 351.6 559.201 352.1 532.601C352.3 522.301 352.3 512.001 352.7 501.701C353.8 496.301 354.9 490.901 355.9 485.501C358.6 469.701 360.1 453.601 361.3 437.601C362 428.701 362.6 419.701 363.3 410.801C366.1 391.101 369.3 371.401 373.1 351.801C377.1 331.201 380.6 310.701 385.5 290.301C389.2 278.001 393.4 266.001 397.9 254.001ZM341.8 553.901C341.3 563.301 340.5 572.601 338.8 581.701C339.1 572.401 340.3 563.101 341.8 553.901Z" fill="#523620"/>
<path d="M532.4 38.7007C532.9 34.6007 529.6 32.2007 525.8 33.0007C487.4 41.2007 456.8 74.1007 461.5 114.801C461.5 114.901 461.5 114.901 461.5 115.001C456.7 116.301 455.6 124.201 461.4 124.601C483.5 126.101 502.8 119.201 515.2 100.301C527 82.5007 529.8 59.4007 532.4 38.7007Z" fill="#526B22"/>
<path d="M559 245.701C560.5 229.301 556.2 213.901 544.7 201.901C534.1 190.801 518.6 184.901 503.7 182.301C487.9 179.501 471.4 180.401 455.9 184.501C448.9 186.401 442 189.201 435.8 193.001C431.9 195.301 428.3 197.101 423.6 197.601C423.5 197.601 423.5 197.601 423.5 197.601C422.1 195.401 419 194.501 416.7 195.601C415.1 190.901 411.8 186.601 409.1 183.001C403 175.201 395.2 168.301 386 164.401C408 115.001 335.2 89.5009 298 85.5009C294.7 85.1009 292 87.3009 292.1 90.8009C293.3 137.001 334.9 173.201 380.1 172.801C380.2 172.801 380.2 172.801 380.3 172.801C380.4 172.801 380.4 172.901 380.5 172.901C388.2 176.001 394.7 181.301 400.1 187.601C402.5 190.501 408.4 197.801 408 200.901C407.4 206.201 414 208.401 416.7 205.401C418.4 206.801 420.7 207.601 423 207.701C427.2 207.801 434 206.701 437.4 204.201C440 202.301 442.8 200.601 445.7 199.101C447 198.501 448.2 197.901 449.5 197.401C451.7 208.101 456.2 217.601 463.8 225.601C471.1 233.301 480.9 238.001 490.8 241.401C510.9 248.201 532.4 247.701 553.3 249.801C555.6 249.901 558.7 248.601 559 245.701Z" fill="#526B22"/>
<path d="M543.9 350.301C534.4 324.501 513 303.201 487.1 293.901C462.6 285.101 436.5 289.701 418.4 307.801L376 299.501C369.8 296.001 363.7 292.501 357.5 289.001C358.1 286.801 357.5 284.401 355.7 283.301C355.2 281.801 353.7 280.401 352 279.901C352.9 275.101 353.5 270.201 353.2 265.301C352.8 259.801 350.1 254.501 347.8 249.601C345 243.701 341.6 238.001 337.8 232.701C323.3 212.601 301.9 198.901 284.8 181.301C281.4 177.801 276.7 181.501 276.5 185.401C275.5 211.901 272.7 241.901 283.6 266.801C288.3 277.601 296.4 286.301 307.3 291.001C319.5 296.201 333.3 296.001 346.4 294.001C346.7 294.201 347 294.401 347.3 294.601C353.8 298.301 360.3 302.001 366.9 305.701C367.4 307.001 368.6 308.101 370.4 308.501L372.7 309.001C373.3 309.301 374 309.401 374.6 309.401L413.2 317.001C414.2 320.401 418.8 322.701 421.7 319.201C421.9 319.001 422 318.801 422.2 318.601C421.9 327.801 424.5 336.601 431.3 343.701C439.4 352.201 452.1 355.601 463.4 357.501C476.7 359.701 490.4 359.801 503.8 359.501C513.9 359.301 525.6 358.401 534.9 359.101C537.1 359.301 538.8 358.201 539.8 356.601C542.5 356.401 545.2 353.801 543.9 350.301Z" fill="#526B22"/>
<path d="M509.1 395.901C465.2 387.301 397.8 382.101 383.2 435.901C382.8 436.501 382.6 437.301 382.6 438.101C374.1 443.201 363.5 446.701 353.8 448.101C347.5 449.001 348.2 459.001 354.6 458.101C363.5 456.801 372.2 453.901 380.5 450.301C382.2 449.501 384.4 448.701 386.4 447.701C414.9 502.901 486.3 431.401 511.9 404.101C514.5 401.401 512.8 396.701 509.1 395.901Z" fill="#526B22"/>
<path d="M355.7 427.701C345.8 420.101 335.3 413.201 325.3 405.801C326.1 405.101 326.8 404.201 327.2 402.801C328.2 399.401 327.4 394.901 327.2 391.501C326.2 379.101 321.6 368.301 314.7 357.901C298.6 333.501 268.9 325.001 248.2 305.601C243.4 301.101 237.1 308.501 241.6 313.101C241.8 313.301 243.8 316.101 244.1 316.701C245.2 319.001 246 321.401 246.7 323.901C248.3 329.501 249 335.201 249.7 341.001C251.3 354.601 252 368.301 254.1 381.801C255.9 393.401 258.7 405.701 266.8 414.701C275.2 423.901 288.3 423.201 299.1 419.301C304.9 417.201 310.4 414.201 315.6 411.001C326.6 419.301 338.2 426.801 349.1 435.201C354.1 439.101 360.8 431.601 355.7 427.701Z" fill="#526B22"/>
<path d="M536.2 529.801C502.1 514.001 457.7 510.901 428.2 537.101C428.3 535.401 427.5 533.601 425.6 532.601C398.3 517.801 367.7 533.201 340.7 540.801C328.9 530.001 315.4 521.001 301.4 513.101C301.9 509.501 298.5 505.701 294.9 507.401C295.3 507.001 295.7 506.701 296 506.301C299.4 501.701 295.7 497.901 292.9 494.101C286.7 485.501 279.5 477.601 271.8 470.301C256.3 455.801 237.8 444.601 218.1 436.801C214 435.201 209.9 438.501 211.1 442.901C217.4 465.801 223.9 489.901 237.8 509.501C244.2 518.501 252.8 526.201 263.9 528.501C274.6 530.701 285.1 526.401 294 520.401C309.9 529.301 325.2 539.501 338.2 552.301C341.3 555.401 345.3 552.901 346.2 549.601C369.7 542.601 397.2 528.801 420.8 541.401C419.9 543.201 420 545.501 421.8 547.301C439.8 565.001 463.5 580.701 489.6 581.201C500.5 581.401 511.3 577.601 519.5 570.501C529.9 561.401 535.5 548.501 538.8 535.301C539.4 533.201 538.1 530.701 536.2 529.801Z" fill="#526B22"/>
<path d="M517.3 63.8006C513.8 63.9006 510.4 64.8006 507.1 65.8006C511 61.2006 515.3 56.9007 520.3 53.2007C525.5 49.4007 519.9 41.0006 514.7 44.9006C505.7 51.6006 498.5 59.9006 492.5 69.0006C491.8 67.0006 491 65.0006 489.8 63.2006C488.3 60.9006 485.1 60.3006 482.9 61.8006C480.6 63.3006 480.1 66.4006 481.5 68.7006C481.7 68.9006 481.8 69.2006 481.9 69.4006C481.9 69.5006 482 69.5006 482 69.6006C482.4 70.4006 482.7 71.3006 483 72.1006C483.6 73.7006 484 75.4006 484.5 77.1006C484.8 78.1006 485.4 78.8006 486.1 79.4006C483.7 83.8006 481.4 88.2006 479.2 92.7006C477.9 89.4006 476.9 86.0006 476.4 82.4006C475.5 76.1006 465.5 76.7006 466.4 83.2006C467.1 88.1006 468.4 92.8006 470.2 97.4006C471.2 99.8006 473.3 100.701 475.4 100.501C474.1 103.201 472.9 105.901 471.6 108.701C468.9 114.501 477.8 119.001 480.6 113.201C481.9 110.401 483.2 107.601 484.5 104.801C488 104.501 491.5 103.701 495 104.801C497.6 105.601 500.4 103.301 500.9 100.901C501.5 98.0006 499.6 95.8006 497 95.0006C494.5 94.2006 492 94.2006 489.5 94.4006C492.3 88.7006 495.3 83.1006 498.6 77.8006C505.2 77.4006 511.4 74.0006 518.1 73.8006C524.5 73.6006 523.8 63.6006 517.3 63.8006Z" fill="#325B15"/>
<path d="M546.9 232.601C543 226.501 538 221.201 532.3 216.501C535.4 216.601 538.5 216.901 541.6 217.001C548 217.201 547.2 207.201 540.8 207.001C533.5 206.801 526.6 206.101 519.5 207.601C516.7 206.001 513.9 204.501 511.1 203.101C513.1 202.801 515.1 202.701 517.1 202.901C523.5 203.501 525.4 193.701 519 193.101C510.6 192.401 503.3 195.201 495.4 196.801C494.1 196.401 492.7 196.001 491.3 195.601C497.7 195.601 496.9 185.601 490.5 185.601C481.8 185.601 472.5 188.001 465.6 193.601C465.5 193.701 465.4 193.701 465.4 193.801C463.9 194.001 462.5 194.301 461 194.601C455.2 196.001 457.6 204.101 462.9 204.201C462.9 204.601 463 205.001 463.2 205.401C465.3 210.401 467.4 215.301 470 220.001C471.3 222.401 474.8 222.801 476.9 221.401C479.3 219.801 479.6 216.901 478.3 214.501C476.3 210.801 474.7 207.001 473.1 203.101C476.3 203.101 479.6 203.401 482.8 203.901C482.2 205.001 482 206.301 482.5 207.801C484.6 214.101 488.4 219.701 489.8 226.201C490.4 228.901 493.8 230.101 496.2 229.301C499 228.301 499.8 225.601 499.3 222.901C498.1 217.301 495.3 212.401 493.1 207.201C493.6 207.101 494.1 207.001 494.6 206.901C498.2 208.201 501.8 209.601 505.1 211.201C506.7 212.001 508.4 212.801 510 213.601C509.3 214.201 508.8 215.201 508.6 216.401C508.1 219.801 508.6 222.901 509.6 226.101C510.6 229.201 512.2 232.101 511.7 235.401C510.7 241.801 520.5 243.701 521.5 237.301C522 233.801 521.6 230.501 520.6 227.101C519.8 224.301 518.1 221.501 518.4 218.601C526.3 223.801 533.5 230.301 538.5 238.101C542.1 243.601 550.4 238.001 546.9 232.601Z" fill="#325B15"/>
<path d="M381.7 157.701C378.3 150.501 373.6 144.201 368.1 138.501C368.2 138.301 368.3 138.101 368.4 137.901C370.2 133.901 370.7 128.601 373.8 125.201C378.1 120.401 370.6 113.801 366.3 118.601C363 122.201 362 126.801 360.4 131.201C356.2 127.701 351.6 124.401 346.9 121.301C348.6 117.301 348.9 113.101 348.3 108.801C347.5 102.401 337.6 103.101 338.3 109.601C338.6 111.901 338.7 113.901 338.2 116.001C335.8 114.601 333.3 113.201 330.9 111.801C331.2 111.101 331.3 110.401 331.2 109.601C330.7 106.701 330.6 103.701 331.6 100.801C332.5 98.2007 332 95.4008 329.4 94.1008C327.2 93.0008 323.6 93.8007 322.7 96.3007C321.6 99.5007 320.9 102.801 321 106.201C319.4 105.301 317.9 104.501 316.4 103.601C317.3 97.5008 307.8 95.7008 306.5 102.001L305.9 105.301C305.5 107.601 306.6 109.601 308.6 110.701C311.4 112.301 314.2 113.801 317 115.401C316 115.501 315 115.601 314 115.801C311.2 116.201 306.6 116.301 304.7 118.801C301 123.501 307.1 129.501 311.2 126.401C311.3 126.401 311.3 126.401 311.4 126.301C311.5 126.301 311.7 126.301 312 126.201C313.4 125.901 314.9 125.701 316.4 125.601C319.7 125.201 323 124.901 326.3 125.101C327.9 125.201 329.2 124.201 330.1 122.901C332.4 124.301 334.7 125.701 337 127.101C332.3 128.801 327.3 129.901 323.2 133.001C318.1 136.901 323.6 145.201 328.8 141.301C332.9 138.101 338.5 137.501 343.2 135.401C344.5 134.801 345.3 133.901 345.8 132.901C349.7 135.601 353.6 138.601 357.3 141.801C355.9 142.101 354.6 142.401 353.2 142.701C349 143.701 344.1 145.201 340.7 147.901C335.6 151.801 341.2 160.101 346.3 156.201C348.6 154.401 351.7 153.601 354.5 152.701C357.6 151.801 361.5 150.601 364.8 151.101C365.4 151.201 365.9 151.201 366.4 151.101C368.9 154.201 371 157.501 372.7 161.001C375 166.701 384.5 163.501 381.7 157.701Z" fill="#325B15"/>
<path d="M341.4 274.601C340.5 274.201 339.6 273.601 338.7 273.001C335.8 271.201 333.2 268.901 330.6 266.701C329.9 266.101 329.2 265.501 328.4 264.901C328.4 264.801 328.5 264.701 328.5 264.601C331 258.001 332.6 250.901 336.6 245.001C340.2 239.701 332.7 233.101 329.1 238.401C325 244.501 322.9 251.101 320.4 257.801C317.9 255.501 315.4 253.101 313 250.601C310.3 247.901 308.2 245.301 306.2 242.401C306.3 242.201 306.4 242.001 306.4 241.801C309.1 234.901 310.1 227.601 311.5 220.401C312.7 214.101 302.9 212.101 301.7 218.501C300.9 222.501 300.4 226.701 299.5 230.701C294.4 220.501 290.4 209.301 290 197.901C289.8 191.501 279.8 192.201 280 198.701C280.5 212.901 286.1 226.401 292.5 238.901C292.6 239.201 292.8 239.401 292.9 239.601C289.9 239.001 286.9 238.501 284.1 237.401C281.6 236.401 278.7 237.001 277.4 239.601C276.3 241.901 277.1 245.301 279.6 246.301C283.6 247.901 287.7 248.701 291.9 249.601C294.5 250.101 296.4 248.801 297.2 246.901C300.2 251.401 303.6 255.401 307.7 259.501C308.2 260.001 308.7 260.501 309.2 261.001C308.2 261.201 307.1 261.301 306.1 261.501C303.5 261.901 300.3 262.601 297.7 261.701C295.1 260.801 292.3 263.201 291.8 265.601C291.2 268.501 293.2 270.601 295.7 271.501C301.9 273.501 310.2 271.001 316.4 269.901C317 269.801 317.6 269.601 318.1 269.301C321.4 272.301 324.9 275.101 328.4 277.901C332.2 280.801 340 287.701 345.1 283.701C349.8 280.301 345.9 273.401 341.4 274.601Z" fill="#325B15"/>
<path d="M527.8 332.6L517.3 330.5C515.9 330.2 514.7 330.5 513.8 331.1C507.6 326.4 499.7 323.3 492.5 320.6C495 320.8 497.5 321.2 500 321.7C506.3 322.9 508.3 313.1 501.9 311.9C494.5 310.5 486.8 309.8 479.6 312.3C478 312.8 477.1 313.9 476.6 315.1C468.7 312.6 460.6 310.7 452.4 310.2C457.4 307.1 464 306 469.6 306.9C475.9 308 477.9 298.2 471.5 297.1C460.8 295.3 447.8 298.6 440.7 307.2C439.7 308.3 439.4 309.6 439.5 310.7C436.5 311.2 433.5 311.9 430.5 312.9C424.4 315 427.7 324.4 433.8 322.3C434.5 322.1 435.1 321.9 435.8 321.7C435.8 322.3 435.8 323 436.1 323.6C439.4 333.4 446.6 339.5 454.7 345.4C459.9 349.2 466.5 341.7 461.3 337.9C454.6 333.1 448.2 328.4 445.5 320.3C445.5 320.2 445.4 320.1 445.4 320C454.5 319.4 463.9 321.3 472.7 324.1C471 325.2 469.9 327.2 470.9 329.7C473.5 336.3 476.6 342.7 480.9 348.3C484.8 353.4 493.1 347.8 489.2 342.7C485.5 337.8 482.7 332.4 480.4 326.7C486.7 329.1 493 331.4 499.1 334.3C499.3 334.4 499.6 334.5 499.8 334.6C499.2 335.2 498.7 336.1 498.4 337.2C497.4 342.5 496.7 348.2 500.2 352.7C501.9 354.9 504.8 355.7 507.1 354.1C509.2 352.7 510.1 349.3 508.5 347.2C506.8 345 507.6 342.2 508.1 339.5C510.3 341.1 512.1 343.1 513.1 345.5C515.5 351.4 525 348.2 522.5 342.2C522.4 342 522.3 341.8 522.3 341.7L525.6 342.3C532.2 343.7 534.1 333.9 527.8 332.6Z" fill="#325B15"/>
<path d="M307.7 397.501C306 396.301 304.5 394.801 303.2 393.201C304.3 392.501 305.1 391.301 305.6 389.901C307.3 384.701 309.5 379.701 311.8 374.801C314.5 369.001 305.6 364.501 302.8 370.301C300.8 374.701 298.9 379.101 297.2 383.701C296.3 381.901 295.5 380.101 294.7 378.301C294.7 376.801 294 375.201 292.8 374.201C292.4 373.401 292.1 372.601 291.7 371.901C292.8 371.201 293.6 370.001 294 368.601C295.6 364.001 296.2 359.001 298 354.401C300.3 348.401 291.4 343.901 289 349.901C287.5 353.701 286.7 357.601 285.6 361.501C283.5 358.401 281.2 355.301 279 352.201C279.4 351.601 279.7 351.001 279.9 350.101C280.6 346.601 281.1 343.101 281.1 339.501C281.1 336.801 278.3 334.701 275.7 334.901C272.8 335.101 271.1 337.501 271.1 340.301C271.1 340.401 271.1 340.501 271.1 340.601C269.4 337.701 267.8 334.601 266.5 331.401C264.2 325.401 254.7 328.701 257.1 334.701C259.2 340.001 261.9 344.901 265 349.601C262.6 349.601 260.3 349.701 257.9 349.801C251.5 350.101 252.2 360.101 258.7 359.801C263.2 359.601 267.7 359.401 272.2 360.001C275.1 364.101 278.1 368.201 280.7 372.501C280.8 372.701 280.9 372.901 281.1 373.101C276.6 373.301 272.1 373.501 267.5 373.401C261.1 373.401 261.8 383.301 268.3 383.401C274.2 383.401 280.2 383.101 286.1 383.001C287.6 386.401 289.2 389.801 291 393.001C285.9 393.901 280.7 394.201 275.7 395.301C273 395.901 271.8 399.301 272.6 401.701C273.6 404.501 276.3 405.301 279 404.801C285.1 403.501 291.3 403.301 297.4 401.901C298.5 403.001 299.7 404.101 301 405.101C306.2 408.801 312.9 401.301 307.7 397.501Z" fill="#325B15"/>
<path d="M484.5 405.001C478.8 406.901 472.8 407.601 466.8 408.601C468.9 406.801 470.9 404.901 472.8 402.901C477.4 398.301 469.8 391.701 465.3 396.301C462.1 399.501 458.9 402.501 454.9 404.801C452.6 406.101 452.2 409.301 453.4 411.501C449.3 412.601 445.2 414.001 441.1 415.401C439.4 416.001 437.7 416.601 436.1 417.301C438.6 413.701 441.1 410.101 444.2 406.901C448.7 402.201 441.1 395.601 436.7 400.301C431.7 405.501 428.1 411.801 423.8 417.501C422.4 419.301 422.5 421.301 423.3 422.901C419.4 424.801 415.5 426.801 411.8 428.901C414.7 422.501 417.4 416.101 421.7 410.601C425.7 405.501 418.2 398.901 414.2 404.001C407.6 412.301 404.2 422.201 399.5 431.501C398.6 433.301 398.8 435.001 399.7 436.201C397.9 437.401 396.2 438.501 394.4 439.801C389.1 443.501 394.7 451.801 400 448.101C401.1 447.401 402.2 446.601 403.2 445.901C404.1 447.001 405.5 447.701 407.4 447.401C414.9 446.301 420.8 452.401 426.8 456.001C432.4 459.301 436.8 450.301 431.3 447.001C426 443.901 421.2 440.001 415.6 438.201C418.8 436.401 422 434.701 425.2 433.101C433.1 437.901 442.5 439.501 451.3 441.901C457.5 443.601 459.4 433.801 453.2 432.101C448 430.701 442.1 429.701 436.8 427.801C439.3 426.701 441.9 425.701 444.5 424.801C447.4 423.701 450.3 422.801 453.2 421.901C458 427.701 465.3 429.701 472.7 429.701C479.1 429.701 478.4 419.701 471.9 419.701C469.9 419.701 467.7 419.501 465.8 418.901C466 418.901 466.3 418.801 466.5 418.801C473.6 417.601 480.9 416.801 487.8 414.501C493.9 412.401 490.6 403.001 484.5 405.001Z" fill="#325B15"/>
<path d="M287.9 493.801C288.7 491.201 286.4 488.401 284 487.901C281.1 487.301 279 489.201 278.1 491.801C277.2 494.601 276.5 497.401 275.8 500.301C273 497.701 270.2 495.001 267.5 492.301C267.8 491.801 268 491.201 268.2 490.601C268.8 487.801 269.3 484.901 270.3 482.201C271.3 479.701 270.7 476.801 268.1 475.501C265.8 474.401 262.4 475.201 261.4 477.701C260.5 479.901 259.9 482.101 259.4 484.301C257.4 482.301 255.3 480.301 253.3 478.301C253.2 478.201 253.2 478.201 253.1 478.101L256.2 462.401C257.4 456.101 247.6 454.101 246.4 460.501L244.6 469.501C243.7 468.501 242.8 467.401 242 466.401C239.8 463.701 235.5 459.001 236.6 455.201C238.3 449.001 228.5 447.101 226.8 453.301C224.8 460.401 229.6 467.801 235 473.901C234.4 473.801 233.9 473.601 233.4 473.401C230.9 472.401 228 473.001 226.7 475.601C225.6 477.901 226.4 481.301 228.9 482.301C233.2 483.901 237.5 484.201 242.1 484.201C242.9 484.201 243.7 483.901 244.4 483.501C247.1 486.201 249.8 489.001 252.6 491.701C249.2 492.501 245.8 493.801 242.4 493.301C236 492.301 234.1 502.101 240.5 503.101C246.9 504.101 252.3 500.701 258.6 501.001C259.6 501.001 260.5 500.701 261.2 500.101C263.9 502.701 266.5 505.201 269.2 507.701C268.4 507.901 267.7 508.001 267.1 508.201C266.4 508.301 265.8 508.401 265.1 508.501C264.4 507.601 263.5 507.001 262.2 506.701C259.7 506.201 256.7 507.901 256.3 510.601C255.7 515.801 259.3 518.401 264 518.501C267.4 518.601 270.8 517.301 273.7 516.901C275.2 516.701 276.5 516.001 277.3 514.901C281.3 517.201 285.8 512.701 284.4 508.801V508.701C285.3 503.701 286.3 498.701 287.9 493.801Z" fill="#325B15"/>
<path d="M521.3 543.201C526.4 539.301 520.8 531.001 515.7 534.901C510.8 538.701 505.3 541.001 499.5 542.601C499.6 542.501 499.7 542.401 499.8 542.301C502.1 540.201 504.1 538.001 505.8 535.201C509.2 529.701 500.2 525.301 496.9 530.701C495.3 533.301 492.7 535.301 490.5 537.401C488.2 539.601 486.5 542.201 485.7 545.301C483 545.701 480.4 546.101 477.7 546.501C471.6 547.401 465.6 548.301 459.5 548.501C459.4 548.501 459.4 548.501 459.3 548.501C462.5 545.301 465.7 542.101 468.6 538.701C472.8 533.801 465.3 527.201 461.1 532.101C456.8 537.101 452 541.601 447.4 546.401C447.1 546.701 446.9 547.001 446.7 547.401C445.1 546.901 443.7 546.101 442.5 545.001C437.7 540.701 431.1 548.201 435.9 552.501C440.2 556.301 445.9 558.101 451.9 558.701C452 559.001 452.2 559.401 452.4 559.701C458.6 569.101 470.5 571.001 480.1 575.301C486 577.901 490.4 569.001 484.6 566.301C478.9 563.701 470.9 562.201 465.2 558.501C468.9 558.101 472.4 557.601 475.6 557.001C478.8 556.401 482 555.901 485.3 555.501C485.6 556.101 486 556.601 486.6 557.101C493.5 562.501 501.4 565.301 509.3 568.901C515.2 571.601 519.6 562.601 513.8 559.901C508.8 557.601 503.6 555.801 498.8 553.201C506.8 551.201 514.5 548.401 521.3 543.201Z" fill="#325B15"/>
<path d="M174.5 280.901C179.3 301.301 182.899 321.801 186.899 342.401C190.699 362.001 193.8 381.701 196.7 401.401C197.4 410.301 198 419.301 198.7 428.201C199.9 444.201 201.4 460.201 204.1 476.101C205 481.501 206.1 486.901 207.3 492.301C207.7 502.601 207.699 512.901 207.899 523.201C208.399 549.701 209.4 577.001 219.3 602.001C219 603.701 218.6 605.301 218.2 607.001C216.7 613.201 226.2 616.601 227.6 610.301C228 608.401 228.4 606.501 228.8 604.601C229.5 603.601 229.799 602.301 229.399 600.801C233.199 576.601 230.3 552.001 225.3 528.001C222.6 514.801 219.6 501.801 217 488.701C216.1 469.501 213.3 450.501 210.8 431.501C209.5 421.401 208.1 411.301 206.7 401.301C205.4 383.301 203.9 365.401 201 347.601C197 323.601 190.9 299.901 183.6 276.601C179.1 258.401 174 240.301 167.8 222.401C152.1 176.801 130.7 130.401 95.9996 95.9006C92.1996 92.1006 84.3996 96.5006 87.7996 101.401C117.9 146.101 143.1 194.201 162.1 244.601C166.5 256.601 170.7 268.701 174.5 280.901ZM221.1 572.301C219.5 563.201 218.6 553.801 218.1 544.501C219.7 553.701 220.8 563.001 221.1 572.301Z" fill="#523620"/>
<path d="M44.5999 91.0009C56.9999 109.901 76.2999 116.801 98.3999 115.301C104.2 114.901 103.1 107.001 98.3 105.701C98.3 105.601 98.3 105.601 98.3 105.501C103.1 64.8009 72.3999 31.8009 33.9999 23.7009C30.1999 22.9009 26.8999 25.3009 27.3999 29.4009C30.0999 50.0009 32.8999 73.2009 44.5999 91.0009Z" fill="#526B22"/>
<path d="M6.79983 240.301C27.6998 238.201 49.1998 238.701 69.2998 231.901C79.1998 228.501 88.9998 223.901 96.2998 216.101C103.9 208.101 108.3 198.501 110.6 187.901C111.9 188.401 113.2 189.001 114.4 189.601C117.3 191.001 120 192.801 122.7 194.701C126.1 197.201 132.9 198.301 137.1 198.201C139.4 198.101 141.8 197.301 143.4 195.901C146.1 199.001 152.8 196.701 152.1 191.401C151.7 188.301 157.5 181.001 160 178.101C165.3 171.801 171.8 166.501 179.6 163.401C179.7 163.401 179.7 163.301 179.8 163.301C179.9 163.301 179.9 163.301 180 163.301C225.3 163.701 266.8 127.501 268 81.301C268.1 77.801 265.4 75.701 262.1 76.001C224.9 80.001 152 105.401 174.1 154.901C165 158.801 157.1 165.701 151 173.501C148.2 177.101 145 181.401 143.4 186.101C141.1 185.001 138 185.801 136.6 188.101C136.5 188.101 136.5 188.101 136.5 188.101C131.8 187.701 128.2 185.901 124.3 183.501C118 179.801 111.2 176.901 104.2 175.001C88.6997 170.901 72.1998 170.001 56.3998 172.801C41.5998 175.401 26.0998 181.301 15.3998 192.401C3.8998 204.501 -0.400245 219.801 1.09976 236.201C1.19976 239.201 4.29983 240.501 6.79983 240.301Z" fill="#526B22"/>
<path d="M20.2997 347.301C21.2997 348.801 22.9996 349.901 25.1996 349.801C34.4996 349.101 46.1997 350.001 56.2997 350.201C69.6997 350.401 83.3996 350.401 96.6996 348.201C107.9 346.301 120.6 342.901 128.8 334.401C135.6 327.301 138.2 318.501 137.9 309.301C138.1 309.501 138.2 309.701 138.4 309.901C141.3 313.401 145.9 311.101 146.9 307.701L185.5 300.101C186.1 300.101 186.7 300.001 187.4 299.701L189.7 299.201C191.6 298.801 192.7 297.701 193.2 296.401C199.7 292.701 206.2 289.001 212.8 285.301C213.1 285.101 213.4 284.901 213.7 284.701C226.8 286.701 240.6 286.901 252.8 281.701C263.7 277.001 271.7 268.301 276.5 257.501C287.5 232.601 284.6 202.601 283.6 176.101C283.5 172.201 278.7 168.501 275.3 172.001C258.2 189.601 236.8 203.301 222.3 223.401C218.5 228.701 215.1 234.401 212.3 240.301C210 245.201 207.3 250.501 206.9 256.001C206.5 260.901 207.1 265.801 208.1 270.601C206.4 271.101 204.9 272.401 204.4 274.001C202.6 275.101 202 277.501 202.6 279.701C196.4 283.201 190.3 286.701 184.1 290.201L141.7 298.501C123.5 280.301 97.4996 275.801 72.9996 284.601C47.0996 293.901 25.7996 315.201 16.1996 341.001C14.6996 344.401 17.3997 347.001 20.2997 347.301Z" fill="#526B22"/>
<path d="M47.9999 394.801C73.5999 422.201 145.1 493.601 173.5 438.401C175.5 439.401 177.7 440.301 179.4 441.001C187.6 444.601 196.3 447.501 205.3 448.801C211.7 449.701 212.4 439.701 206.1 438.801C196.4 437.401 185.8 433.901 177.3 428.801C177.3 428.001 177.1 427.201 176.7 426.601C162.1 372.801 94.7 378.001 50.8 386.601C47.1 387.301 45.3999 392.001 47.9999 394.801Z" fill="#526B22"/>
<path d="M210.9 425.801C221.8 417.401 233.4 409.901 244.4 401.601C249.6 404.801 255.1 407.801 260.9 409.901C271.7 413.801 284.8 414.501 293.2 405.301C301.3 396.301 304.1 384.001 305.9 372.401C308 358.901 308.7 345.201 310.3 331.601C311 325.901 311.7 320.101 313.3 314.501C314 312.101 314.8 309.601 315.9 307.301C316.2 306.701 318.2 303.901 318.4 303.701C322.8 299.101 316.5 291.701 311.8 296.201C291.1 315.601 261.4 324.101 245.3 348.501C238.5 358.901 233.8 369.701 232.8 382.101C232.5 385.501 231.7 390.001 232.8 393.401C233.2 394.701 233.9 395.701 234.7 396.401C224.7 403.801 214.2 410.701 204.3 418.301C199.1 422.201 205.8 429.701 210.9 425.801Z" fill="#526B22"/>
<path d="M20.9998 525.901C24.2998 539.101 29.8998 552.001 40.2998 561.101C48.4998 568.201 59.2997 572.001 70.1997 571.801C96.1997 571.301 120 555.601 138 537.901C139.8 536.101 139.9 533.801 139 532.001C162.6 519.401 190.1 533.101 213.6 540.201C214.5 543.501 218.5 546.001 221.6 542.901C234.6 530.101 249.9 519.901 265.8 511.001C274.7 517.001 285.2 521.301 295.9 519.101C306.9 516.801 315.6 509.101 322 500.101C336 480.501 342.4 456.401 348.7 433.501C349.9 429.101 345.9 425.701 341.7 427.401C322 435.201 303.5 446.401 288 460.901C280.3 468.101 273.1 476.101 266.9 484.701C264.1 488.501 260.4 492.301 263.8 496.901C264.1 497.301 264.5 497.701 264.9 498.001C261.4 496.301 257.9 500.101 258.4 503.701C244.4 511.601 231 520.601 219.1 531.401C192.1 523.801 161.5 508.401 134.2 523.201C132.2 524.301 131.5 526.001 131.6 527.701C102.1 501.501 57.6998 504.601 23.5998 520.401C21.7998 521.401 20.4998 523.801 20.9998 525.901Z" fill="#526B22"/>
<path d="M42.5997 54.4012C46.0997 54.5012 49.4998 55.4012 52.7998 56.4012C48.8998 51.8012 44.5997 47.5012 39.5997 43.8012C34.3997 40.0012 39.9997 31.6012 45.1997 35.5012C54.1997 42.2012 61.3998 50.5012 67.3998 59.6012C68.0998 57.6012 68.8997 55.6012 70.0997 53.8012C71.5997 51.5012 74.7998 50.9012 76.9998 52.4012C79.2998 53.9012 79.7998 57.0012 78.3998 59.3012C78.1998 59.5012 78.0998 59.8012 77.9998 60.0012C77.9998 60.1012 77.8998 60.1012 77.8998 60.2012C77.4998 61.0012 77.1998 61.9012 76.8998 62.7012C76.2998 64.3012 75.8998 66.0012 75.3998 67.7012C75.0998 68.7012 74.4998 69.4012 73.7998 70.0012C76.1998 74.4012 78.4997 78.8012 80.6997 83.3012C81.9997 80.0012 82.9998 76.6012 83.4998 73.0012C84.3998 66.7012 94.3998 67.3012 93.4998 73.8012C92.7998 78.7012 91.4997 83.4012 89.6997 88.0012C88.6997 90.4012 86.5998 91.3012 84.4998 91.1012C85.7998 93.8012 86.9998 96.5012 88.2998 99.3012C90.9998 105.101 82.0998 109.601 79.2998 103.801C77.9998 101.001 76.6998 98.2012 75.3998 95.4012C71.8998 95.1012 68.3998 94.3012 64.8998 95.4012C62.2998 96.2012 59.4998 93.9012 58.9998 91.5012C58.3998 88.6012 60.2998 86.4012 62.8998 85.6012C65.3998 84.8012 67.8998 84.8012 70.3998 85.0012C67.5998 79.3012 64.5998 73.7012 61.2998 68.4012C54.6998 68.0012 48.4998 64.6012 41.7998 64.4012C35.3998 64.2012 36.0997 54.3012 42.5997 54.4012Z" fill="#325B15"/>
<path d="M12.9998 223.201C16.8998 217.101 21.8998 211.801 27.5998 207.101C24.4998 207.201 21.3999 207.501 18.2999 207.601C11.8999 207.801 12.6998 197.801 19.0998 197.601C26.3998 197.401 33.2999 196.701 40.3999 198.201C43.1999 196.601 45.9999 195.101 48.7999 193.701C46.7999 193.401 44.7999 193.301 42.7999 193.501C36.3999 194.101 34.4999 184.301 40.8999 183.701C49.2999 183.001 56.5998 185.801 64.4998 187.401C65.7998 187.001 67.1998 186.601 68.5998 186.201C62.1998 186.201 62.9999 176.201 69.3999 176.201C78.0999 176.201 87.3999 178.601 94.2999 184.201C94.3999 184.301 94.4998 184.301 94.4998 184.401C95.9998 184.601 97.3999 184.901 98.8999 185.201C104.7 186.601 102.3 194.701 96.9998 194.801C96.9998 195.201 96.8998 195.601 96.6998 196.001C94.5998 201.001 92.4999 205.901 89.8999 210.601C88.5999 213.001 85.0998 213.401 82.9998 212.001C80.5998 210.401 80.2998 207.501 81.5998 205.101C83.5998 201.401 85.1999 197.601 86.7999 193.701C83.5999 193.701 80.2998 194.001 77.0998 194.501C77.6998 195.601 77.8999 196.901 77.3999 198.401C75.2999 204.701 71.4998 210.301 70.0998 216.801C69.4998 219.501 66.0998 220.701 63.6998 219.901C60.8998 218.901 60.0998 216.201 60.5998 213.501C61.7998 207.901 64.5999 203.001 66.7999 197.801C66.2999 197.701 65.7999 197.601 65.2999 197.501C61.6999 198.801 58.0999 200.201 54.7999 201.801C53.1999 202.601 51.4999 203.401 49.8999 204.201C50.5999 204.801 51.0999 205.801 51.2999 207.001C51.7999 210.401 51.2999 213.501 50.2999 216.701C49.2999 219.801 47.6998 222.701 48.1998 226.001C49.1998 232.401 39.3999 234.301 38.3999 227.901C37.8999 224.401 38.2999 221.101 39.2999 217.701C40.0999 214.901 41.7998 212.101 41.4998 209.201C33.5998 214.401 26.3999 220.901 21.3999 228.701C17.7999 234.201 9.49984 228.601 12.9998 223.201Z" fill="#325B15"/>
<path d="M178.2 148.301C181.6 141.101 186.3 134.801 191.8 129.101C191.7 128.901 191.6 128.701 191.5 128.501C189.7 124.501 189.2 119.201 186.1 115.801C181.8 111.001 189.3 104.401 193.6 109.201C196.9 112.801 197.9 117.401 199.5 121.801C203.7 118.301 208.3 115.001 213 111.901C211.3 107.901 211 103.701 211.6 99.4013C212.4 93.0013 222.3 93.7014 221.6 100.201C221.3 102.501 221.2 104.501 221.7 106.601C224.1 105.201 226.6 103.801 229 102.401C228.7 101.701 228.6 101.001 228.7 100.201C229.2 97.3014 229.3 94.3013 228.3 91.4013C227.4 88.8013 227.9 86.0014 230.5 84.7014C232.7 83.6014 236.3 84.4013 237.2 86.9013C238.3 90.1013 239 93.4013 238.9 96.8013C240.5 95.9013 242 95.1014 243.5 94.2014C242.6 88.1014 252.1 86.3013 253.4 92.6013L254 95.9013C254.4 98.2013 253.3 100.201 251.3 101.301C248.5 102.901 245.7 104.401 242.9 106.001C243.9 106.101 244.9 106.201 245.9 106.401C248.7 106.801 253.3 106.901 255.2 109.401C258.9 114.101 252.8 120.101 248.7 117.001C248.6 117.001 248.6 117.001 248.5 116.901C248.4 116.901 248.2 116.901 247.9 116.801C246.5 116.501 245 116.301 243.5 116.201C240.2 115.801 236.9 115.501 233.6 115.701C232 115.801 230.7 114.801 229.8 113.501C227.5 114.901 225.2 116.301 222.9 117.701C227.6 119.401 232.6 120.501 236.7 123.601C241.8 127.501 236.3 135.801 231.1 131.901C227 128.701 221.4 128.101 216.7 126.001C215.4 125.401 214.6 124.501 214.1 123.501C210.2 126.201 206.3 129.201 202.6 132.401C204 132.701 205.3 133.001 206.7 133.301C210.9 134.301 215.8 135.801 219.2 138.501C224.3 142.401 218.7 150.701 213.6 146.801C211.3 145.001 208.2 144.201 205.4 143.301C202.3 142.401 198.4 141.201 195.1 141.701C194.5 141.801 194 141.801 193.5 141.701C191 144.801 188.9 148.101 187.2 151.601C184.9 157.401 175.5 154.201 178.2 148.301Z" fill="#325B15"/>
<path d="M218.5 265.201C219.4 264.801 220.3 264.201 221.2 263.601C224.1 261.801 226.7 259.501 229.3 257.301C230 256.701 230.7 256.101 231.5 255.501C231.5 255.401 231.4 255.301 231.4 255.201C228.9 248.601 227.3 241.501 223.3 235.601C219.7 230.301 227.2 223.701 230.8 229.001C234.9 235.101 237 241.701 239.5 248.401C242 246.101 244.5 243.701 246.9 241.201C249.6 238.501 251.7 235.901 253.7 233.001C253.6 232.801 253.5 232.601 253.5 232.401C250.8 225.501 249.8 218.201 248.4 211.001C247.2 204.701 257 202.701 258.2 209.101C259 213.101 259.5 217.301 260.4 221.301C265.5 211.101 269.5 199.901 269.9 188.501C270.1 182.101 280.1 182.801 279.9 189.301C279.4 203.501 273.8 217.001 267.4 229.501C267.3 229.801 267.1 230.001 267 230.201C270 229.601 273 229.101 275.8 228.001C278.3 227.001 281.2 227.601 282.5 230.201C283.6 232.501 282.8 235.901 280.3 236.901C276.3 238.501 272.2 239.301 268 240.201C265.4 240.701 263.5 239.401 262.7 237.501C259.7 242.001 256.3 246.001 252.2 250.101C251.7 250.601 251.2 251.101 250.7 251.601C251.7 251.801 252.8 251.901 253.8 252.101C256.4 252.501 259.6 253.201 262.2 252.301C264.8 251.401 267.6 253.801 268.1 256.201C268.7 259.101 266.7 261.201 264.2 262.101C258 264.101 249.7 261.601 243.5 260.501C242.9 260.401 242.3 260.201 241.8 259.901C238.5 262.901 235 265.701 231.5 268.501C227.7 271.401 219.9 278.301 214.8 274.301C210.1 270.901 214 264.001 218.5 265.201Z" fill="#325B15"/>
<path d="M32.1996 323.301L42.6996 321.201C44.0996 320.901 45.2996 321.201 46.1996 321.801C52.3996 317.101 60.2996 314.001 67.4996 311.301C64.9996 311.501 62.4996 311.901 59.9996 312.401C53.6996 313.601 51.6996 303.801 58.0996 302.601C65.4996 301.201 73.1996 300.501 80.3996 303.001C81.9996 303.501 82.8996 304.601 83.3996 305.801C91.2996 303.301 99.3996 301.401 107.6 300.901C102.6 297.801 95.9996 296.701 90.3996 297.601C84.0996 298.701 82.0996 288.901 88.4996 287.801C99.1996 286.001 112.2 289.301 119.3 297.901C120.3 299.001 120.6 300.301 120.5 301.401C123.5 301.901 126.5 302.601 129.5 303.601C135.6 305.701 132.3 315.101 126.2 313.001C125.5 312.801 124.9 312.601 124.2 312.401C124.2 313.001 124.2 313.701 123.9 314.301C120.6 324.101 113.4 330.201 105.3 336.101C100.1 339.901 93.4996 332.401 98.6996 328.601C105.4 323.801 111.8 319.101 114.5 311.001C114.5 310.901 114.6 310.801 114.6 310.701C105.5 310.101 96.0997 312.001 87.2997 314.801C88.9997 315.901 90.0996 317.901 89.0996 320.401C86.4996 327.001 83.3996 333.401 79.0996 339.001C75.1996 344.101 66.8997 338.501 70.7997 333.401C74.4997 328.501 77.2996 323.101 79.5996 317.401C73.2996 319.801 66.9996 322.101 60.8996 325.001C60.6996 325.101 60.3996 325.201 60.1996 325.301C60.7996 325.901 61.2996 326.801 61.5996 327.901C62.5996 333.201 63.2997 338.901 59.7997 343.401C58.0997 345.601 55.1996 346.401 52.8996 344.801C50.7996 343.401 49.8996 340.001 51.4996 337.901C53.1996 335.701 52.3996 332.901 51.8996 330.201C49.6996 331.801 47.8996 333.801 46.8996 336.201C44.4996 342.101 34.9996 338.901 37.4996 332.901C37.5996 332.701 37.6996 332.501 37.6996 332.401L34.3996 333.001C27.7996 334.301 25.7996 324.501 32.1996 323.301Z" fill="#325B15"/>
<path d="M252.2 388.101C253.9 386.901 255.4 385.401 256.7 383.801C255.6 383.101 254.8 381.901 254.3 380.501C252.6 375.301 250.4 370.301 248.1 365.401C245.4 359.601 254.3 355.101 257.1 360.901C259.1 365.301 261 369.701 262.7 374.301C263.6 372.501 264.4 370.701 265.2 368.901C265.2 367.401 265.9 365.801 267.1 364.801C267.5 364.001 267.8 363.201 268.2 362.501C267.1 361.801 266.3 360.601 265.9 359.201C264.3 354.601 263.7 349.601 261.9 345.001C259.6 339.001 268.5 334.501 270.9 340.501C272.4 344.301 273.2 348.201 274.3 352.101C276.4 349.001 278.7 345.901 280.9 342.801C280.5 342.201 280.2 341.601 280 340.701C279.3 337.201 278.8 333.701 278.8 330.101C278.8 327.401 281.6 325.301 284.2 325.501C287.1 325.701 288.8 328.101 288.8 330.901C288.8 331.001 288.8 331.101 288.8 331.201C290.5 328.301 292.1 325.201 293.4 322.001C295.7 316.001 305.2 319.301 302.8 325.301C300.7 330.601 298 335.501 294.9 340.201C297.3 340.201 299.6 340.301 302 340.401C308.4 340.701 307.7 350.701 301.2 350.401C296.7 350.201 292.2 350.001 287.7 350.601C284.8 354.701 281.8 358.801 279.2 363.101C279.1 363.301 279 363.501 278.8 363.701C283.3 363.901 287.8 364.101 292.4 364.001C298.8 364.001 298.1 373.901 291.6 374.001C285.7 374.001 279.7 373.701 273.8 373.601C272.3 377.001 270.7 380.401 268.9 383.601C274 384.501 279.2 384.801 284.2 385.901C286.9 386.501 288.1 389.901 287.3 392.301C286.3 395.101 283.6 395.901 280.9 395.401C274.8 394.101 268.6 393.901 262.5 392.501C261.4 393.601 260.2 394.701 258.9 395.701C253.7 399.401 247 391.901 252.2 388.101Z" fill="#325B15"/>
<path d="M75.3997 395.601C81.0997 397.501 87.0997 398.201 93.0997 399.201C90.9997 397.401 88.9997 395.501 87.0997 393.501C82.4997 388.901 90.0997 382.301 94.5997 386.901C97.7997 390.101 101 393.101 105 395.401C107.3 396.701 107.7 399.901 106.5 402.101C110.6 403.201 114.7 404.601 118.8 406.001C120.5 406.601 122.2 407.201 123.8 407.901C121.3 404.301 118.8 400.701 115.7 397.501C111.2 392.801 118.8 386.201 123.2 390.901C128.2 396.101 131.8 402.401 136.1 408.101C137.5 409.901 137.4 411.901 136.6 413.501C140.5 415.401 144.4 417.401 148.1 419.501C145.2 413.101 142.5 406.701 138.2 401.201C134.2 396.101 141.7 389.501 145.7 394.601C152.3 402.901 155.7 412.801 160.4 422.101C161.3 423.901 161.1 425.601 160.2 426.801C162 428.001 163.7 429.101 165.5 430.401C170.8 434.101 165.2 442.401 159.9 438.701C158.8 438.001 157.7 437.201 156.7 436.501C155.8 437.601 154.4 438.301 152.5 438.001C145 436.901 139.1 443.001 133.1 446.601C127.5 449.901 123.1 440.901 128.6 437.601C133.9 434.501 138.7 430.601 144.3 428.801C141.1 427.001 137.9 425.301 134.7 423.701C126.8 428.501 117.4 430.101 108.6 432.501C102.4 434.201 100.5 424.401 106.7 422.701C111.9 421.301 117.8 420.301 123.1 418.401C120.6 417.301 118 416.301 115.4 415.401C112.5 414.301 109.6 413.401 106.7 412.501C101.9 418.301 94.5997 420.301 87.1997 420.301C80.7997 420.301 81.4997 410.301 87.9997 410.301C89.9997 410.301 92.1997 410.101 94.0997 409.501C93.8997 409.501 93.5997 409.401 93.3997 409.401C86.2997 408.201 78.9997 407.401 72.0997 405.101C65.9997 403.101 69.2997 393.601 75.3997 395.601Z" fill="#325B15"/>
<path d="M272 484.401C271.2 481.801 273.5 479.001 275.9 478.501C278.8 477.901 280.9 479.801 281.8 482.401C282.7 485.201 283.4 488.001 284.1 490.901C286.9 488.301 289.7 485.601 292.4 482.901C292.1 482.401 291.9 481.801 291.7 481.201C291.1 478.401 290.6 475.501 289.6 472.801C288.6 470.301 289.2 467.401 291.8 466.101C294.1 465.001 297.5 465.801 298.5 468.301C299.4 470.501 300 472.701 300.5 474.901C302.5 472.901 304.6 470.901 306.6 468.901C306.7 468.801 306.7 468.801 306.8 468.701L303.7 453.001C302.5 446.701 312.3 444.701 313.5 451.101L315.3 460.101C316.2 459.101 317.1 458.001 317.9 457.001C320.1 454.301 324.4 449.601 323.3 445.801C321.6 439.601 331.4 437.701 333.1 443.901C335.1 451.001 330.3 458.401 324.9 464.501C325.5 464.401 326 464.201 326.5 464.001C329 463.001 331.9 463.601 333.2 466.201C334.3 468.501 333.5 471.901 331 472.901C326.7 474.501 322.4 474.801 317.8 474.801C317 474.801 316.2 474.501 315.5 474.101C312.8 476.801 310.1 479.601 307.3 482.301C310.7 483.101 314.1 484.401 317.5 483.901C323.9 482.901 325.8 492.701 319.4 493.701C313 494.701 307.6 491.301 301.3 491.601C300.3 491.601 299.4 491.301 298.7 490.701C296 493.301 293.4 495.801 290.7 498.301C291.5 498.501 292.2 498.601 292.8 498.801C293.5 498.901 294.1 499.001 294.8 499.101C295.5 498.201 296.4 497.601 297.7 497.301C300.2 496.801 303.2 498.501 303.6 501.201C304.2 506.401 300.6 509.001 295.9 509.101C292.5 509.201 289.1 507.901 286.2 507.501C284.7 507.301 283.4 506.601 282.6 505.501C278.6 507.801 274.1 503.301 275.5 499.401V499.301C274.6 494.301 273.6 489.301 272 484.401Z" fill="#325B15"/>
<path d="M38.5997 533.801C33.4997 529.901 39.0996 521.601 44.1996 525.501C49.0996 529.301 54.5997 531.601 60.3997 533.201C60.2997 533.101 60.1997 533.001 60.0997 532.901C57.7997 530.801 55.7997 528.601 54.0997 525.801C50.6997 520.301 59.6997 515.901 62.9997 521.301C64.5997 523.901 67.1997 525.901 69.3997 528.001C71.6997 530.201 73.3996 532.801 74.1996 535.901C76.8996 536.301 79.4996 536.701 82.1996 537.101C88.2996 538.001 94.2997 538.901 100.4 539.101C100.5 539.101 100.5 539.101 100.6 539.101C97.3997 535.901 94.1997 532.701 91.2997 529.301C87.0997 524.401 94.5997 517.801 98.7997 522.701C103.1 527.701 107.9 532.201 112.5 537.001C112.8 537.301 113 537.601 113.2 538.001C114.8 537.501 116.2 536.701 117.4 535.601C122.2 531.301 128.8 538.801 124 543.101C119.7 546.901 114 548.701 108 549.301C107.9 549.601 107.7 550.001 107.5 550.301C101.3 559.701 89.3997 561.601 79.7997 565.901C73.8997 568.501 69.4997 559.601 75.2997 556.901C80.9997 554.301 88.9996 552.801 94.6996 549.101C90.9996 548.701 87.4997 548.201 84.2997 547.601C81.0997 547.001 77.8997 546.501 74.5997 546.101C74.2997 546.701 73.8997 547.201 73.2997 547.701C66.3997 553.101 58.4997 555.901 50.5997 559.501C44.6997 562.201 40.2997 553.201 46.0997 550.501C51.0997 548.201 56.2997 546.401 61.0997 543.801C53.0997 541.801 45.3997 539.101 38.5997 533.801Z" fill="#325B15"/>
<path d="M292.9 242.101C301.8 189.001 317.3 136.901 338.2 87.2008C340.5 81.7008 332 78.9008 329.1 83.3008C301.7 123.801 289.7 173.501 283 221.301C280.4 240.001 278.8 258.701 277.9 277.501C275.2 301.701 273.8 326.201 274.5 350.501C275 368.501 277 386.401 279.2 404.301C279.7 414.501 280.4 424.601 281 434.801C282.2 454.001 283.1 473.101 286 492.201C285.9 505.601 285.6 518.901 285.4 532.401C285.2 556.901 287 581.601 295.4 604.701C295.3 606.201 295.9 607.401 296.8 608.301C297.5 610.101 298.3 611.901 299.1 613.601C301.8 619.501 310.4 614.401 307.7 608.601C307 607.001 306.3 605.501 305.7 603.901C310.5 577.501 306.3 550.501 301.7 524.401C299.9 514.201 298 504.101 296.3 493.901C296.4 488.401 296.4 482.901 296.3 477.401C295.9 461.301 294.3 445.301 292.4 429.401C291.4 420.501 290.2 411.601 289.2 402.701C288.2 382.801 287.5 362.901 287.4 342.901C287.3 321.901 286.9 301.101 287.7 280.101C289.1 267.401 290.8 254.701 292.9 242.101ZM295.6 547.201C296.9 556.501 297.9 565.801 298 575.101C296.6 565.901 295.9 556.501 295.6 547.201Z" fill="#523620"/>
<path d="M383.4 4.90061C383.1 0.800614 379.4 -0.899374 375.9 0.600626C339.8 16.0006 316.1 54.3006 328.6 93.3006C328.6 93.4006 328.6 93.4006 328.7 93.5006C324.2 95.7006 324.7 103.701 330.4 103.001C352.4 100.201 370 89.8006 378.6 68.8006C386.6 49.0006 384.9 25.7006 383.4 4.90061Z" fill="#60802A"/>
<path d="M449.4 203C447.7 186.6 440.6 172.3 426.9 162.7C414.3 153.8 398 151.1 382.9 151.4C366.8 151.7 350.8 155.7 336.4 162.8C329.8 166 323.7 170.1 318.3 175C314.9 178.1 311.7 180.5 307.2 181.8C307.1 181.8 307.1 181.8 307.1 181.8C305.3 179.9 302.1 179.7 300.1 181.2C297.6 176.9 293.6 173.3 290.2 170.3C282.7 163.8 273.7 158.6 264 156.5C276.1 103.8 199.7 92.8002 162.4 96.1002C159.1 96.4002 156.8 99.1002 157.6 102.4C167.7 147.5 215.4 175 259.8 165.9C259.9 165.9 259.9 165.9 260 165.9C260.1 165.9 260.1 165.9 260.2 165.9C268.4 167.4 275.8 171.4 282.2 176.6C285.2 179 292.3 185 292.5 188.1C292.9 193.4 299.9 194.3 301.9 190.8C303.8 191.9 306.2 192.2 308.5 191.8C312.6 191.1 319.1 188.7 322 185.6C324.2 183.2 326.6 181 329.1 179.1C330.2 178.3 331.4 177.5 332.5 176.7C336.7 186.7 342.9 195.2 351.9 201.6C360.5 207.8 371.1 210.5 381.5 211.9C402.5 214.7 423.6 210.1 444.4 208.1C446.9 207.7 449.7 205.8 449.4 203Z" fill="#60802A"/>
<path d="M454.7 308.401C440.4 285.001 415.3 268.101 388.1 264.001C362.4 260.101 337.7 269.601 323.3 290.901H280.1C273.4 288.701 266.7 286.401 259.9 284.201C260.1 281.901 259 279.701 257.1 278.901C256.3 277.501 254.6 276.501 252.8 276.301C252.8 271.401 252.4 266.501 251.1 261.801C249.6 256.401 246 251.801 242.8 247.401C238.9 242.101 234.5 237.201 229.7 232.801C211.6 215.901 187.9 206.601 167.8 192.601C163.8 189.801 159.8 194.401 160.5 198.201C164.6 224.401 167.6 254.301 183.2 276.701C189.9 286.301 199.5 293.401 211.1 295.801C224.1 298.601 237.6 295.701 250 291.201C250.3 291.401 250.6 291.501 251 291.601C258.1 294.001 265.2 296.301 272.3 298.701C273.1 299.901 274.4 300.801 276.3 300.801H278.7C279.4 300.901 280 300.901 280.6 300.801H319.9C321.5 304.001 326.5 305.401 328.7 301.301C328.8 301.101 328.9 300.901 329.1 300.701C330.6 309.801 334.8 317.901 342.9 323.601C352.5 330.401 365.6 331.301 377 331.001C390.5 330.601 403.9 328.001 417.1 325.201C427 323.101 438.3 319.901 447.5 318.801C449.7 318.501 451.2 317.101 451.8 315.401C454.6 314.701 456.7 311.701 454.7 308.401Z" fill="#60802A"/>
<path d="M429.4 360.001C384.7 360.001 317.5 367.901 313.6 423.501C313.3 424.201 313.3 425.001 313.4 425.801C306 432.501 296.3 437.901 287.1 441.201C281.1 443.301 283.7 453.001 289.8 450.801C298.3 447.801 306.3 443.301 313.7 438.201C315.3 437.101 317.2 435.901 319 434.501C357.6 483.201 413.9 399.301 433.8 367.501C435.8 364.301 433.1 360.001 429.4 360.001Z" fill="#60802A"/>
<path d="M284.9 420.7C273.7 415.2 262.1 410.4 250.8 405.1C251.5 404.3 252 403.2 252.1 401.8C252.4 398.3 250.8 394 249.9 390.7C246.6 378.8 239.9 369 231.2 360.2C210.7 339.4 179.9 336.7 155.8 321.7C150.3 318.2 145.5 326.7 150.8 330.3C151 330.5 153.5 332.8 153.9 333.3C155.4 335.3 156.7 337.6 157.9 339.8C160.5 344.9 162.4 350.5 164.1 356C168.3 369 171.6 382.3 176.3 395.2C180.3 406.3 185.4 417.8 195.1 425C205.1 432.5 217.8 429.2 227.7 423.3C233 420.1 237.8 416.1 242.3 411.9C254.7 417.9 267.5 423.1 279.8 429.2C285.6 432.1 290.7 423.5 284.9 420.7Z" fill="#60802A"/>
<path d="M481.8 486.2C445.3 477.3 401.1 482.7 377.2 514.2C377 512.5 375.9 510.9 373.8 510.2C344.1 500.9 317.1 521.9 292.1 534.6C278.4 526.3 263.5 520.1 248.2 515C248 511.4 243.9 508.3 240.8 510.7C241.1 510.3 241.4 509.8 241.7 509.4C244.1 504.2 239.8 501.2 236.3 498C228.5 490.8 220 484.4 211 478.8C193 467.6 172.6 460.2 151.8 456.3C147.4 455.5 144.1 459.6 146.2 463.6C156.8 484.8 167.8 507.3 185.3 523.8C193.3 531.4 203.3 537.3 214.5 537.4C225.4 537.5 234.9 531.2 242.5 523.7C259.8 529.3 276.8 536.4 292 546.4C295.7 548.8 299.1 545.6 299.3 542.2C321 530.8 345.3 512 370.9 519.8C370.4 521.7 370.9 524 373 525.4C394.1 539.3 420.4 550.1 446.1 545.6C456.8 543.7 466.7 537.9 473.4 529.3C481.9 518.4 484.9 504.6 485.6 491C485.5 488.8 483.8 486.7 481.8 486.2Z" fill="#60802A"/>
<path d="M373.5 32.4009C370.1 33.1009 367 34.7009 363.9 36.3009C366.8 31.0009 370.2 26.0009 374.4 21.4009C378.7 16.6009 371.7 9.50086 367.3 14.3009C359.7 22.6009 354.3 32.1009 350.1 42.2009C349 40.3009 347.8 38.5009 346.3 37.0009C344.4 35.0009 341.1 35.1009 339.2 37.0009C337.2 39.0009 337.3 42.1009 339.2 44.1009C339.4 44.3009 339.6 44.5009 339.8 44.7009C339.8 44.8009 339.9 44.8009 339.9 44.9009C340.4 45.6009 340.9 46.4009 341.3 47.2009C342.2 48.7009 342.9 50.2009 343.7 51.8009C344.1 52.7009 344.9 53.3009 345.7 53.7009C344.1 58.4009 342.8 63.3009 341.5 68.1009C339.6 65.1009 338 61.9009 336.8 58.6009C334.7 52.5009 325.1 55.1009 327.2 61.3009C328.8 66.0009 331 70.4009 333.7 74.5009C335.1 76.7009 337.4 77.1009 339.4 76.6009C338.7 79.5009 338 82.4009 337.2 85.3009C335.6 91.6009 345.3 94.2009 346.8 88.0009C347.5 85.0009 348.3 82.0009 349 79.0009C352.4 78.0009 355.7 76.6009 359.3 77.0009C362 77.3009 364.3 74.5009 364.3 72.0009C364.3 69.1009 362 67.3009 359.3 67.0009C356.7 66.7009 354.3 67.2009 351.9 67.8009C353.5 61.7009 355.4 55.6009 357.6 49.8009C364 48.1009 369.4 43.6009 376 42.2009C382.5 40.7009 379.8 31.1009 373.5 32.4009Z" fill="#526B22"/>
<path d="M435 192.401C430 187.201 424 182.901 417.6 179.401C420.7 178.901 423.8 178.601 426.8 178.101C433.1 177.001 430.4 167.401 424.1 168.501C416.9 169.701 410 170.301 403.3 173.201C400.3 172.101 397.2 171.201 394.2 170.401C396.1 169.701 398.1 169.201 400.1 169.001C406.4 168.301 406.5 158.301 400.1 159.001C391.7 159.901 385.1 164.101 377.7 167.201C376.3 167.101 374.9 166.901 373.5 166.801C379.8 165.501 377.1 155.901 370.8 157.201C362.2 158.901 353.6 163.001 347.9 169.801C347.8 169.901 347.8 170.001 347.7 170.001C346.3 170.501 344.9 171.001 343.6 171.601C338.2 174.001 342.1 181.501 347.3 180.701C347.4 181.101 347.6 181.501 347.8 181.801C350.8 186.301 353.8 190.701 357.2 194.801C358.9 196.901 362.5 196.601 364.3 194.801C366.4 192.701 366 189.801 364.3 187.701C361.6 184.501 359.3 181.001 357 177.501C360.2 176.801 363.4 176.501 366.7 176.501C366.3 177.701 366.4 179.001 367.2 180.401C370.5 186.201 375.3 190.901 377.9 197.101C379 199.601 382.6 200.101 384.7 198.901C387.3 197.401 387.6 194.601 386.5 192.101C384.3 186.801 380.5 182.601 377.4 177.901C377.9 177.701 378.4 177.501 378.9 177.301C382.7 177.801 386.5 178.601 390 179.501C391.8 179.901 393.5 180.401 395.3 180.901C394.7 181.701 394.4 182.701 394.5 183.901C394.7 187.301 395.7 190.201 397.3 193.201C398.9 196.001 401 198.601 401.1 201.901C401.4 208.301 411.4 208.401 411.1 201.901C410.9 198.301 409.9 195.201 408.3 192.101C406.9 189.601 404.8 187.101 404.5 184.101C413.3 187.701 421.5 192.601 427.9 199.401C432.4 204.101 439.5 197.001 435 192.401Z" fill="#526B22"/>
<path d="M258.5 150.7C253.7 144.3 247.9 139 241.5 134.5C241.6 134.3 241.6 134.1 241.7 133.9C242.7 129.6 242.2 124.3 244.5 120.4C247.8 114.9 239.2 109.8 235.9 115.4C233.4 119.6 233.3 124.3 232.5 129C227.7 126.3 222.6 124 217.4 121.9C218.3 117.6 217.7 113.5 216.4 109.3C214.4 103.2 204.8 105.8 206.8 112C207.5 114.2 208 116.2 207.9 118.3C205.2 117.4 202.6 116.4 199.9 115.6C200.1 114.9 200 114.1 199.7 113.4C198.7 110.7 197.9 107.7 198.4 104.7C198.8 102 197.8 99.3004 194.9 98.5004C192.5 97.8004 189.1 99.3004 188.7 102C188.2 105.4 188.2 108.7 188.9 112C187.2 111.5 185.5 110.9 183.8 110.4C183.5 104.2 173.8 104.3 173.8 110.7V114C173.8 116.3 175.3 118.1 177.5 118.8C180.5 119.8 183.6 120.8 186.6 121.8C185.6 122.1 184.7 122.4 183.7 122.7C181 123.6 176.5 124.6 175.1 127.4C172.4 132.7 179.5 137.4 183 133.6C183.1 133.6 183.1 133.5 183.2 133.5C183.3 133.5 183.5 133.4 183.7 133.3C185.1 132.8 186.5 132.3 187.9 131.8C191 130.8 194.2 129.8 197.5 129.4C199.1 129.2 200.2 127.9 200.8 126.5C203.3 127.4 205.9 128.3 208.4 129.3C204.1 131.8 199.4 133.9 196 137.7C191.7 142.5 198.8 149.6 203.1 144.8C206.6 140.9 211.9 139.2 216.1 136.2C217.3 135.4 217.9 134.4 218.2 133.3C222.6 135.2 227 137.4 231.2 139.8C229.9 140.3 228.6 140.9 227.4 141.5C223.5 143.3 219 145.7 216.1 149C211.9 153.8 218.9 160.9 223.2 156.1C225.2 153.9 228 152.5 230.6 151.1C233.5 149.6 237 147.7 240.4 147.5C241 147.5 241.5 147.4 242 147.2C245 149.7 247.7 152.5 250.1 155.7C253.6 160.9 262.3 155.9 258.5 150.7Z" fill="#526B22"/>
<path d="M241.5 273.2C240.5 272.9 239.5 272.6 238.6 272.2C235.4 271 232.4 269.2 229.4 267.6C228.6 267.2 227.8 266.7 226.9 266.2C226.9 266.1 226.9 266 227 265.9C228.2 259 228.4 251.7 231.2 245.1C233.7 239.2 225.1 234.1 222.6 240.1C219.7 246.9 218.9 253.7 217.8 260.8C214.9 259 212 257.1 209.1 255.2C206 253.1 203.3 250.9 200.9 248.5C201 248.3 201 248.1 201 247.9C202.3 240.6 201.9 233.3 201.8 225.9C201.8 219.5 191.8 219.4 191.8 225.9C191.8 230 192.1 234.2 192 238.3C185 229.3 178.9 219 176.3 207.9C174.8 201.6 165.2 204.3 166.7 210.6C169.9 224.4 178 236.6 186.7 247.6C186.9 247.8 187.1 248 187.2 248.3C184.2 248.3 181.1 248.4 178.1 247.8C175.4 247.3 172.7 248.5 171.9 251.3C171.2 253.8 172.7 257 175.4 257.5C179.6 258.3 183.8 258.3 188.1 258.3C190.8 258.3 192.3 256.6 192.8 254.6C196.6 258.4 200.7 261.7 205.5 264.9C206.1 265.3 206.7 265.7 207.3 266.1C206.3 266.5 205.3 266.8 204.4 267.2C201.9 268.1 198.9 269.4 196.2 269C193.5 268.7 191.2 271.5 191.2 274C191.2 277 193.5 278.7 196.2 279C202.7 279.8 210.3 275.7 216.2 273.5C216.8 273.3 217.3 273 217.8 272.6C221.7 274.9 225.6 277 229.6 279C233.9 281.2 242.9 286.4 247.1 281.5C250.8 277.2 245.7 271.1 241.5 273.2Z" fill="#526B22"/>
<path d="M435.5 294.3H424.8C423.4 294.3 422.3 294.8 421.5 295.6C414.6 292.2 406.2 290.6 398.6 289.4C401.1 289.1 403.7 289 406.2 289C412.6 289 412.7 279 406.2 279C398.7 279 391 279.8 384.3 283.7C382.9 284.5 382.1 285.7 381.9 287C373.7 286.1 365.3 285.8 357.2 286.9C361.5 282.9 367.8 280.5 373.4 280.4C379.8 280.2 379.9 270.2 373.4 270.4C362.5 270.7 350.5 276.4 345.1 286.2C344.4 287.5 344.3 288.8 344.6 289.9C341.7 290.9 338.9 292.2 336.2 293.7C330.6 296.9 335.6 305.5 341.2 302.3C341.8 302 342.4 301.6 343.1 301.3C343.2 301.9 343.4 302.5 343.7 303.1C348.8 312.1 357.1 316.7 366.2 320.9C372 323.6 377.1 315 371.2 312.3C363.7 308.9 356.5 305.5 352.3 298.1C352.3 298 352.2 297.9 352.1 297.9C361 295.6 370.5 295.6 379.7 296.7C378.2 298.1 377.5 300.3 379 302.6C382.8 308.5 387.1 314.3 392.4 318.9C397.2 323.1 404.3 316.1 399.5 311.8C394.9 307.8 391.1 303 387.8 297.8C394.5 298.9 401.1 300 407.7 301.6C408 301.7 408.2 301.7 408.5 301.8C408 302.5 407.7 303.5 407.7 304.6C407.7 310 408.2 315.7 412.5 319.5C414.5 321.3 417.6 321.5 419.6 319.5C421.4 317.7 421.7 314.2 419.6 312.4C417.5 310.6 417.7 307.7 417.7 304.9C420.1 306.1 422.3 307.7 423.7 309.8C427.2 315.2 435.9 310.2 432.3 304.8C432.2 304.6 432.1 304.5 432 304.3H435.4C441.9 304.3 441.9 294.3 435.5 294.3Z" fill="#526B22"/>
<path d="M232 400.301C230.1 399.401 228.4 398.301 226.8 397.001C227.8 396.101 228.3 394.801 228.5 393.301C229.1 387.901 230.3 382.601 231.7 377.301C233.2 371.001 223.6 368.401 222.1 374.601C220.9 379.301 219.9 384.001 219.2 388.801C218 387.201 216.9 385.601 215.7 384.001C215.4 382.501 214.5 381.101 213.1 380.301C212.6 379.601 212.1 378.901 211.6 378.201C212.5 377.301 213.1 376.001 213.3 374.601C213.9 369.801 213.6 364.701 214.5 359.901C215.6 353.601 206 350.901 204.9 357.201C204.2 361.201 204.1 365.201 203.9 369.301C201.2 366.601 198.4 364.001 195.6 361.401C195.9 360.801 196.1 360.001 196.1 359.201C196.1 355.601 195.9 352.101 195.3 348.501C194.8 345.801 191.6 344.301 189.1 345.001C186.3 345.801 185.1 348.501 185.6 351.201C185.6 351.301 185.6 351.401 185.6 351.501C183.3 348.901 181.2 346.301 179.4 343.301C176 337.901 167.3 342.901 170.8 348.301C173.8 353.101 177.5 357.301 181.4 361.401C179.1 361.901 176.8 362.401 174.5 363.001C168.2 364.601 170.9 374.201 177.2 372.601C181.6 371.501 186 370.401 190.5 370.201C194.2 373.701 197.9 377.201 201.3 380.901C201.5 381.101 201.6 381.301 201.8 381.401C197.4 382.401 193 383.501 188.6 384.301C182.3 385.501 185 395.101 191.3 393.901C197.1 392.801 202.9 391.301 208.7 390.101C210.9 393.101 213 396.101 215.4 398.901C210.6 400.801 205.5 402.101 200.8 404.101C198.3 405.201 197.8 408.801 199 410.901C200.5 413.501 203.3 413.801 205.8 412.701C211.5 410.301 217.6 408.901 223.3 406.301C224.6 407.201 226 408.001 227.5 408.701C232.8 411.601 237.8 403.001 232 400.301Z" fill="#526B22"/>
<path d="M407 373.601C401.8 376.501 396 378.501 390.4 380.501C392.1 378.301 393.7 376.101 395.2 373.801C398.8 368.401 390.1 363.401 386.6 368.801C384.1 372.601 381.5 376.101 378 379.101C376 380.801 376.2 384.101 377.8 385.901C374 387.801 370.2 389.901 366.5 392.101C365 393.001 363.4 394.001 361.9 394.901C363.7 390.901 365.4 386.801 367.8 383.101C371.3 377.701 362.6 372.601 359.2 378.101C355.3 384.201 353 391.001 349.9 397.401C348.9 399.501 349.3 401.401 350.5 402.801C347 405.401 343.6 408.101 340.3 410.901C341.9 404.101 343.3 397.301 346.5 391.001C349.4 385.301 340.8 380.201 337.9 386.001C333.1 395.401 331.6 405.801 328.7 415.901C328.1 417.801 328.7 419.401 329.8 420.501C328.3 422.001 326.8 423.501 325.3 425.001C320.8 429.601 327.9 436.701 332.4 432.101C333.3 431.201 334.2 430.301 335.1 429.301C336.2 430.201 337.7 430.701 339.5 430.001C346.6 427.501 353.6 432.301 360.2 434.701C366.3 436.901 368.9 427.201 362.9 425.101C357.1 423.101 351.6 420.201 345.8 419.501C348.6 417.101 351.4 414.801 354.3 412.601C363 415.701 372.5 415.601 381.6 416.301C388 416.801 388 406.801 381.6 406.301C376.2 405.901 370.3 406.101 364.7 405.201C367 403.701 369.3 402.201 371.7 400.801C374.3 399.201 377 397.701 379.7 396.301C385.5 401.101 393.1 401.701 400.4 400.201C406.7 398.901 404 389.301 397.7 390.601C395.7 391.001 393.6 391.201 391.5 391.001C391.7 390.901 391.9 390.801 392.1 390.701C398.9 388.101 405.8 385.901 412.2 382.401C417.6 379.101 412.6 370.501 407 373.601Z" fill="#526B22"/>
<path d="M231.2 498.601C231.5 495.901 228.7 493.601 226.2 493.601C223.2 493.601 221.5 495.901 221.2 498.601C220.9 501.501 220.7 504.401 220.6 507.401C217.3 505.401 214.1 503.301 210.9 501.101C211.1 500.601 211.2 500.001 211.2 499.301C211.2 496.401 211.2 493.501 211.7 490.601C212.2 487.901 211 485.201 208.2 484.401C205.7 483.701 202.5 485.201 202 487.901C201.6 490.201 201.4 492.501 201.3 494.801C198.9 493.201 196.5 491.701 194.1 490.101C194 490.001 193.9 490.001 193.8 489.901V473.901C193.8 467.501 183.8 467.501 183.8 473.901V483.001C182.7 482.201 181.7 481.301 180.6 480.501C178 478.301 172.8 474.401 173.1 470.601C173.6 464.201 163.6 464.201 163.1 470.601C162.5 478.001 168.7 484.301 175.1 489.301C174.5 489.301 174 489.201 173.4 489.201C170.7 488.701 168 489.901 167.2 492.701C166.5 495.101 168 498.401 170.7 498.901C175.2 499.701 179.6 499.101 184 498.201C184.8 498.001 185.5 497.601 186.1 497.101C189.3 499.301 192.5 501.401 195.7 503.601C192.5 505.101 189.5 507.001 186 507.101C179.6 507.401 179.5 517.401 186 517.101C192.4 516.801 197.2 512.501 203.3 511.601C204.3 511.501 205.1 510.901 205.7 510.201C208.8 512.201 211.9 514.201 215.1 516.101C214.4 516.401 213.7 516.701 213.1 517.001C212.5 517.301 211.8 517.501 211.2 517.701C210.4 517.001 209.3 516.501 208.1 516.501C205.5 516.501 202.9 518.801 203.1 521.501C203.5 526.701 207.5 528.601 212.2 527.801C215.6 527.201 218.6 525.301 221.4 524.301C222.8 523.801 224 522.801 224.6 521.601C228.9 523.101 232.5 517.801 230.4 514.301V514.201C230.5 508.801 230.6 503.701 231.2 498.601Z" fill="#526B22"/>
<path d="M469.7 502.101C473.9 497.301 466.9 490.201 462.6 495.001C458.5 499.701 453.5 503.001 448.2 505.601C448.3 505.501 448.4 505.301 448.5 505.201C450.4 502.701 451.9 500.101 453 497.101C455.2 491.001 445.6 488.401 443.4 494.401C442.3 497.301 440.2 499.701 438.4 502.201C436.6 504.801 435.4 507.701 435.2 510.901C432.7 511.801 430.1 512.701 427.6 513.601C421.8 515.701 416.1 517.601 410.1 519.101C410 519.101 410 519.101 409.9 519.101C412.4 515.301 414.9 511.601 417.1 507.701C420.3 502.101 411.6 497.001 408.5 502.701C405.2 508.501 401.4 513.801 397.8 519.401C397.6 519.801 397.4 520.101 397.3 520.501C395.7 520.301 394.1 519.801 392.7 519.001C387.1 515.701 382.1 524.301 387.7 527.601C392.6 530.501 398.6 531.201 404.6 530.601C404.8 530.901 405 531.201 405.3 531.501C413.2 539.501 425.2 539.101 435.5 541.501C441.8 543.001 444.4 533.301 438.2 531.901C432.1 530.501 424 530.601 417.7 527.901C421.2 526.801 424.6 525.601 427.6 524.401C430.6 523.201 433.7 522.101 436.8 521.001C437.2 521.501 437.7 521.901 438.4 522.301C446.2 526.301 454.5 527.501 462.9 529.501C469.2 531.001 471.8 521.401 465.6 519.901C460.3 518.601 454.8 517.801 449.5 516.201C457 512.701 464 508.601 469.7 502.101Z" fill="#526B22"/>
<path d="M93.6997 638.2C65.7997 675.4 49.4998 720.5 49.4998 769.1C49.4998 841 85.1998 905.2 141 947.3H455.1C510.9 905.1 546.6 841 546.6 769.1C546.6 720.5 530.3 675.4 502.4 638.2H93.6997V638.2Z" fill="#333333"/>
<path d="M524.6 616.201C524.6 628.301 514.7 638.201 502.6 638.201H86.0996C73.9996 638.201 64.0996 628.301 64.0996 616.201V609.101C64.0996 597.001 73.9996 587.101 86.0996 587.101H502.6C514.7 587.101 524.6 597.001 524.6 609.101V616.201Z" fill="#D34F2E"/>
<path d="M90.7998 769.301H89.2998C86.5998 769.301 84.2998 771.601 84.2998 774.301C84.2998 777.001 86.5998 779.301 89.2998 779.301H90.7998C93.4998 779.301 95.7998 777.001 95.7998 774.301C95.7998 771.601 93.4998 769.301 90.7998 769.301Z" fill="#D34F2E"/>
<path d="M206.3 776.801C199.9 776.801 199.9 786.801 206.3 786.801C212.7 786.801 212.7 776.801 206.3 776.801Z" fill="#D34F2E"/>
<path d="M323.3 770.801C316.9 770.801 316.9 780.801 323.3 780.801C329.7 780.801 329.7 770.801 323.3 770.801Z" fill="#D34F2E"/>
<path d="M440.3 772.301C433.9 772.301 433.9 782.301 440.3 782.301C446.7 782.301 446.7 772.301 440.3 772.301Z" fill="#D34F2E"/>
<path d="M530.8 767.801C528.9 765.901 525.7 765.901 523.7 767.801L522.2 769.301C520.3 771.201 520.3 774.401 522.2 776.401C524.1 778.301 527.3 778.301 529.3 776.401L530.8 774.901C532.7 772.901 532.7 769.701 530.8 767.801Z" fill="#D34F2E"/>
<path d="M144.8 676.301C138.4 676.301 138.4 686.301 144.8 686.301C151.2 686.301 151.2 676.301 144.8 676.301Z" fill="#D34F2E"/>
<path d="M182.3 898.301C175.9 898.301 175.9 908.301 182.3 908.301C188.7 908.301 188.7 898.301 182.3 898.301Z" fill="#D34F2E"/>
<path d="M271.3 676.301C270.8 675.801 270.3 675.301 269.8 674.801C269.7 674.701 269.5 674.501 269.4 674.401C267.5 672.501 264.3 672.501 262.3 674.401C260.4 676.301 260.4 679.501 262.3 681.501C262.4 681.601 262.6 681.801 262.7 681.901C263.2 682.401 263.7 682.901 264.2 683.401C266.1 685.301 269.3 685.301 271.3 683.401C273.2 681.401 273.2 678.201 271.3 676.301Z" fill="#D34F2E"/>
<path d="M380.3 679.301C373.9 679.301 373.9 689.301 380.3 689.301C386.7 689.301 386.7 679.301 380.3 679.301Z" fill="#D34F2E"/>
<path d="M483.8 671.801C477.4 671.801 477.4 681.801 483.8 681.801C490.2 681.801 490.2 671.801 483.8 671.801Z" fill="#D34F2E"/>
<path d="M320.3 887.801C313.9 887.801 313.9 897.801 320.3 897.801C326.7 897.801 326.7 887.801 320.3 887.801Z" fill="#D34F2E"/>
<path d="M444.8 883.301C438.4 883.301 438.4 893.301 444.8 893.301C451.2 893.301 451.2 883.301 444.8 883.301Z" fill="#D34F2E"/>
<path d="M54.9998 720.701C55.8998 717.001 56.7998 713.201 57.8998 709.601C66.9998 707.601 76.3998 707.601 84.8998 711.401C93.1998 715.001 100.1 722.501 106.2 729.001C113 736.201 119.3 743.901 126.8 750.401C132.1 754.901 139.3 760.101 146.6 758.001C156.7 755.001 163.1 744.801 168.3 736.301C177.8 720.801 194.3 700.301 215.1 704.601C224.7 706.601 230.6 712.701 233.8 721.701C236.8 729.901 238 739.801 244.6 746.101C254.2 755.301 268.6 756.001 277.5 746.001C285.5 737.001 289.7 725.301 296.5 715.501C303.4 705.501 312.9 697.901 325.8 700.301C340 702.901 347 713.701 354.2 725.101C358.3 731.501 362.2 738.201 366.9 744.201C370.7 749.101 375.5 755.001 381.5 757.201C388 759.601 394 757.701 399.5 753.601C404.4 749.901 408 745.501 409.4 739.401C410.6 734.201 410.9 728.601 412.6 723.501C415.9 713.401 425.2 704.101 436.4 703.601C444.8 703.301 450.1 709.601 453.2 716.601C457.4 725.801 460.5 735.301 468 742.601C476.1 750.401 491.6 755.801 499.5 744.001C505.1 735.701 506.9 725.401 512.3 717.001C516.9 709.701 523.8 703.601 532.5 702.101C533.7 701.901 534.8 701.801 535.9 701.701C537 704.901 538 708.201 538.9 711.501C538.1 711.401 537.3 711.401 536.5 711.501C516.6 713.001 516.6 739.701 506.1 751.601C498.1 760.601 484.7 762.901 473.9 758.401C463.2 753.901 454.6 744.101 449.8 733.701C448 729.701 446.5 725.601 444.6 721.601C443.4 719.001 442 715.401 439.3 714.001C435.7 712.101 430.7 715.701 427.8 717.701C423 721.101 421.7 727.201 420.8 732.601C418.8 744.601 415.5 754.001 405.4 761.601C399.1 766.301 391.7 769.201 383.8 768.101C369.3 766.101 359.4 751.701 352 740.401C347.9 734.201 344.2 727.701 339.9 721.601C336.7 717.001 333.6 713.301 328.4 711.401C317.2 707.401 310 712.801 304 722.301C297.4 732.701 292.7 744.601 284.1 753.601C274.6 763.601 261.5 765.801 248.9 760.501C239.3 756.401 232.8 749.301 229.2 739.501C226.5 732.501 225.7 722.001 219.6 717.001C211.7 710.601 200.2 715.401 193.6 721.201C186.3 727.601 180.4 735.401 175.7 743.801C166.3 760.301 148.3 775.601 129.2 764.301C112.4 754.401 102.2 736.501 87.1997 724.501C77.6997 717.001 65.8998 717.301 54.9998 720.701ZM543.5 800.001C537.7 797.001 531.8 797.501 525.8 800.001C512.9 805.401 508.1 818.001 502.5 829.701C500.5 833.901 498.2 838.001 494.6 838.901C488.8 840.501 480.2 834.101 475.5 830.701C466.8 824.601 462.1 814.201 454.6 806.801C446.7 799.101 436.6 797.501 426.5 801.801C418.1 805.401 413.8 814.601 409.7 822.201C404.2 832.301 395.4 841.701 385 846.801C364.1 857.001 344.7 831.501 331.9 819.101C325.9 813.301 318.8 808.501 310.4 807.701C303.9 807.101 297.9 810.501 293 814.501C281.6 823.701 274.7 837.401 261.8 844.801C247.6 852.901 233.7 846.801 222.9 836.501C213.4 827.401 204.6 814.401 190.9 811.501C174.1 807.801 158.5 823.001 150.7 836.101C146.8 842.701 143.8 850.301 138 855.501C131.6 861.101 120.1 858.101 114.4 853.101C107.2 846.901 104.3 836.701 99.8998 828.601C95.4998 820.401 88.8997 814.801 79.6997 812.901C70.8997 811.101 62.5997 813.201 55.0997 817.301C55.8997 820.701 56.6997 824.001 57.6997 827.301C63.2997 823.801 69.7998 821.801 76.4998 822.401C85.8998 823.201 90.2998 831.001 93.8998 838.601C98.0998 847.301 102.1 856.601 110.2 862.401C117.7 867.801 129 870.101 137.8 866.901C153.8 861.101 156.7 840.401 168.4 829.701C173.3 825.201 180.4 819.901 187.6 820.901C193.5 821.701 198.3 825.901 202.5 829.901C213.1 840.101 222.3 852.201 236.8 857.001C253 862.301 268.8 854.201 280.1 842.901C285.4 837.701 289.9 831.701 295 826.301C298.5 822.601 303 818.001 308.4 817.501C316.1 816.901 323 823.801 327.9 828.901C336.2 837.501 344.5 846.001 354.8 852.301C363.2 857.401 372.7 859.701 382.4 857.901C394.2 855.701 403.9 846.301 411.3 837.501C417.2 830.401 420.2 821.401 426.1 814.501C429.1 811.001 433 809.301 437.5 809.001C442.7 808.601 447 812.801 450.2 816.301C457.6 824.401 462.6 833.501 471.7 839.901C478 844.401 485.7 848.901 493.8 848.801C506.5 848.601 511 834.801 515.5 825.401C518 820.201 520.9 814.701 525.7 811.201C528.3 809.301 531.2 808.301 534.4 807.601C536.3 807.201 537.3 807.701 539.1 808.601C540.3 809.201 541.4 810.001 542.6 810.701C543.3 807.201 543.9 803.701 544.4 800.101C544 800.301 543.8 800.201 543.5 800.001Z" fill="#D34F2E"/>
<path d="M434.7 977.501H167.4L79.8999 930.801H516.2L434.7 977.501Z" fill="#D34F2E"/>
</svg>
