<svg width="761" height="824" viewBox="0 0 761 824" fill="none" xmlns="http://www.w3.org/2000/svg">
<path d="M336.7 456.9C341.2 448.7 336.6 440.2 330.7 433.8C323.2 421.5 313.6 411.5 301.5 403.7C290.3 396.5 278 391.1 266.3 384.9C266.4 384.8 266.6 384.8 266.7 384.7C269 383.5 269.9 380.1 270.8 377.9C272.1 374.9 273.6 371.7 273.9 368.5C275.2 355.4 274.1 343.1 269.9 330.5C262.9 309.3 249.1 290.7 231.9 276.7C196.2 247.5 146.1 240.8 106.5 266.2C78.4998 284.2 57.2998 312.7 40.9998 341.2C32.4998 356 25.3998 371.3 20.8998 387.7C15.4998 407.4 13.1998 427.8 10.0998 447.9C9.39982 452.4 13.1998 455.5 17.3998 453.5C52.0998 437.4 86.2998 420.1 122.7 408C131.3 405.1 140.2 402.3 149.1 400.7C158.8 398.9 168.9 399.2 178.8 400C197.9 401.5 216.7 405.7 236 405.2C237.2 405.2 238.2 404.8 238.9 404.2C269.7 418.7 301 435.3 325.3 459.5C325.6 459.9 325.9 460.3 326.4 460.7C326.5 460.8 326.6 460.9 326.7 460.9C327.6 461.8 328.5 462.7 329.4 463.7C333.3 467.8 340.3 462.4 337.3 457.6C337 457.3 336.9 457.1 336.7 456.9Z" fill="#526B22"/>
<path d="M270.8 323.5C260.7 303 244 284 226.2 269.7C206.4 253.9 182.3 243.8 156.8 243.9C129.8 244 106.1 256.8 85.7 273.4C56.3 297.4 32.5 330.2 16.2 364.3C9.60001 378.1 4.60001 392.8 2.00001 407.8C-0.399986 421.9 -0.899985 438.2 7.50001 450.6C10 454.3 15.1 453.6 16.6 449.4C32.5 405.9 67.5 367.8 111.6 352.2C135.7 343.7 161.9 342.9 186.7 349.1C199.4 352.3 211.5 357.4 223.1 363.5C229 366.6 234.7 370.1 240.3 373.7C245.9 377.3 250.8 381.8 256.3 385.4C258.2 386.7 260.1 386.4 261.4 385.4C263.1 386.6 265.5 386.7 267.3 384.6C283.3 366.5 280.9 343.9 270.8 323.5Z" fill="#325B15"/>
<path d="M520.9 2.09998C468.2 -0.500019 417 23.9 377.7 57.4C367.7 65.9 358.5 75.5001 351 86.3001C343.1 97.7001 339.7 111 336.1 124.2C332.2 138.6 325.8 152 321 166C317.4 176.4 315.8 187 315.1 197.9C313.3 227.8 314.8 258.2 320 287.6C324.6 313.6 333.1 344.7 355.6 361.1C349 391 345.7 421.6 340.1 451.7C339.3 455.8 343.2 458.4 346.3 457.9C347.3 462 353.2 464.2 355.2 459.5C362 443.9 365.9 427.2 368.8 410.6C371.6 395 373.5 379.1 373.8 363.3C374.1 362.7 374.3 362.1 374.4 361.5C374.7 361.3 375.1 361 375.4 360.6C384.4 350.2 395.5 342.4 406.7 334.5C418.2 326.4 428.9 317.9 438.1 307.3C457.2 285.6 472.4 260.9 486.4 235.7C500.4 210.5 508.1 182.3 512.5 154C517.1 124.3 517.7 94.1001 520.9 64.3001C521.9 54.8001 523.2 45.2 523 35.6C522.9 26.4 522 17.1 525.6 8.40003C527 5.30003 523.8 2.29998 520.9 2.09998Z" fill="#526B22"/>
<path d="M521.2 2.30016C499.8 -3.49984 476.9 2.60011 456.9 10.5001C435.4 19.0001 415.2 30.8002 396.5 44.3002C377 58.5002 360.3 75.0001 347.6 95.6001C334.9 116.3 327.3 139.9 322.4 163.5C317.8 186.1 315.4 209.3 314.7 232.4C314.3 244.8 314.9 257.3 316.6 269.6C318 279.3 320.6 288.6 322.3 298.2C325 312.5 327.4 327 333.2 340.4C338.3 352.3 347.4 364.3 361.8 363C364.4 362.8 366 361 366.4 358.9C368.3 358.9 370.1 357.8 370.6 355.3C376 325.7 382.6 296.3 391.3 267.4C400.1 237.8 411.8 209.6 425.3 181.9C439.5 152.9 452.9 123.4 468.2 94.9001C479.8 73.3001 486 47.8001 501.4 28.4001C507.1 21.3001 514.5 16.0002 522.2 11.3002C526.1 9.20016 525.5 3.50016 521.2 2.30016Z" fill="#325B15"/>
<path d="M759.4 231.6C715.5 179.6 642.9 167.9 578.8 179C513.1 190.5 447 227.2 412 285.4C393.7 315.9 386.2 351.8 390.8 387.1C390.9 387.7 391 388.2 391.2 388.6C373.5 406.3 355.7 423.9 336.2 439.6C334.5 441 334.2 442.7 334.7 444.2C330.6 446.5 333.4 454.2 339 453.3C345.7 452.3 352.6 453 359.4 452.2C359.5 452.2 359.6 452.2 359.7 452.2C359.8 452.2 359.8 452.2 359.9 452.2C360.3 452.2 360.7 452.1 361 452.1C362.1 451.9 362.9 451.5 363.5 450.9C365.5 449.7 367.2 448 368.8 446.3C373.1 442 377.1 437.301 381 432.6C388.6 423.701 396 414.5 404.1 406C413.9 412.6 427 412.9 438.5 412.1C457.4 410.7 476 405.6 494.1 400C513.2 394.1 532 387.1 550.8 380.2C567.4 374 584.4 368.8 600.8 362.2C632 349.6 660.3 331.9 686 310.3C712.1 288.3 735.2 263 759.3 238.9C761.5 236.6 761.2 233.7 759.4 231.6Z" fill="#60802A"/>
<path d="M752.6 230.301C738.6 234.301 723.9 233.801 709.5 235.101C694.5 236.501 681 241.401 667.1 246.801C638.2 258.001 610.1 271.401 582.7 285.901C569.1 293.101 555.6 300.701 542.3 308.501C529.6 316.001 517.1 323.801 503.9 330.301C481 341.501 457.3 350.901 435.4 364.101C429.3 367.801 423.2 371.601 417.1 375.401C414.5 377.001 412 378.601 409.4 380.101C408.5 380.601 407.6 381.201 406.6 381.701C406.4 381.801 406.2 381.901 406 382.001C405.6 382.101 405.1 382.301 404.7 382.601C400.9 384.101 397.5 386.501 394.3 389.501C392.4 391.301 392.3 394.801 394.3 396.601C411.3 412.401 435.8 414.001 457.9 412.301C484.3 410.301 510.1 403.601 534.9 394.701C563.2 384.601 590.4 371.401 617.4 358.201C630.5 351.701 643.9 345.701 656.3 338.001C668.2 330.601 679.2 321.901 689.6 312.601C702.8 300.901 715.4 288.401 728.2 276.301C740.4 264.801 752.2 252.101 758.6 236.401C760.2 232.801 755.9 229.401 752.6 230.301Z" fill="#526B22"/>
<path d="M114.2 64.6002C121.3 97.9002 126.9 131.7 136.8 164.4C146.5 196.6 160.6 226.8 179.9 254.3C190.1 268.8 201.4 282.4 212 296.6C224 312.7 235.9 328.7 248.8 344.1C260.9 358.6 273.7 373 288.8 384.5C297.9 391.4 309.1 398.3 320.9 398.1C323 409.6 324.2 421.4 325.7 433C326.5 439 327.3 445.1 328.5 451.1C329 453.4 329.4 455.8 330.5 457.9C330.7 458.7 331.1 459.5 331.9 460.2C332.2 460.5 332.5 460.7 332.8 460.9C332.9 460.9 332.9 461 332.9 461C333 461.1 333.1 461.1 333.1 461.2C338.4 465.6 344.5 468.7 349.6 473.2C353.9 477 360.3 472.1 358.2 467.9C359.5 466.9 360.2 465.3 359.5 463.2C351.7 439.4 346.4 415 341.2 390.5C341.6 390.2 342 389.9 342.4 389.5C365.5 362.5 378.8 328.3 380 292.7C382.4 224.8 346.9 158 298 112.6C250.3 68.3002 183.1 38.6002 117.9 58.4002C115.4 59.5002 113.6 61.8002 114.2 64.6002Z" fill="#60802A"/>
<path d="M116 63.2003C112.8 79.9003 115.8 96.9004 119.8 113.3C124 130.4 127.8 147.8 132.5 164.8C136.2 178.2 140.7 191.6 146.6 204.2C152.8 217.5 160.7 229.8 168.2 242.4C183.6 268.2 199.2 294 217.5 317.9C233.5 338.9 251.5 358.5 272.5 374.6C290.1 388 311.5 400 334.4 396C337 395.5 338.9 392.6 338.3 390.1C337.3 385.9 335.8 382 333.4 378.7C333.2 378.3 333 377.9 332.7 377.5C332.6 377.3 332.5 377.2 332.4 376.9C331.9 376 331.4 375 331 374C329.7 371.3 328.4 368.6 327.1 365.8C324 359.3 321 352.8 317.9 346.4C306.7 323.4 291.9 302.6 278.8 280.7C271.2 268 265 254.7 258.4 241.5C251.5 227.7 244.4 214 236.9 200.5C221.8 173.4 205.6 146.9 187.5 121.7C178.8 109.6 170.1 98.1004 158.3 88.8004C147 79.9004 134.3 72.3004 124.8 61.3004C122.2 58.7004 116.7 59.3003 116 63.2003Z" fill="#526B22"/>
<path d="M136.6 490.6C108.7 527.8 92.3999 572.9 92.3999 621.5C92.3999 693.4 128.1 757.6 183.9 799.7H498C553.8 757.5 589.5 693.4 589.5 621.5C589.5 572.9 573.2 527.8 545.3 490.6H136.6Z" fill="#333333"/>
<path d="M567.5 468.6C567.5 480.7 557.6 490.6 545.5 490.6H129C116.9 490.6 107 480.7 107 468.6V461.5C107 449.4 116.9 439.5 129 439.5H545.5C557.6 439.5 567.5 449.4 567.5 461.5V468.6Z" fill="#D34F2E"/>
<path d="M113.9 599.5C113.9 598.2 113.4 596.9 112.4 596C111.5 595.1 110.1 594.4 108.9 594.5C107.7 594.6 107.1 594.7 106.1 595.3C106 595.4 105.8 595.5 105.7 595.6C105.2 595.8 104.8 596.1 104.4 596.5C103.5 597.4 102.9 598.7 102.9 600C102.9 601.3 103.4 602.6 104.4 603.5C105.3 604.4 106.7 605.1 107.9 605C109.1 604.9 109.7 604.8 110.7 604.2C110.8 604.1 111 604 111.1 603.9C111.6 603.7 112 603.4 112.4 603C113.4 602.1 113.9 600.8 113.9 599.5Z" fill="#D34F2E"/>
<path d="M581.4 600C581.2 599.8 581.1 599.7 580.9 599.5C579 597.6 575.8 597.6 573.8 599.5C571.9 601.4 571.9 604.6 573.8 606.6C574 606.8 574.1 606.9 574.3 607.1C576.2 609 579.4 609 581.4 607.1C583.4 605.2 583.4 601.9 581.4 600Z" fill="#D34F2E"/>
<path d="M126.4 654C120 654 120 664 126.4 664C132.8 664 132.9 654 126.4 654Z" fill="#D34F2E"/>
<path d="M203.2 609.5C201.3 606.4 197.8 606.6 195.6 608.4C193.7 609.7 192.7 612.1 194.6 614.5C194.7 614.7 194.8 614.9 194.9 615.1C197.4 619.3 204.2 617.6 204.2 612.6C204.2 611.4 203.9 610.4 203.2 609.5Z" fill="#D34F2E"/>
<path d="M267.9 654C261.5 654 261.5 664 267.9 664C274.3 664 274.4 654 267.9 654Z" fill="#D34F2E"/>
<path d="M344.7 609.5C342.8 606.4 339.3 606.6 337.1 608.4C335.2 609.7 334.2 612.1 336.1 614.5C336.2 614.7 336.3 614.9 336.4 615.1C338.9 619.3 345.7 617.6 345.7 612.6C345.7 611.4 345.4 610.4 344.7 609.5Z" fill="#D34F2E"/>
<path d="M404.4 654C398 654 398 664 404.4 664C410.8 664 410.9 654 404.4 654Z" fill="#D34F2E"/>
<path d="M545.4 654C539 654 539 664 545.4 664C551.8 664 551.9 654 545.4 654Z" fill="#D34F2E"/>
<path d="M481.2 609.5C479.3 606.4 475.8 606.6 473.6 608.4C471.7 609.7 470.7 612.1 472.6 614.5C472.7 614.7 472.8 614.9 472.9 615.1C475.4 619.3 482.2 617.6 482.2 612.6C482.2 611.4 481.9 610.4 481.2 609.5Z" fill="#D34F2E"/>
<path d="M133.9 604.1C149 631.5 174.2 651.8 190.6 678.4C191 679 191.4 679.5 191.9 679.8C188.6 683.9 195.1 689.8 199.8 686C213.6 674.9 222.5 658.2 233.7 644.8C245.6 630.6 257.4 615.8 271.9 604.1C287 631.5 312.2 651.8 328.6 678.4C329 679.1 329.5 679.6 330.1 680C327.1 684.1 333.5 689.8 338.1 686.1C351.9 675 360.8 658.3 372 644.9C383.9 630.7 395.7 615.9 410.2 604.2C425.3 631.6 450.5 651.9 466.9 678.5C467.3 679.1 467.7 679.6 468.2 679.9C464.9 684 471.4 689.9 476.1 686.1C489.9 675 498.8 658.3 510 644.9C521.9 630.7 533.7 615.9 548.2 604.2C558.5 622.8 573.4 638.2 587 654.4C587.7 650 588.2 645.6 588.6 641.2C575.8 626.4 562.8 611.8 554.2 594.1C553.1 591.8 549.4 590.8 547.4 592.3C531.2 604.4 518.1 619.8 505.2 635.2C499.1 642.5 493.2 649.8 487.7 657.6C483.9 663 480 668.4 475.4 673.2C458 645.2 430.8 624.1 416.2 594.1C415.1 591.8 411.4 590.8 409.4 592.3C393.2 604.4 380.1 619.8 367.2 635.2C361.1 642.5 355.2 649.8 349.7 657.6C345.8 663.1 341.9 668.5 337.3 673.3C319.9 645.2 292.6 624.1 278 594.1C276.9 591.8 273.2 590.8 271.2 592.3C255 604.4 241.9 619.8 229 635.2C222.9 642.5 217 649.8 211.5 657.6C207.7 663 203.8 668.4 199.2 673.2C181.8 645.2 154.6 624.1 140 594.1C138.9 591.8 135.2 590.8 133.2 592.3C117.7 603.8 105.2 618.3 92.8999 633C93.0999 637.8 93.4999 642.5 94.0999 647.2C94.6999 646.5 95.2999 645.7 95.8999 645C107.6 630.6 119.4 615.8 133.9 604.1Z" fill="#D34F2E"/>
<path d="M471.8 823.1H204.5L117 776.4H553.2L471.8 823.1Z" fill="#D34F2E"/>
</svg>
