<svg width="790" height="844" viewBox="0 0 790 844" fill="none" xmlns="http://www.w3.org/2000/svg">
<path d="M789.1 280.5C779.6 259.7 775.4 236.9 758.5 220.3C739.3 201.4 711.2 192.6 684.9 190.5C658.3 188.4 632.2 192.9 608.5 205.3C586.9 216.6 568.7 233.4 551.7 250.6C548.6 253.7 545.6 256.9 542.5 260C530.3 266.3 517.7 272.1 505.7 278.7C492.9 285.8 481.3 294.5 469.8 303.6C448.2 320.8 428.3 340.1 411.4 362C393.3 385.4 378.8 411.6 367.2 438.8C362.1 450.8 357.9 463.1 353.7 475.4C351.6 481.5 349.5 489.5 347.3 494.9C346.2 495.7 345.4 497 345.5 498.8C345.6 500.8 346.3 502.501 348.1 503.601C349.6 504.501 351.7 504.501 353.1 503.601C355.4 502.101 356.1 499.501 357 497.101C358.4 493.201 359.7 489.101 361 485.101C364.3 474.801 367.7 464.6 371.5 454.5C382.1 426.5 396.5 399.4 414 375C430.2 352.3 450.2 332.5 471.6 314.8C483 305.4 494.8 296.5 507.5 289C519.5 282 532.2 276.2 544.7 269.9C545.5 269.9 546.3 269.7 547.1 269.2C571.5 273.6 594.1 284.2 617.8 290.8C638.7 296.6 659.5 297.6 680.5 292.5C699.2 287.9 717.6 281.9 736.6 278.6C750.8 276.2 770.7 273.8 780.9 286.4C785.1 291.3 791.2 285.3 789.1 280.5Z" fill="#526B22"/>
<path d="M775.6 281.601C777.7 282.901 779.6 284.601 781.2 286.601C784.1 290.201 788.4 287.601 789.3 284.101C788.7 283.101 788 282.101 787.4 281.101C775.3 262.901 758.8 246.301 737.7 239.201C744.6 233.001 750.7 225.201 754.6 216.801C752.1 214.601 749.4 212.601 746.7 210.701C742.4 220.901 733.5 230.601 725.6 236.201C716.2 234.501 706.4 234.201 696.9 234.101C693.5 234.101 690.1 234.101 686.7 234.101C687.4 233.101 688.1 232.001 688.6 230.801C691.4 224.701 690.4 218.001 687.7 212.101C684 203.801 678 196.701 671.5 190.101C666.9 190.101 662.3 190.401 657.8 190.801C664.3 196.801 670.6 203.101 675.5 210.401C678.2 214.401 680.5 218.901 680.3 223.901C680.1 228.401 675 233.101 670.7 233.101C669.2 233.101 668 233.701 667.2 234.601C662.2 234.801 657.2 235.001 652.2 235.301C637.4 236.201 622.4 237.301 607.9 240.701C607.7 240.701 607.6 240.801 607.4 240.801C617.1 228.501 623.6 213.301 626.3 197.801C622.5 199.101 618.8 200.601 615.2 202.301C611.3 218.001 603.1 232.801 591.2 243.601C590.5 244.201 590.1 244.901 589.8 245.601C581 248.301 572.2 251.101 563.3 253.401C560.3 254.101 557.4 254.801 554.4 255.301C548.1 256.501 550.8 266.101 557.1 264.901C570.1 262.401 582.7 258.301 595.3 254.501C610.4 262.501 622.7 277.201 628.4 293.501C632.1 294.201 635.7 294.801 639.4 295.201C634.6 277.701 623.3 261.401 608.6 250.901C619.4 248.401 630.2 247.001 641.3 246.101C651.2 245.301 661.1 244.801 671 244.501C676.7 249.501 679.2 257.301 681.2 264.501C683.6 273.201 685.8 282.201 687.4 291.101C690.6 290.301 693.8 289.401 697.1 288.501C695.5 278.701 692.9 268.701 690.2 259.301C688.7 254.001 686.6 248.801 683.7 244.301C694.8 244.101 706 244.001 717.1 245.201C717.2 246.101 717.6 246.901 718.3 247.701C726.1 256.901 732.6 267.101 735.2 279.001V279.101C735.8 279.001 736.3 278.901 736.9 278.801C739.5 278.401 742.2 277.901 745.1 277.601C743.2 266.601 737.7 256.701 731.1 247.801C749.6 253.101 763.9 265.901 775.6 281.601Z" fill="#325B15"/>
<path d="M628.5 31.3005C608.5 20.2005 591.6 4.40044 568.2 1.00044C541.6 -2.79956 513.7 6.80049 491.4 20.8005C468.8 34.9005 450.5 54.1004 438.8 78.1004C428.2 100 423.5 124.4 420 148.3C419.4 152.6 418.8 157 418.2 161.3C412.1 173.6 405.5 185.7 399.7 198.2C393.6 211.5 389.4 225.4 385.6 239.5C378.4 266.1 373.9 293.5 373.4 321.1C372.8 350.7 376.6 380.4 383.5 409.2C386.5 421.9 390.5 434.2 394.4 446.7C396.4 452.9 399.4 460.6 400.9 466.2C400.5 467.5 400.6 469 401.8 470.4C403.1 471.9 404.6 472.9 406.7 472.7C408.4 472.5 410.1 471.3 410.8 469.7C411.8 467.2 410.8 464.601 410 462.101C408.8 458.101 407.4 454.101 406.1 450.101C402.7 439.901 399.3 429.6 396.3 419.2C388.2 390.3 383.7 360 383.3 330C382.9 302.1 387.2 274.3 393.9 247.3C397.5 233 401.6 218.8 407.5 205.2C413 192.4 419.8 180.2 426.1 167.7C426.7 167.2 427.3 166.6 427.6 165.7C449.8 154.7 474.3 149.9 497.3 141.1C517.5 133.4 534.8 121.8 548.7 105.2C561 90.4004 572.2 74.6004 585.6 60.7004C595.6 50.3004 610.2 36.6004 625.9 40.7004C631.7 42.3004 633.1 33.8005 628.5 31.3005Z" fill="#526B22"/>
<path d="M618.3 40.2006C620.8 40.0006 623.3 40.2006 625.8 40.9006C630.3 42.0006 632.2 37.5006 630.8 34.1006C629.7 33.7006 628.6 33.2006 627.5 32.9006C606.9 25.4006 583.8 21.9006 562.6 28.7006C564.4 19.7006 564.8 9.70059 562.9 0.600594C559.6 0.300594 556.2 0.300643 552.9 0.400643C555.6 11.2006 554.1 24.2006 551.1 33.4006C542.5 37.7006 534.5 43.2007 526.8 48.8007C524 50.8007 521.3 52.8006 518.6 54.9006C518.6 53.6006 518.4 52.4006 518.2 51.2006C516.8 44.6006 512 39.9006 506.4 36.6006C498.5 32.1006 489.4 29.9006 480.3 28.6006C476.6 31.4006 473.1 34.3007 469.7 37.3007C478.5 38.3007 487.3 39.6006 495.6 42.6006C500.2 44.2006 504.7 46.5006 507.5 50.6006C510 54.3006 508.6 61.1006 505.2 63.6006C504 64.5006 503.4 65.7006 503.3 66.9006C499.4 70.0006 495.5 73.2006 491.6 76.4006C480.2 85.9006 468.8 95.7006 459.1 107.001C459 107.101 458.9 107.201 458.8 107.401C459.3 91.7006 455.6 75.7006 448.5 61.5006C446.2 64.8006 444.2 68.2006 442.2 71.7006C448.4 86.7006 450.6 103.501 447.4 119.201C447.2 120.101 447.3 120.901 447.5 121.701C442 129.101 436.6 136.601 430.8 143.701C428.9 146.001 426.8 148.301 424.8 150.501C420.4 155.201 428.3 161.401 432.7 156.701C441.7 147.001 449.3 136.201 457.2 125.601C474.1 123.101 492.7 127.601 507 137.301C510.4 135.701 513.7 134.001 516.8 132.201C502.5 120.901 483.8 114.601 465.7 114.901C472.9 106.501 480.7 98.9006 489.1 91.6006C496.6 85.1006 504.2 78.8006 512 72.7006C519.6 73.3006 526.2 78.1006 532.1 82.7006C539.2 88.2006 546.4 94.2006 552.9 100.401C555 97.8006 557.1 95.2006 559.1 92.6006C552 85.7006 543.9 79.2006 536.1 73.2006C531.8 69.9006 527 66.9006 522 65.0006C530.8 58.3006 539.8 51.5006 549.4 45.9006C550 46.5006 550.8 47.0006 551.9 47.2006C563.7 49.9006 574.9 54.4007 584.1 62.3007L584.2 62.4006C584.6 62.0006 585 61.6006 585.4 61.1006C587.2 59.2006 589.2 57.2007 591.2 55.3007C583.2 47.6007 572.8 42.9006 562.2 39.6006C580.4 32.7006 599.6 34.5006 618.3 40.2006Z" fill="#325B15"/>
<path d="M332.1 455C323.3 429.2 312.4 404.1 297.8 381C285 360.6 271 340.6 251.5 325.9C231.1 310.5 206.5 306.7 182.3 301.2C184.9 290 177.8 278.3 170.7 269.5C159.9 256 145.7 245 131.6 235.1C125.7 230.9 119.6 227.1 113.5 223.3C101.8 215.8 90.3996 207.9 78.3996 200.9C55.7996 187.8 29.6996 182.1 7.59959 168.2C2.49959 165 -1.90038 171.9 1.49962 176.1C13.4996 190.7 14.5997 212.1 17.2997 230C18.6997 239.2 20.2997 248.4 23.7997 257.1C27.5997 266.5 33.4996 274.8 40.4996 282.1C55.9996 298.1 78.7996 306.1 99.9996 311C123.8 316.5 148.6 316.1 172.3 310.4C172.6 310.3 173 310.2 173.2 310.1C174.2 310.5 175.3 310.6 176.3 310.3C199.4 315.7 223.7 318.6 243.5 332.8C262.4 346.3 275.699 365.6 287.9 384.9C301.6 406.6 312.699 430.1 320.9 454.4C324.199 464.1 328.5 473.3 332.2 482.7C335.6 491.4 339.6 501.8 337 511.2C335.3 517.4 344.9 520.1 346.6 513.9C352.8 493.5 338.4 473.2 332.1 455Z" fill="#526B22"/>
<path d="M134.8 292.601C137.6 293.901 141.4 293.001 142.1 289.601V289.501C151.5 294.101 160.7 299.001 168.7 305.801C173.6 309.901 180.7 302.9 175.8 298.7C166 290.4 154.7 284.801 143.3 279.301C143.7 267.301 141.1 254.801 142.9 243.101C140 240.901 137 238.701 134.1 236.601C132.7 242.201 132.3 248.101 132.5 254.101C132.7 260.901 133.6 267.801 133.7 274.601C128.3 272.001 122.9 269.201 117.8 266.101C110.8 261.801 104 257.101 97.4998 252.101C97.5998 239.501 94.7997 224.901 97.5997 212.601C94.6997 210.701 91.7998 208.801 88.7998 206.901C87.6998 210.301 86.9997 213.9 86.6997 217.7C85.8997 226.4 86.8998 235.101 87.2998 243.801C78.1998 236.001 69.4998 227.7 61.2998 219.2C59.1998 210.8 54.3998 201.001 57.8998 193.101C58.1998 192.401 58.4998 191.701 58.8998 191.101C55.7998 189.801 52.7997 188.601 49.6997 187.301C47.9997 191.001 46.8998 194.701 46.8998 199.101C46.8998 200.501 46.9997 201.9 47.1997 203.2C40.0997 194.7 33.0998 186.101 25.4998 178.001C25.1998 177.601 24.7998 177.301 24.4998 176.901C18.7998 174.301 13.1998 171.401 7.7998 168.001C5.3998 166.501 3.0998 167.201 1.7998 168.901C8.6998 174.401 14.8998 181.201 20.2998 187.101C28.8998 196.401 36.6998 206.401 44.9998 216.001C35.3998 215.101 25.6997 216.901 16.0997 219.101C16.4997 222.401 16.9998 225.6 17.3998 228.7C30.0998 225.6 43.1998 223.101 54.7998 228.601C55.5998 229.001 56.3997 229.2 57.0997 229.2C63.2997 235.5 69.6998 241.701 76.3998 247.601C59.7998 247.801 44.1997 258.601 30.0997 268.501C31.8997 271.301 33.7998 273.901 35.8998 276.501C51.5998 265.001 70.8997 251.001 89.6997 260.601C90.7997 261.201 91.8998 261.3 92.9998 261.2C98.3998 265.3 104 269.201 109.7 272.901C114.2 275.801 118.9 278.3 123.7 280.7C113.1 280.9 102.6 285.201 93.4998 291.001C87.7998 294.601 82.1997 299.001 77.1997 304.001C80.7997 305.301 84.3998 306.501 87.9998 307.601C90.9998 305.001 94.1998 302.501 97.3998 300.401C107.7 293.401 122.5 287.001 134.8 292.601Z" fill="#325B15"/>
<path d="M369.899 180.801C359.999 137.501 333.299 99.7006 312.899 61.0006C306.199 48.3006 300 35.3006 295.5 21.6006C294 17.1006 286.999 16.5006 285.899 21.6006C274.999 68.3006 242.599 106.901 233.399 154.101C228.799 177.601 232.3 200.501 242.1 222.301C245.3 229.401 250.3 235.601 255.1 241.601C260.9 248.901 267.2 255.801 273.6 262.601C277.4 266.701 281.199 270.701 284.899 274.701C286.099 276.001 287.4 277.401 288.6 278.801C288.7 278.901 289 279.401 289.2 279.601L289.3 279.701C289.3 279.701 289.3 279.701 289.3 279.601C289.4 279.701 289.4 279.701 289.3 279.501C289.2 279.301 289.1 279.001 289 278.601C289.4 280.101 290.5 281.601 292 282.301C297.8 290.101 304.2 297.001 312.2 303.101C313.5 304.101 314.7 304.301 315.8 303.901C317 352.601 327.299 403.001 312.899 450.401C310.999 456.601 320.7 459.201 322.5 453.101C338.1 402.001 325.8 347.901 325.7 295.801C325.7 295.601 325.7 295.401 325.7 295.201C344.2 280.701 359.9 263.101 368.1 240.701C375 221.501 374.399 200.501 369.899 180.801Z" fill="#526B22"/>
<path d="M373.2 205.5C363.8 210.7 355.2 217.3 346.9 224C336 232.7 324.1 243 316.8 255.3C316.6 250.2 316.5 245.1 316.3 240.2C315.8 228.2 315.2 216.3 314.3 204.3C315.9 198.1 320.3 192.6 324.4 187.9C331 180.4 338.8 173.9 346.7 167.7C351.4 163.9 356.8 160 362.4 156.5C361.2 153.4 360 150.3 358.7 147.2C352.2 151.1 346.1 155.4 340.5 159.9C331.6 166.9 323 174.2 315.6 182.8C314.7 183.9 313.7 185 312.8 186.2C311.8 175.4 310.6 164.6 309.2 153.8C309 152.2 308.8 150.6 308.6 148.9C309 148.2 309.1 147.4 309.1 146.3C307.6 131.5 322.6 118.3 333 109.8C334.7 108.4 336.4 107.2 338.2 106C336.6 103.2 335 100.3 333.4 97.5003C330.5 99.3003 327.7 101.3 325 103.5C318.4 108.9 310.8 116 305.6 124.1C305.1 119.8 304.6 115.6 304.2 111.3C303.3 102.7 302.8 94.1003 302.3 85.6003C303.6 79.0003 308.4 72.8003 312.5 68.2003C313.4 67.2003 314.3 66.2004 315.3 65.3004C314.5 63.8004 313.7 62.4003 313 60.9003C312.2 59.3004 311.3 57.7003 310.5 56.1003C308.1 58.3003 305.8 60.7003 303.7 63.1003C302.8 64.2003 301.8 65.3003 301 66.5003C300 53.9003 298.4 41.5004 296.8 28.9003C296.5 26.8004 296.3 24.8003 296.1 22.7003C296 22.3003 295.8 21.8003 295.7 21.4003C294.2 16.9003 287.3 16.4004 286.1 21.3004C286.4 24.4004 286.7 27.5003 287.1 30.6003C288.9 44.3003 290.5 57.9003 291.5 71.6003C291.6 72.7003 291.7 73.8004 291.7 74.9003C285.9 69.8004 278.4 66.4003 270.5 64.0003C269.1 67.0003 267.7 70.0003 266.2 72.9003C278.4 76.3004 289.7 82.6003 292.7 94.9004C292.8 95.2004 292.9 95.5004 293 95.8004C293.4 101.6 293.8 107.4 294.4 113.2C294.6 115.7 294.9 118.1 295.2 120.6C283.1 112.1 264.9 110.2 248 110.4C246.5 113.7 245.1 117.1 243.7 120.4C251.8 120.1 259.9 120.3 267.9 121.5C279.8 123.2 292.7 127.7 297.4 138.7C298.1 144.3 298.9 149.9 299.6 155.5C301.2 167.8 302.5 180.2 303.6 192.5C295.3 184.2 283.9 178.7 272.9 175C260.2 170.7 245.6 168.2 231.7 169.1C231.5 172.5 231.5 175.8 231.7 179.1C243.9 178.2 256.6 180.5 268 183.9C282.1 188.1 299.4 196.3 304.2 211.5C304.4 212.2 304.8 212.8 305.3 213.3C305.8 222.1 306.3 231 306.6 239.9C306.9 246.9 307 254 307.5 261.1C292.6 245 271 235.8 248.9 233C251 235.9 253.2 238.6 255.4 241.3C256.4 242.5 257.3 243.7 258.3 244.8C280.3 249.9 300.4 262.3 310.7 283.3C310.7 283.4 310.8 283.5 310.9 283.5C312.5 289.8 314.7 296 315.9 302.3C317.2 300.5 318.5 298.7 320.4 297.3C321.7 296.3 323.1 295.5 324.4 294.7C323.1 289.6 321.5 284.5 320.2 279.5C320.1 279.2 320.1 278.9 320 278.7C320.4 257.9 339.3 242.7 354.2 230.6C360.3 225.7 366.6 221 373.2 216.9C373.3 213.4 373.3 209.5 373.2 205.5Z" fill="#325B15"/>
<path d="M415.2 276.6C419.1 232.4 405.4 188.2 398 145C395.6 130.8 393.7 116.5 393.7 102.1C393.7 97.4004 387.2 94.7004 384.5 99.1004C359.8 140.2 316.9 166.8 293.7 208.9C282.1 229.9 278.4 252.701 280.9 276.4C281.7 284.1 284.6 291.601 287.3 298.801C290.6 307.501 294.5 316 298.4 324.5C300.7 329.5 303.1 334.5 305.4 339.5C306.2 341.2 306.9 342.8 307.6 344.5C307.7 344.6 307.9 345.2 308 345.5V345.6C308 345.6 308 345.6 308 345.5C308.1 345.6 308.1 345.701 308 345.4C308 345.201 308 344.9 308 344.5C307.9 346.1 308.5 347.8 309.8 348.9C312.9 358.1 316.9 366.7 322.6 374.9C323.5 376.2 324.7 376.801 325.8 376.801C312 423.501 306.2 474.6 277.7 515.301C274 520.6 282.4 526.1 286 520.801C316.6 477.1 321.7 421.8 337.6 372.1C337.7 371.9 337.7 371.7 337.8 371.5C359.9 363.4 380.3 351.5 395 332.7C407.5 316.9 413.4 296.7 415.2 276.6Z" fill="#5B930A"/>
<path d="M410.7 301.101C400.2 303.101 390 306.701 380 310.501C367 315.501 352.5 321.501 341.7 331.001C343.1 326.101 344.5 321.201 345.9 316.401C349.2 304.801 352.2 293.301 355.1 281.701C358.5 276.301 364.4 272.401 369.8 269.201C378.4 264.101 387.9 260.401 397.2 256.901C402.9 254.801 409.1 252.701 415.6 251.101C415.5 247.801 415.2 244.501 414.9 241.201C407.5 242.901 400.4 245.101 393.6 247.601C383 251.501 372.5 255.801 362.8 261.701C361.6 262.501 360.3 263.301 359.1 264.101C361.5 253.501 363.7 242.901 365.7 232.101C366 230.501 366.3 228.901 366.6 227.301C367.2 226.801 367.6 226.001 367.8 225.001C371 210.401 389.3 202.601 401.8 197.701C403.8 196.901 405.9 196.201 407.9 195.701C407.3 192.501 406.6 189.301 406 186.101C402.7 187.001 399.4 188.001 396.2 189.301C388.2 192.401 378.9 196.801 371.3 202.901C372.1 198.701 373 194.501 373.9 190.301C375.7 181.901 377.9 173.501 380 165.201C383.3 159.401 389.7 154.901 395.1 151.801C396.3 151.101 397.4 150.501 398.7 149.901C398.4 148.301 398.1 146.601 397.8 145.001C397.5 143.201 397.2 141.501 396.9 139.701C393.9 141.101 391 142.601 388.3 144.301C387.1 145.001 385.8 145.801 384.6 146.701C387.5 134.401 389.9 122.101 392.2 109.701C392.6 107.601 393 105.601 393.5 103.601C393.5 103.101 393.5 102.701 393.5 102.201C393.5 97.5005 387.1 94.8005 384.4 99.2005C383.7 102.201 383 105.301 382.5 108.301C380 121.801 377.3 135.301 374 148.701C373.7 149.801 373.5 150.801 373.2 151.901C369.2 145.301 363.2 139.701 356.4 135.001C354.2 137.401 351.9 139.801 349.6 142.201C360.1 149.201 369 158.701 368 171.301C368 171.601 368 171.901 368 172.201C366.6 177.901 365.2 183.501 364 189.201C363.5 191.601 363 194.101 362.5 196.501C353.6 184.701 336.9 177.301 320.7 172.201C318.3 174.901 315.9 177.601 313.5 180.401C321.3 182.601 328.9 185.301 336.2 188.901C347 194.201 357.9 202.501 359 214.301C358 219.901 356.9 225.401 355.9 231.001C353.6 243.201 351 255.401 348.2 267.401C342.9 256.901 333.7 248.201 324.4 241.301C313.6 233.301 300.5 226.401 287 223.001C285.8 226.101 284.8 229.301 283.9 232.501C295.8 235.401 307.1 241.501 316.9 248.301C329 256.701 342.9 269.801 342.8 285.701C342.8 286.501 343 287.101 343.2 287.801C341 296.401 338.7 304.901 336.2 313.501C334.3 320.201 332.2 327.001 330.5 333.901C321.3 313.901 303.6 298.601 283.5 289.101C284.6 292.501 285.8 295.801 287.1 299.001C287.6 300.401 288.2 301.801 288.8 303.301C308.2 315.001 323.4 332.901 326.8 356.101C326.8 356.201 326.8 356.301 326.9 356.401C326.5 362.901 326.7 369.501 325.8 375.901C327.6 374.601 329.4 373.301 331.6 372.601C333.1 372.101 334.7 371.801 336.2 371.401C336.5 366.101 336.6 360.801 336.9 355.601C336.9 355.301 336.9 355.001 337 354.701C343.8 335.001 366.5 326.401 384.4 319.501C391.7 316.701 399.1 314.201 406.7 312.401C408.3 308.701 409.6 304.901 410.7 301.101Z" fill="#526B22"/>
<path d="M539.1 244.701C567.2 208.701 587.9 165.801 620.8 130.801C631.5 119.401 643.399 108.901 656.899 100.601C661.299 97.9005 660.7 90.7006 655.1 91.0006C603.7 93.9006 551.1 80.0006 495.3 104.301C467.8 116.601 444.6 139.201 428.6 168.101C423.4 177.501 420.299 187.901 417.699 197.901C414.499 210.001 412.299 222.201 410.699 234.301C409.699 241.501 409 248.6 408.3 255.701C408.1 258.1 407.9 260.401 407.6 262.801C407.6 263.001 407.499 263.701 407.399 264.101C407.399 264.201 407.399 264.201 407.399 264.301V264.201C407.399 264.4 407.399 264.401 407.399 264.101C407.499 263.801 407.699 263.401 407.899 263.001C406.999 264.901 406.599 267.201 407.199 269.101C405.299 281.601 405 293.801 406.8 306.001C407.1 308.001 407.899 309.101 408.999 309.501C376.099 362.101 360.6 429.301 334.3 488.001C330.8 495.801 339.599 504.001 342.899 496.301C370.199 433.401 385.7 361.901 422.1 308.101C422.2 307.901 422.399 307.701 422.499 307.501C446.499 305.901 470.199 300.301 492.199 287.901C510.999 277.101 526.1 261.4 539.1 244.701Z" fill="#5B930A"/>
<path d="M521.899 264.401C511.699 261.001 500.899 259.401 490.199 258.301C476.199 256.901 460.1 256.301 445.5 262.001C449.3 257.101 453.299 252.501 457.199 247.901C466.599 236.901 476.2 226.401 486 216.301C492.3 212.801 499.699 212.301 506.199 212.401C516.599 212.501 526.599 214.701 536.399 217.201C542.299 218.701 548.6 220.701 554.8 223.301C556.7 220.501 558.7 217.601 560.6 214.701C553.8 211.501 546.699 208.901 539.699 207.001C528.799 203.901 517.499 201.401 505.699 201.301C504.199 201.301 502.7 201.301 501.1 201.401C510.2 192.601 519.499 184.001 528.899 175.701C530.299 174.501 531.699 173.201 533.199 172.001C533.999 171.901 534.9 171.501 535.8 170.801C549.3 160.001 568.7 166.601 581.1 171.701C583.1 172.501 585.1 173.501 587 174.501C588.9 171.601 590.899 168.801 592.899 166.001C589.999 164.201 586.899 162.601 583.699 161.201C575.799 157.801 565.8 154.501 555.6 154.201C559.5 151.301 563.5 148.501 567.6 145.801C575.7 140.401 584.1 135.601 592.6 131.101C599.7 129.301 607.6 131.301 613.5 133.301C614.8 133.701 616.1 134.201 617.3 134.801C618.5 133.501 619.7 132.101 621 130.801C622.3 129.401 623.7 128.001 625.1 126.601C622.1 125.101 619.1 123.801 616 122.801C614.6 122.301 613.199 121.901 611.699 121.501C624.299 115.401 636.8 109.401 649.6 104.001C651.7 103.101 653.8 102.301 656 101.501C656.4 101.201 656.8 101.001 657.3 100.701C661.7 98.0007 661.1 90.9007 655.6 91.1007C652.3 92.3007 649 93.5008 645.8 94.9008C631.5 100.901 617.6 107.501 603.6 114.401C602.5 115.001 601.399 115.501 600.199 116.101C603.699 108.201 605.3 99.4007 606 90.6007C602.4 90.5007 598.8 90.3007 595.1 90.2007C594.5 103.901 591.399 117.701 579.899 126.501C579.599 126.701 579.3 127.001 579.1 127.201C573.3 130.501 567.499 133.901 561.899 137.701C559.499 139.301 557.1 140.901 554.8 142.601C558.3 126.401 554 107.701 548.6 91.0007C544.5 91.4007 540.3 91.9007 536.1 92.6007C539 100.501 541.6 108.601 543.3 117.001C545.8 129.601 546.4 144.301 537.8 155.401C532.6 159.501 527.6 163.801 522.5 168.201C511.5 177.901 500.699 187.901 490.199 198.201C493.099 184.601 492.399 170.301 490.699 157.401C488.699 142.501 485 126.701 478.3 113.801C474.6 116.201 471 118.801 467.6 121.601C473.8 132.701 477.2 146.501 479.5 159.601C482.2 176.001 483.9 197.301 473.6 213.701C473.1 214.501 472.8 215.301 472.6 216.101C465.3 223.801 457.999 231.801 450.899 240.001C445.299 246.501 439.7 253.201 434.5 260.301C436.9 233.401 431.8 206.901 422 184.301C420.5 188.801 419.2 193.401 418 197.901C417.5 199.901 417 201.901 416.5 203.901C425.1 228.201 427.7 255.801 419.8 284.601C419.8 284.701 419.799 284.801 419.699 285.001C416.299 292.601 413.5 300.501 410.1 308.101C412.3 307.101 414.599 306.201 416.899 306.201C418.499 306.101 420.099 306.301 421.699 306.501C424.199 300.401 426.6 294.101 429.3 288.201C429.4 287.901 429.6 287.601 429.8 287.201C445.5 267.001 470.5 268.201 489.8 269.701C497.7 270.301 505.5 271.401 513.1 273.201C515.9 270.301 518.999 267.401 521.899 264.401Z" fill="#526B22"/>
<path d="M187.199 247.301C205.599 264.501 227.399 275.4 250.399 282.5C250.499 282.7 250.5 283 250.6 283.2C273.5 343.9 272.1 417.101 284.1 484.601C285.6 492.901 295.999 487.001 294.399 478.601C282.399 415.401 282.799 346.4 262.999 287.6C264.099 287.4 265.199 286.5 265.999 284.7C270.599 273.3 273 261.4 274.1 248.7C275.1 247 275.3 244.6 274.8 242.6C274.9 243.1 274.999 243.501 274.999 243.801C274.999 244.101 274.999 244.1 274.999 243.9V244C274.999 243.9 274.999 243.901 274.999 243.801C274.999 243.401 275.1 242.6 275.1 242.5C275.4 240.2 275.7 237.8 276.1 235.5C277.1 228.4 277.999 221.3 278.699 214.1C279.899 202 280.6 189.6 280.3 177.1C280 166.8 279.5 155.9 276.6 145.6C267.7 113.8 250.399 86.4004 226.499 68.1004C177.699 31.6004 123.399 32.9005 74.0995 18.3005C68.6995 16.8005 66.4995 23.6005 70.0995 27.3005C81.3995 38.5005 90.4995 51.5005 98.2995 65.0005C122.2 106.7 132.4 153.1 151.4 194.7C160.3 213.7 171.399 232.501 187.199 247.301Z" fill="#5B930A"/>
<path d="M163.699 217.7C174.399 216.8 185.299 217.6 195.999 219.1C209.999 221 225.699 224.1 238.699 233C236.099 227.4 233.299 221.9 230.6 216.6C223.999 203.8 217.099 191.3 209.899 179.2C204.599 174.3 197.499 172.2 191.199 170.7C181.099 168.4 170.799 168.2 160.799 168.4C154.699 168.5 148.099 169 141.499 170.1C140.299 166.9 139.099 163.6 137.899 160.4C145.299 158.9 152.799 158 159.999 157.7C171.399 157.2 182.899 157.4 194.399 160C195.899 160.3 197.399 160.7 198.899 161.2C192.099 150.5 185.099 140 177.799 129.7C176.699 128.2 175.599 126.6 174.499 125.1C173.699 124.8 172.999 124.2 172.199 123.3C161.599 109.7 141.199 111.6 127.999 113.7C125.899 114 123.699 114.5 121.699 115.1C120.499 111.9 119.199 108.7 117.899 105.4C121.199 104.4 124.499 103.5 127.899 102.9C136.399 101.4 146.899 100.5 156.799 102.6C153.599 98.9002 150.399 95.2001 147.099 91.7001C140.399 84.6001 133.399 78.0002 126.099 71.6002C119.599 68.2002 111.499 68.3002 105.199 68.9002C103.799 69.0002 102.499 69.2002 101.099 69.5002C100.199 67.9002 99.3994 66.3002 98.4994 64.8002C97.4994 63.1002 96.4994 61.4002 95.4994 59.8002C98.6994 59.0002 101.999 58.5001 105.299 58.2001C106.799 58.1001 108.299 58.0002 109.799 57.9002C98.9995 49.0002 88.1994 40.3002 76.9994 32.1002C75.0994 30.7002 73.2994 29.4001 71.3994 28.2001C70.9994 27.8001 70.6994 27.5002 70.3994 27.1002C66.7994 23.5002 68.8995 16.7002 74.2995 18.1002C77.1995 20.0002 80.0994 21.9002 82.8994 24.0002C95.3994 33.2002 107.399 42.8002 119.499 52.8002C120.499 53.6002 121.399 54.4001 122.399 55.2001C120.799 46.7001 121.299 37.8002 122.699 29.0002C126.199 29.7002 129.799 30.4002 133.399 31.1002C130.799 44.6002 130.699 58.7002 139.799 70.0002C139.999 70.3002 140.199 70.6002 140.399 70.9002C145.299 75.4002 150.099 80.1002 154.699 85.1002C156.699 87.2002 158.599 89.3002 160.499 91.5002C160.799 74.9002 169.299 57.8001 178.499 42.7001C182.399 44.1001 186.399 45.5002 190.299 47.1002C185.599 54.1002 181.299 61.4001 177.699 69.2001C172.399 80.9001 168.299 95.1002 174.1 107.8C178.2 113 182.099 118.4 185.999 123.8C194.499 135.8 202.699 148 210.499 160.5C210.799 146.6 214.799 132.9 219.399 120.7C224.799 106.6 231.999 92.1002 241.499 81.1002C244.499 84.3002 247.399 87.6002 250.199 91.1002C241.599 100.4 235.099 113.1 229.799 125.3C223.299 140.6 216.799 161 223.1 179.3C223.4 180.2 223.499 181 223.499 181.8C228.899 191 233.999 200.5 239.1 210.1C242.999 217.7 246.999 225.5 250.399 233.7C254.299 206.9 265.299 182.4 280.1 162.6C280.499 167.4 280.699 172.1 280.799 176.8C280.899 178.8 280.899 180.9 280.899 182.9C266.999 204.6 257.999 230.8 258.999 260.7C258.999 260.8 258.999 260.9 258.999 261.1C260.599 269.2 261.499 277.7 263.1 285.8C261.1 284.4 259.199 283 256.899 282.3C255.299 281.9 253.7 281.7 252.1 281.4C250.999 274.9 250.199 268.2 248.899 261.8C248.799 261.4 248.799 261.1 248.699 260.7C238.099 237.4 213.499 232.8 194.399 229.8C186.599 228.6 178.699 227.8 170.899 227.9C168.099 224.7 165.799 221.2 163.699 217.7Z" fill="#526B22"/>
<path d="M136.699 499.4C108.799 536.6 92.4995 581.701 92.4995 630.301C92.4995 702.201 128.2 766.4 184 808.5H498.1C553.9 766.3 589.6 702.201 589.6 630.301C589.6 581.701 573.299 536.6 545.399 499.4H136.699Z" fill="#333333"/>
<path d="M567.6 477.401C567.6 489.501 557.7 499.401 545.6 499.401H129.1C117 499.401 107.1 489.501 107.1 477.401V470.301C107.1 458.201 117 448.301 129.1 448.301H545.6C557.7 448.301 567.6 458.201 567.6 470.301V477.401Z" fill="#D34F2E"/>
<path d="M100.1 573.801C103.2 562.501 107.2 551.5 112 540.9C165.6 541.4 219.1 540 272.7 539.2C338.7 538.3 404.6 540.001 470.6 540.101C487.1 540.101 503.5 540 520 539.7C536.3 539.3 552.6 538.101 568.8 538.101C573.8 548.701 578 559.8 581.3 571.2C575.3 571 569.3 570.9 563.3 571.2C530.5 572.9 497.6 573.301 464.7 573.101C398.7 572.801 332.8 571.301 266.8 572.301C211.2 573.101 155.6 574.501 100.1 573.801ZM588.4 607.5C581.9 607.2 575.4 606.9 568.9 606.9C552.6 606.9 536.2 608.2 519.9 608.5C503.4 608.9 487 609 470.5 608.9C404.5 608.8 338.6 607.1 272.6 608C212.9 608.8 153.1 610.5 93.3997 609.5C92.6997 616.3 92.3997 623.2 92.3997 630.2C92.3997 634.4 92.4997 638.501 92.7997 642.601C150.8 643.601 208.7 642.1 266.7 641.2C332.7 640.2 398.6 641.7 464.6 642C497.5 642.1 530.4 641.701 563.2 640.101C571.9 639.701 580.6 639.9 589.3 640.5C589.5 637.1 589.6 633.701 589.6 630.301C589.6 622.601 589.2 615 588.4 607.5ZM519.9 683.9C503.4 684.3 487 684.401 470.5 684.301C404.5 684.201 338.6 682.5 272.6 683.4C214.9 684.2 157.2 685.8 99.4996 684.9C102.5 696.3 106.4 707.401 111.2 718.101C163 718.601 214.8 717.3 266.6 716.5C332.6 715.5 398.5 717.001 464.5 717.301C497.4 717.401 530.3 717 563.1 715.4C566 715.3 569 715.2 571.9 715.2C576.4 704.7 580.2 693.801 583 682.601C578.3 682.401 573.5 682.301 568.8 682.301C552.6 682.301 536.2 683.5 519.9 683.9ZM470.5 745C404.5 744.9 338.6 743.201 272.6 744.101C223.8 744.801 175 746 126.1 745.9C133.5 757.6 141.9 768.6 151.4 778.9C189.8 778.7 228.3 777.8 266.7 777.2C332.7 776.2 398.6 777.7 464.6 778C487.1 778.1 509.6 777.901 532.1 777.301C541.7 766.701 550.2 755.201 557.6 743.101C545 743.501 532.4 744.3 519.9 744.5C503.5 744.9 487 745 470.5 745Z" fill="#D34F2E"/>
<path d="M474.1 843.701H206.7L119.2 797.001H555.5L474.1 843.701Z" fill="#D34F2E"/>
</svg>
