<svg width="520" height="597" viewBox="0 0 520 597" fill="none" xmlns="http://www.w3.org/2000/svg">
<path d="M174.4 87.0007C162.8 60.6007 148.6 34.3007 145.4 5.20068C144.7 -1.09932 135.9 -1.29932 135.4 5.20068C133.5 32.2007 128 58.9007 127.1 86.0007C126.8 93.7007 126.9 101.701 127.7 109.701C121.8 99.7007 115 90.2007 108.5 80.7007C102 71.2007 95.0998 61.4007 91.2998 50.4007C89.8998 46.4007 84.3997 45.3007 82.1997 49.2007C69.5997 71.2007 74.9998 96.3007 84.7998 118.201C94.0998 139.101 108.1 157.201 121.2 175.801C122.4 177.501 124.2 178.101 125.9 178.001C125.8 178.101 125.8 178.201 125.7 178.301C122.4 183.901 131 188.901 134.3 183.301C140.1 173.501 142.4 163.501 142.1 153.401C142.5 154.001 143.1 154.601 143.9 155.101C144.8 155.601 145.8 156.101 146.7 156.601C146.9 156.801 147.1 157.001 147.4 157.301C148.4 158.301 149.5 158.701 150.6 158.701C162.1 164.901 173.9 170.701 185.9 176.001C189.5 177.601 193.1 175.701 193.4 171.701C196.1 142.001 186.3 113.901 174.4 87.0007Z" fill="#325B15"/>
<path d="M256.2 26.1007C257.1 21.2007 251.7 17.7008 247.8 21.2008C228.4 39.2008 209.9 59.2007 201.1 84.6007C196.8 97.1007 196.9 109.601 200.2 122.301C203.4 134.301 208.7 145.601 208.8 158.201C208.8 160.701 210.3 162.201 212.1 162.801C212.4 163.801 213.1 164.801 214.2 165.601C218.6 168.401 223.3 170.301 227.7 173.101C230.4 174.801 234.3 173.201 235 170.101C241 146.801 254.1 126.101 257.2 101.901C260.7 76.7008 251.5 51.3007 256.2 26.1007Z" fill="#325B15"/>
<path d="M346 20.001C314.3 25.301 296.1 55.101 285.1 82.601C273.6 111.201 268.3 141.801 263.1 172.001C262.7 174.301 263.7 176.101 265.3 177.201C263.7 180.901 266.2 186.001 270.8 184.101C299.3 172.201 315.5 143.001 326.9 115.901C339 87.201 346.3 56.601 352.3 26.101C353 22.101 349.9 19.301 346 20.001Z" fill="#325B15"/>
<path d="M513.7 123.501C490.8 114.501 465.2 120.801 443.6 130.201C432.8 134.901 422 141.001 412.1 148.101C413.8 145.301 415.5 142.501 417 139.601C432.3 111.001 440.2 78.7009 446.7 47.1009C447.5 43.3009 444.4 40.101 440.5 40.901C410.1 47.401 385.1 70.301 366.9 94.401C348.6 118.501 334 149.901 336.4 180.701C336.7 184.401 340.1 185.901 342.9 185.401C343.5 187.201 345 188.601 347.4 188.701C359.6 189.201 370.5 186.101 380.1 180.701C380 183.301 381.6 185.801 384.9 185.701C409.3 185.001 434.1 182.901 457.4 174.801C481.5 166.401 501.3 150.901 516.8 130.701C518.8 128.001 516.3 124.501 513.7 123.501Z" fill="#325B15"/>
<path d="M96.3997 182.501C95.0997 181.501 93.7997 180.501 92.4997 179.501C89.7997 146.801 70.8997 116.901 38.1997 107.001C34.7997 106.001 32.1997 108.701 31.8997 111.801C30.1997 128.101 42.7997 143.701 52.6997 155.301C61.7997 165.901 71.9997 175.601 82.8997 184.401C82.8997 185.201 82.8997 186.001 82.9997 186.801C82.9997 191.401 88.0997 192.701 90.9997 190.801C91.1997 190.901 91.2997 191.001 91.4997 191.201C96.4997 195.001 101.5 186.301 96.3997 182.501Z" fill="#325B15"/>
<path d="M145.1 125.5C134.4 107.3 120.7 87.4004 122.9 65.3004C123.4 59.7004 114.1 58.5004 113.1 64.0004C109.6 82.4004 103.3 100.1 103.2 119C103.2 123.8 103.8 128.4 104.8 133C103.6 131 102.3 129.1 101 127.1C89.6999 110.8 75.4999 96.6004 62.8999 81.3004C59.5999 77.3004 53.1999 81.6004 54.4999 86.2004C56.8999 94.5004 57.4999 103.3 58.3999 111.8C59.4999 123 60.5999 134.3 62.4999 145.4C65.2999 161.6 71.1999 182.4 87.8999 188.8C88.4999 190.5 89.9999 191.8 92.3999 191.8C115 192 137.2 199.1 159.7 194.6C161 194.3 161.9 193.7 162.5 192.9C164.5 192.4 166.2 190.9 166.4 188.2C167.6 165.3 156.3 144.7 145.1 125.5Z" fill="#526B22"/>
<path d="M210.2 96.4003C209.5 90.1003 208.5 83.9002 207.2 77.7002C205.6 70.8002 202.8 64.6002 200.2 58.1002C196.1 47.8002 186.5 39.6002 187.4 27.8002C187.9 22.0002 179.2 21.3002 177.6 26.5002C169.9 51.8002 166.6 78.0002 170.3 104.3C174 130.9 183.8 156 194.1 180.6C195.8 184.8 201.2 184.7 203.3 182.2C204.8 186.4 211.7 187.5 212.8 182.1C218.1 153.8 213.3 124.8 210.2 96.4003Z" fill="#526B22"/>
<path d="M304.4 37.0006C281.3 53.4006 260.7 73.5006 247.7 99.0006C234.8 124.201 230.9 152.801 231.5 180.801C231.5 182.301 232.1 183.401 232.9 184.201C232.9 184.501 233 184.801 233.1 185.101C236.4 193.201 246.4 196.101 254.4 196.301C258.9 196.401 260.3 191.501 258.4 188.501C258.7 188.301 259.1 188.001 259.4 187.701C262.4 184.801 264 180.201 265.7 176.501C271.3 164.001 276 151.101 280.1 138.101C284.3 125.001 286.8 111.401 290.4 98.1006C295.3 79.7006 300.4 59.8007 311.2 43.9007C313.9 39.7007 308.4 34.1006 304.4 37.0006Z" fill="#526B22"/>
<path d="M374.5 57.5011C349 67.9011 328.6 87.2011 312.9 109.401C297.3 131.501 286.4 158.101 285.4 185.301C285.2 190.401 291.5 191.501 294.2 188.401C296 190.201 299 191.001 301.4 188.801C310.6 180.601 319.1 171.601 327.2 162.201C335.7 152.301 344.2 141.901 350 130.201C360.7 108.601 365.3 84.1011 380.2 64.8011C382.8 61.4011 378.5 55.9011 374.5 57.5011Z" fill="#526B22"/>
<path d="M467.5 87.5002C446.1 95.8002 424.7 105.1 406.5 119.3C388 133.7 380.6 156.9 367 175.3C363.4 180.2 370.9 184.9 374.9 181.1C375.5 181.1 376.2 180.9 376.8 180.6C415.9 162.4 449.5 130.7 473.1 94.8002C475.5 91.3002 471.6 85.9002 467.5 87.5002Z" fill="#526B22"/>
<path d="M517.4 190.701C513.9 187.801 510.5 184.901 507.5 181.501C506 179.901 504.8 178.101 503.7 176.301C502.8 174.801 502.3 172.401 500.9 171.201C497 167.901 492.7 165.801 487.8 164.201C476 160.401 462.9 161.401 450.8 163.001C437.8 164.801 424.9 168.401 412.8 173.501C406.5 176.201 399.8 179.201 394 183.301C392.7 183.501 391.4 184.301 390.8 185.701C389 187.201 387.3 188.801 385.7 190.601C383.7 192.901 384.2 195.601 385.7 197.401C384.4 199.001 382.7 200.501 380.7 201.801C376.4 204.601 378.3 210.801 383.2 211.101C404.6 212.501 425.8 207.201 446.6 202.801C468 198.301 490.7 193.601 512.4 198.901C517 200.201 521.5 194.101 517.4 190.701Z" fill="#526B22"/>
<path d="M450.9 150.301C422.4 150.401 395.1 158.201 372.8 174.001C376.3 166.201 379.4 158.201 382.5 150.201C390.4 129.901 398.3 108.701 413.9 92.801C417.9 88.701 412.8 82.201 407.8 84.901C383.6 98.301 361.3 115.101 341.4 134.201C329.4 145.701 318.1 158.401 308.5 172.101C311.1 157.801 313.4 143.401 317.7 129.501C318.8 125.901 315.1 122.301 311.5 123.301C294.3 128.401 281.3 143.001 270.9 156.801C264.5 165.301 258.1 174.901 253.5 184.901C249.1 150.401 234.6 117.801 219.7 86.601C217.6 82.101 210.1 84.301 210.4 89.101C211.5 110.501 206.6 131.401 204.9 152.601C204.3 160.201 204.4 167.701 204.9 175.301C199.4 166.301 192 158.001 186.5 149.701C180.4 140.501 175.6 130.401 169.5 121.101C163.2 111.701 156 102.901 148.5 94.501C146.1 91.901 140.8 93.001 140.1 96.701C136.3 119.401 133.2 143.601 148.2 163.101C152.5 168.701 158.1 173.601 163.7 178.501C155.2 173.201 146.5 168.201 137.4 163.901C117.7 154.501 96.7998 148.001 75.6998 142.701C70.2998 141.301 66.6999 149.201 71.7999 151.801C84.5999 158.401 95.4998 168.901 102.9 181.301C96.0998 175.901 88.6998 171.301 80.8998 167.101C66.6998 159.501 52.1998 153.001 39.3998 143.101C36.2998 140.701 31.7998 144.001 31.8998 147.401C32.2998 171.201 46.5998 190.501 64.1998 205.001C62.6998 207.201 62.6999 210.301 65.7999 211.701C73.6999 215.301 82.8999 214.501 91.2999 214.001C102.3 213.301 113.1 212.401 124.1 212.101C152.9 211.301 181.4 214.901 210.1 215.501C265.4 216.501 320.7 207.701 375.9 212.801C377.4 213.901 379.3 214.301 381.1 213.301C382.8 213.501 384.5 213.701 386.2 213.901C390.4 214.401 391.8 210.201 390.4 207.101C391.2 206.601 391.9 205.801 392.2 204.901C403.4 200.001 412.5 192.101 421.2 183.601C430.4 174.601 439.6 164.501 451.9 159.701C457.2 158.101 456.9 150.201 450.9 150.301Z" fill="#60802A"/>
<path d="M44.9998 255.601C17.0998 292.801 0.799805 337.901 0.799805 386.501C0.799805 458.401 36.4998 522.601 92.2998 564.701H406.4C462.2 522.501 497.9 458.401 497.9 386.501C497.9 337.901 481.6 292.801 453.7 255.601H44.9998Z" fill="#333333"/>
<path d="M475.9 233.601C475.9 245.701 466 255.601 453.9 255.601H37.3999C25.2999 255.601 15.3999 245.701 15.3999 233.601V226.501C15.3999 214.401 25.2999 204.501 37.3999 204.501H453.9C466 204.501 475.9 214.401 475.9 226.501V233.601Z" fill="#D34F2E"/>
<path d="M100.1 419.401C99.2999 412.301 97.4 405.101 94.9 398.401C89.2 383.101 76.4999 371.301 59.5999 371.301C42.8999 371.201 28.0999 384.201 20.6999 398.201C15.3999 408.201 6.39996 425.101 15.4 435.301C19.7 440.201 26.6999 433.101 22.4999 428.201C20.2999 425.601 22.4 419.901 23.3 417.201C24.8 412.301 27.1 407.701 29.4 403.201C35.1 392.301 45.4999 382.601 58.1999 381.301C70.6999 380.101 79.9 389.101 84.8 399.701C87 404.401 88.3 409.901 89.4 414.901C89.9 417.101 90.2 419.401 90.4 421.701C90.5 422.801 90.4999 423.801 90.5999 424.901C90.5999 425.601 90.5999 426.001 90.4999 426.301C86.8999 429.801 91.6 436.701 96.8 434.001C101.7 431.501 100.6 423.801 100.1 419.401Z" fill="#D34F2E"/>
<path d="M177.4 419.401C176.6 412.301 174.7 405.101 172.2 398.401C166.5 383.101 153.8 371.301 136.9 371.301C120.2 371.201 105.4 384.201 98 398.201C92.7 408.201 83.7 425.101 92.7 435.301C97 440.201 104 433.101 99.8001 428.201C97.6001 425.601 99.7 419.901 100.6 417.201C102.1 412.301 104.4 407.701 106.7 403.201C112.4 392.301 122.8 382.601 135.5 381.301C148 380.101 157.2 389.101 162.1 399.701C164.3 404.401 165.6 409.901 166.7 414.901C167.2 417.101 167.5 419.401 167.7 421.701C167.8 422.801 167.8 423.801 167.9 424.901C167.9 425.601 167.9 426.001 167.8 426.301C164.2 429.801 168.9 436.701 174.1 434.001C179 431.501 177.9 423.801 177.4 419.401Z" fill="#D34F2E"/>
<path d="M254.8 419.401C254 412.301 252.1 405.101 249.6 398.401C243.9 383.101 231.2 371.301 214.3 371.301C197.6 371.201 182.8 384.201 175.4 398.201C170.1 408.201 161.1 425.101 170.1 435.301C174.4 440.201 181.4 433.101 177.2 428.201C175 425.601 177.1 419.901 178 417.201C179.5 412.301 181.8 407.701 184.1 403.201C189.8 392.301 200.2 382.601 212.9 381.301C225.4 380.101 234.6 389.101 239.5 399.701C241.7 404.401 243 409.901 244.1 414.901C244.6 417.101 244.9 419.401 245.1 421.701C245.2 422.801 245.2 423.801 245.3 424.901C245.3 425.601 245.3 426.001 245.2 426.301C241.6 429.801 246.3 436.701 251.5 434.001C256.3 431.501 255.3 423.801 254.8 419.401Z" fill="#D34F2E"/>
<path d="M332.1 419.401C331.3 412.301 329.4 405.101 326.9 398.401C321.2 383.101 308.5 371.301 291.6 371.301C274.9 371.201 260.1 384.201 252.7 398.201C247.4 408.201 238.4 425.101 247.4 435.301C251.7 440.201 258.7 433.101 254.5 428.201C252.3 425.601 254.4 419.901 255.3 417.201C256.8 412.301 259.1 407.701 261.4 403.201C267.1 392.301 277.5 382.601 290.2 381.301C302.7 380.101 311.9 389.101 316.8 399.701C319 404.401 320.3 409.901 321.4 414.901C321.9 417.101 322.2 419.401 322.4 421.701C322.5 422.801 322.5 423.801 322.6 424.901C322.6 425.601 322.6 426.001 322.5 426.301C318.9 429.801 323.6 436.701 328.8 434.001C333.7 431.501 332.6 423.801 332.1 419.401Z" fill="#D34F2E"/>
<path d="M409.4 419.401C408.6 412.301 406.7 405.101 404.2 398.401C398.5 383.101 385.8 371.301 368.9 371.301C352.2 371.201 337.4 384.201 330 398.201C324.7 408.201 315.7 425.101 324.7 435.301C329 440.201 336 433.101 331.8 428.201C329.6 425.601 331.7 419.901 332.6 417.201C334.1 412.301 336.4 407.701 338.7 403.201C344.4 392.301 354.8 382.601 367.5 381.301C380 380.101 389.2 389.101 394.1 399.701C396.3 404.401 397.6 409.901 398.7 414.901C399.2 417.101 399.5 419.401 399.7 421.701C399.8 422.801 399.8 423.801 399.9 424.901C399.9 425.601 399.9 426.001 399.8 426.301C396.2 429.801 400.9 436.701 406.1 434.001C411 431.501 409.9 423.801 409.4 419.401Z" fill="#D34F2E"/>
<path d="M486.8 419.401C486 412.301 484.1 405.101 481.6 398.401C475.9 383.101 463.2 371.301 446.3 371.301C429.6 371.201 414.8 384.201 407.4 398.201C402.1 408.201 393.1 425.101 402.1 435.301C406.4 440.201 413.4 433.101 409.2 428.201C407 425.601 409.1 419.901 410 417.201C411.5 412.301 413.8 407.701 416.1 403.201C421.8 392.301 432.2 382.601 444.9 381.301C457.4 380.101 466.6 389.101 471.5 399.701C473.7 404.401 475 409.901 476.1 414.901C476.6 417.101 476.9 419.401 477.1 421.701C477.2 422.801 477.2 423.801 477.3 424.901C477.3 425.601 477.3 426.001 477.2 426.301C473.6 429.801 478.3 436.701 483.5 434.001C488.3 431.501 487.3 423.801 486.8 419.401Z" fill="#D34F2E"/>
<path d="M493.3 403.201C494.6 400.701 496.1 398.401 497.9 396.101C497.9 391.301 498 386.401 498 381.601C492.5 386.301 487.9 392.101 484.7 398.201C479.4 408.201 470.4 425.101 479.4 435.301C483.7 440.201 490.7 433.101 486.5 428.201C484.3 425.601 486.4 419.901 487.3 417.201C488.6 412.301 490.9 407.701 493.3 403.201Z" fill="#D34F2E"/>
<path d="M496.6 410.301C496.1 414.801 495.5 419.201 494.7 423.501C490.6 419.401 487.2 414.701 484.7 409.901C484.1 408.801 483.5 407.501 482.8 406.301C482.4 407.401 482 408.601 481.6 409.701C475.9 425.001 463.2 436.801 446.3 436.801C429.6 436.901 414.8 423.901 407.4 409.901C406.8 408.801 406.2 407.501 405.5 406.301C405.1 407.401 404.7 408.601 404.3 409.701C398.6 425.001 385.9 436.801 369 436.801C352.3 436.901 337.5 423.901 330.1 409.901C329.5 408.801 328.9 407.501 328.2 406.301C327.8 407.401 327.4 408.601 327 409.701C321.3 425.001 308.6 436.801 291.7 436.801C275 436.901 260.2 423.901 252.8 409.901C252.2 408.801 251.6 407.501 250.9 406.301C250.5 407.401 250.1 408.601 249.7 409.701C244 425.001 231.3 436.801 214.4 436.801C197.7 436.901 182.9 423.901 175.5 409.901C174.9 408.801 174.3 407.501 173.6 406.301C173.2 407.401 172.8 408.601 172.4 409.701C166.7 425.001 154 436.801 137.1 436.801C120.4 436.901 105.6 423.901 98.1998 409.901C97.5998 408.801 96.9999 407.501 96.2999 406.301C95.8999 407.401 95.4999 408.601 95.0999 409.701C89.3999 425.001 76.6999 436.801 59.7999 436.801C43.5999 436.901 29.2999 424.801 21.5999 411.301C22.1999 414.001 22.5999 416.701 22.9999 419.301C23.4999 423.801 24.5999 431.401 19.5999 434.001C14.3999 436.701 9.69993 429.701 13.2999 426.301C13.2999 426.001 13.3999 425.601 13.3999 424.901C13.3999 423.801 13.3998 422.801 13.1998 421.701C13.0998 420.901 12.9999 420.101 12.8999 419.401C10.6999 422.801 8.09985 425.801 5.09985 428.401C4.29985 424.301 3.59988 420.201 2.99988 416.101C4.79988 413.801 6.29988 411.201 7.49988 408.501C8.09988 407.101 8.69983 405.601 9.19983 404.101C8.69983 402.601 8.09988 401.101 7.49988 399.701C5.79988 396.101 3.69988 392.601 0.999878 389.701C0.999878 388.601 0.899902 387.501 0.899902 386.401C0.899902 383.201 0.999854 380.001 1.09985 376.801C5.29985 379.501 8.8999 383.101 11.8999 387.301C11.4999 384.701 11.4999 382.101 11.9999 379.701C11.5999 377.801 12.4998 375.601 14.1998 374.401C14.5998 373.801 14.9999 373.301 15.3999 372.801C19.4999 368.201 26.0999 374.401 22.9999 379.201C23.5999 382.301 23.1999 386.001 22.8999 388.701C22.8999 388.901 22.7999 389.101 22.7999 389.301C22.9999 389.901 23.1999 390.401 23.2999 390.801C24.7999 395.701 27.0999 400.301 29.3999 404.801C35.0999 415.701 45.4998 425.401 58.1998 426.701C70.6998 427.901 79.8999 418.901 84.7999 408.301C86.9999 403.601 88.2999 398.101 89.3999 393.101C89.5999 392.301 89.6999 391.501 89.8999 390.601C88.9999 386.801 88.6999 383.101 89.3999 379.601C88.9999 377.701 89.8999 375.501 91.5999 374.301C91.9999 373.701 92.3999 373.201 92.7999 372.701C96.8999 368.101 103.5 374.301 100.4 379.101C101 382.201 100.6 385.901 100.3 388.601C100.3 388.801 100.2 389.001 100.2 389.201C100.4 389.801 100.6 390.301 100.7 390.701C102.2 395.601 104.5 400.201 106.8 404.701C112.5 415.601 122.9 425.301 135.6 426.601C148.1 427.801 157.3 418.801 162.2 408.201C164.4 403.501 165.7 398.001 166.8 393.001C167 392.201 167.1 391.401 167.3 390.501C166.4 386.701 166.1 383.001 166.8 379.501C166.4 377.601 167.3 375.401 169 374.201C169.4 373.601 169.8 373.101 170.2 372.601C174.3 368.001 180.9 374.201 177.8 379.001C178.4 382.101 178 385.801 177.7 388.501C177.7 388.701 177.6 388.901 177.6 389.101C177.8 389.701 178 390.201 178.1 390.601C179.6 395.501 181.9 400.101 184.2 404.601C189.9 415.501 200.3 425.201 213 426.501C225.5 427.701 234.7 418.701 239.6 408.101C241.8 403.401 243.1 397.901 244.2 392.901C244.4 392.101 244.5 391.301 244.7 390.401C243.8 386.601 243.5 382.901 244.2 379.401C243.8 377.501 244.7 375.301 246.4 374.101C246.8 373.501 247.2 373.001 247.6 372.501C251.7 367.901 258.3 374.101 255.2 378.901C255.8 382.001 255.4 385.701 255.1 388.401C255.1 388.601 255 388.801 255 389.001C255.2 389.601 255.4 390.101 255.5 390.501C257 395.401 259.3 400.001 261.6 404.501C267.3 415.401 277.7 425.101 290.4 426.401C302.9 427.601 312.1 418.601 317 408.001C319.2 403.301 320.5 397.801 321.6 392.801C321.8 392.001 321.9 391.201 322.1 390.301C321.2 386.501 320.9 382.801 321.6 379.301C321.2 377.401 322.1 375.201 323.8 374.001C324.2 373.401 324.6 372.901 325 372.401C329.1 367.801 335.7 374.001 332.6 378.801C333.2 381.901 332.8 385.601 332.5 388.301C332.5 388.501 332.4 388.701 332.4 388.901C332.6 389.501 332.8 390.001 332.9 390.401C334.4 395.301 336.7 399.901 339 404.401C344.7 415.301 355.1 425.001 367.8 426.301C380.3 427.501 389.5 418.501 394.4 407.901C396.6 403.201 397.9 397.701 399 392.701C399.2 391.901 399.3 391.101 399.5 390.201C398.6 386.401 398.3 382.701 399 379.201C398.6 377.301 399.5 375.101 401.2 373.901C401.6 373.301 402 372.801 402.4 372.301C406.5 367.701 413.1 373.901 410 378.701C410.6 381.801 410.2 385.501 409.9 388.201C409.9 388.401 409.8 388.601 409.8 388.801C410 389.401 410.2 389.901 410.3 390.301C411.8 395.201 414.1 399.801 416.4 404.301C422.1 415.201 432.5 424.901 445.2 426.201C457.7 427.401 466.9 418.401 471.8 407.801C474 403.101 475.3 397.601 476.4 392.601C476.6 391.801 476.7 391.001 476.9 390.101C476 386.301 475.7 382.601 476.4 379.101C476 377.201 476.9 375.001 478.6 373.801C479 373.201 479.4 372.701 479.8 372.201C483.9 367.601 490.5 373.801 487.4 378.601C488 381.701 487.6 385.401 487.3 388.101C487.3 388.301 487.2 388.501 487.2 388.701C487.4 389.301 487.6 389.801 487.7 390.201C489.2 395.101 491.5 399.701 493.8 404.201C494.3 406.801 495.4 408.601 496.6 410.301ZM35.5999 348.701C51.7999 350.101 68.0999 349.601 84.2999 349.201C117 348.301 149.8 348.401 182.5 348.101C248.1 347.601 313.8 347.101 379.5 347.601C410.7 347.901 441.9 348.301 473.1 347.801C480.2 347.701 487.3 347.501 494.4 347.301C493.8 344.001 493.1 340.601 492.3 337.301C484.6 337.501 476.9 337.701 469.2 337.801C436.7 338.301 404.2 337.701 371.6 337.501C305.9 337.001 240.3 337.501 174.6 338.101C142.6 338.401 110.5 338.501 78.4999 339.301C62.9999 339.701 47.6998 339.601 32.1998 338.401C23.5998 337.801 14.8998 337.901 6.19983 338.601C5.39983 342.001 4.69985 345.401 4.09985 348.801C14.5999 347.801 25.1999 347.801 35.5999 348.701ZM371.6 464.901C305.9 464.401 240.3 465.001 174.6 465.501C142.6 465.801 110.5 465.901 78.4999 466.701C62.9999 467.101 47.6998 467.001 32.1998 465.801C26.7998 465.401 21.2999 465.301 15.8999 465.401C17.1999 468.801 18.5999 472.101 20.0999 475.401C25.2999 475.401 30.4999 475.601 35.5999 476.101C51.7999 477.501 68.0999 477.001 84.2999 476.601C117 475.701 149.8 475.801 182.5 475.501C248.1 475.001 313.8 474.501 379.5 475.001C410.7 475.301 441.9 475.701 473.1 475.201C475 475.201 476.9 475.101 478.9 475.101C480.4 471.801 481.8 468.401 483.1 465.001C478.5 465.101 473.8 465.201 469.2 465.301C436.6 465.701 404.1 465.201 371.6 464.901Z" fill="#D34F2E"/>
<path d="M380.2 596.801H112.9L25.3999 550.201H461.6L380.2 596.801Z" fill="#D34F2E"/>
</svg>
